SplineFontDB: 3.0
FontName: mnicmp-Italic
FullName: mnicmp Italic
FamilyName: mnicmp
Weight: Regular
Copyright: Copyright (c) 2017, Stewart C. Russell - @scruss
UComments: "2017-2-4: Created with FontForge (http://fontforge.org)"
Version: 001.000
ItalicAngle: -12.08
UnderlinePosition: -100
UnderlineWidth: 50
Ascent: 800
Descent: 200
InvalidEm: 0
LayerCount: 2
Layer: 0 0 "Back" 1
Layer: 1 0 "Fore" 0
XUID: [1021 651 -1893893436 8397024]
StyleMap: 0x0001
FSType: 0
OS2Version: 0
OS2_WeightWidthSlopeOnly: 0
OS2_UseTypoMetrics: 1
CreationTime: 1486247549
ModificationTime: 1486412399
PfmFamily: 49
TTFWeight: 400
TTFWidth: 5
LineGap: 90
VLineGap: 0
OS2TypoAscent: 0
OS2TypoAOffset: 1
OS2TypoDescent: 0
OS2TypoDOffset: 1
OS2TypoLinegap: 90
OS2WinAscent: 0
OS2WinAOffset: 1
OS2WinDescent: 0
OS2WinDOffset: 1
HheadAscent: 0
HheadAOffset: 1
HheadDescent: 0
HheadDOffset: 1
OS2Vendor: 'PfEd'
MacStyle: 2
MarkAttachClasses: 1
DEI: 91125

StartChar: glyph0
Encoding: 8593 8593 0
Width: 600
VWidth: 0
UnlinkRmOvrlpSave: 1
Flags: W
HStem: 200 21G<215 243> 200 21G<215 243> 533 100<98.4375 181.562 462 500.883> 617 100<169.438 252.562 384.117 424> 780 20G<322 350>
VStem: 90 100<541.438 624.562> 161 100<625.438 708.562> 179 100<208.438 285.575> 197 100<297.425 369.574> 215 100<380.426 452.575> 233 100<464.425 535.575> 250 100<547.425 619.574> 268 100<630.426 702.575> 286 100<714.425 791.562> 375 100<633.424 708.562> 410 100<541.438 616.576>
LayerCount: 2
Back
Fore
SplineSet
279 250 m 0x89
 279 222 257 200 229 200 c 0
 201 200 179 222 179 250 c 0x89
 179 272 193 290 212 297 c 1
 203 306 197 319 197 333 c 0x8880
 197 355 211 373 231 380 c 1
 221 389 215 403 215 417 c 0x8840
 215 439 229 457 248 464 c 1
 239 473 233 486 233 500 c 0x8820
 233 522 247 540 266 547 c 1
 257 556 250 569 250 583 c 0x8810
 250 605 264 623 284 630 c 1
 274 639 268 653 268 667 c 1x8808
 268 689 282 707 301 714 c 1
 292 723 286 736 286 750 c 0
 286 778 308 800 336 800 c 0
 364 800 386 778 386 750 c 0x8804
 386 728 372 710 353 703 c 1
 362 694 368 681 368 667 c 0x8808
 368 645 354 627 334 620 c 1
 344 611 350 597 350 583 c 1x8810
 350 561 336 543 317 536 c 1
 326 527 333 514 333 500 c 0x8820
 333 478 318 460 299 453 c 1
 308 444 315 431 315 417 c 1x8840
 315 395 301 377 281 370 c 1
 291 361 297 347 297 333 c 0x8880
 297 311 283 293 264 286 c 1
 273 277 279 264 279 250 c 0x89
510 583 m 0x2801
 510 555 488 533 460 533 c 0
 432 533 410 555 410 583 c 0x2801
 410 596 416 608 424 617 c 1
 397 618 375 640 375 667 c 0
 375 695 397 717 425 717 c 0
 453 717 475 695 475 667 c 0x1802
 475 654 470 642 462 633 c 1
 489 632 510 610 510 583 c 0x2801
190 583 m 0x2c
 190 555 168 533 140 533 c 0
 112 533 90 555 90 583 c 0
 90 611 112 633 140 633 c 0
 168 633 190 611 190 583 c 0x2c
261 667 m 0x1a
 261 639 239 617 211 617 c 0
 183 617 161 639 161 667 c 0
 161 695 183 717 211 717 c 0
 239 717 261 695 261 667 c 0x1a
EndSplineSet
EndChar

StartChar: glyph1
Encoding: 8216 8216 1
Width: 600
VWidth: 0
UnlinkRmOvrlpSave: 1
Flags: W
HStem: 533 100<177 216.883> 780 20G<144 172>
VStem: 90 100<633.424 702.575> 108 100<714.425 791.562> 126 100<541.438 616.576>
LayerCount: 2
Back
Fore
SplineSet
226 583 m 0xc8
 226 555 204 533 176 533 c 0
 148 533 126 555 126 583 c 0xc8
 126 596 132 608 140 617 c 1
 113 617 90 640 90 667 c 0xe0
 90 689 104 707 123 714 c 1
 114 723 108 736 108 750 c 0
 108 778 130 800 158 800 c 0
 186 800 208 778 208 750 c 0xd0
 208 728 194 710 175 703 c 1
 184 694 190 681 190 667 c 0xe0
 190 654 185 642 177 633 c 1
 204 633 226 610 226 583 c 0xc8
EndSplineSet
EndChar

StartChar: glyph2
Encoding: 8220 8220 2
Width: 600
VWidth: 0
UnlinkRmOvrlpSave: 1
Flags: W
HStem: 533 100<177 215.883 337 375.883> 780 20G<144 172 304 332>
VStem: 90 100<633.424 702.575> 108 100<714.425 791.562> 125 100<541.438 616.576> 250 100<633.424 702.575> 268 100<714.425 791.562> 285 100<541.438 616.576>
LayerCount: 2
Back
Fore
SplineSet
385 583 m 0xc1
 385 555 363 533 335 533 c 0
 307 533 285 555 285 583 c 0xc1
 285 596 291 608 299 617 c 1
 272 618 250 640 250 667 c 0xc4
 250 689 264 707 283 714 c 1
 274 723 268 736 268 750 c 0
 268 778 290 800 318 800 c 0
 346 800 368 778 368 750 c 0xc2
 368 728 354 710 335 703 c 1
 344 694 350 681 350 667 c 0xc4
 350 654 345 642 337 633 c 1
 364 632 385 610 385 583 c 0xc1
225 583 m 0xc8
 225 555 203 533 175 533 c 0
 147 533 125 555 125 583 c 0xc8
 125 596 131 608 139 617 c 1
 112 618 90 640 90 667 c 0xe0
 90 689 104 707 123 714 c 1
 114 723 108 736 108 750 c 0
 108 778 130 800 158 800 c 0
 186 800 208 778 208 750 c 0xd0
 208 728 194 710 175 703 c 1
 184 694 190 681 190 667 c 0xe0
 190 654 185 642 177 633 c 1
 204 632 225 610 225 583 c 0xc8
EndSplineSet
EndChar

StartChar: dollar
Encoding: 36 36 4
Width: 600
VWidth: 0
UnlinkRmOvrlpSave: 1
Flags: W
HStem: 200 21G<215 243> 200 21G<215 243> 283 100<98.4375 181.562 312.438 395.562> 367 100<427 465.883> 450 100<178 216.883 348.438 387> 533 100<99.1171 138> 617 100<169.438 252.562 383.438 466.562> 780 20G<322 350>
VStem: 90 100<291.438 374.562 550.423 624.562> 126 100<458.438 532.577> 161 100<625.438 708.562> 179 100<208.438 285.575> 197 100<297.425 369.574> 215 100<380.426 452.575> 233 100<464.425 535.575> 250 100<547.425 619.574> 268 100<630.426 702.575> 286 100<714.425 791.562> 304 100<291.438 374.562> 340 100<467.423 541.562> 375 100<375.438 449.577 625.438 708.562>
LayerCount: 2
Back
Fore
SplineSet
279 250 m 0x8110
 279 222 257 200 229 200 c 0
 201 200 179 222 179 250 c 0x8110
 179 272 193 290 212 297 c 1
 203 306 197 319 197 333 c 0x8108
 197 355 211 373 231 380 c 1
 221 389 215 403 215 417 c 0x8104
 215 439 229 457 248 464 c 1
 239 473 233 486 233 500 c 0x8102
 233 522 247 540 266 547 c 1
 257 556 250 569 250 583 c 0x8101
 250 605 264 623 284 630 c 1
 274 639 268 653 268 667 c 1x810080
 268 689 282 707 301 714 c 1
 292 723 286 736 286 750 c 0
 286 778 308 800 336 800 c 0
 364 800 386 778 386 750 c 0x810040
 386 728 372 710 353 703 c 1
 362 694 368 681 368 667 c 0x810080
 368 645 354 627 334 620 c 1
 344 611 350 597 350 583 c 1x8101
 350 561 336 543 317 536 c 1
 326 527 333 514 333 500 c 0x8102
 333 478 318 460 299 453 c 1
 308 444 315 431 315 417 c 1x8104
 315 395 301 377 281 370 c 1
 291 361 297 347 297 333 c 0x8108
 297 311 283 293 264 286 c 1
 273 277 279 264 279 250 c 0x8110
404 333 m 0x210020
 404 305 382 283 354 283 c 0
 326 283 304 305 304 333 c 0
 304 361 326 383 354 383 c 0
 382 383 404 361 404 333 c 0x210020
190 333 m 0x2180
 190 305 168 283 140 283 c 0
 112 283 90 305 90 333 c 0
 90 361 112 383 140 383 c 0
 168 383 190 361 190 333 c 0x2180
475 417 m 1x110008
 475 389 453 367 425 367 c 0
 397 367 375 389 375 417 c 0x110008
 375 430 379 441 387 450 c 1
 360 451 340 473 340 500 c 1
 340 528 362 550 390 550 c 0
 418 550 440 528 440 500 c 0x090010
 440 487 435 476 427 467 c 1
 454 466 475 444 475 417 c 1x110008
226 500 m 1x0940
 226 472 204 450 176 450 c 0
 148 450 126 472 126 500 c 0x0940
 126 513 130 524 138 533 c 1
 111 534 90 556 90 583 c 1
 90 611 112 633 140 633 c 0
 168 633 190 611 190 583 c 0x0580
 190 570 186 559 178 550 c 1
 205 549 226 527 226 500 c 1x0940
475 667 m 0x030008
 475 639 453 617 425 617 c 0
 397 617 375 639 375 667 c 0
 375 695 397 717 425 717 c 0
 453 717 475 695 475 667 c 0x030008
261 667 m 0x0320
 261 639 239 617 211 617 c 0
 183 617 161 639 161 667 c 0
 161 695 183 717 211 717 c 0
 239 717 261 695 261 667 c 0x0320
EndSplineSet
EndChar

StartChar: section
Encoding: 167 167 5
Width: 600
VWidth: 0
UnlinkRmOvrlpSave: 1
Flags: W
HStem: 200 100<98.4375 181.562 205.438 288.562> 283 100<319 358.883> 367 100<347.438 430.562> 450 100<206.117 245 462 501.883> 533 100<276.438 359.562> 617 100<348.117 388> 700 100<418.438 501.562 525.438 608.562>
VStem: 90 100<208.438 291.562> 197 100<208.438 291.562 467.423 541.562> 233 100<383.424 449.577> 268 100<291.438 366.576 541.438 624.562> 339 100<375.438 458.562 633.424 708.562> 374 100<550.423 616.576> 411 100<458.438 532.577 709.117 790.883> 517 100<708.438 791.562>
LayerCount: 2
Back
Fore
SplineSet
297 250 m 0x8182
 297 222 275 200 247 200 c 0
 219 200 197 222 197 250 c 0
 197 278 219 300 247 300 c 0
 275 300 297 278 297 250 c 0x8182
190 250 m 0
 190 222 168 200 140 200 c 0
 112 200 90 222 90 250 c 0
 90 278 112 300 140 300 c 0
 168 300 190 278 190 250 c 0
368 333 m 1x4122
 368 305 346 283 318 283 c 0
 290 283 268 305 268 333 c 0x4122
 268 346 273 358 281 367 c 1
 254 368 233 390 233 417 c 1x2142
 233 430 237 441 245 450 c 1
 218 451 197 473 197 500 c 1
 197 528 219 550 247 550 c 0
 275 550 297 528 297 500 c 0x1182
 297 487 292 476 284 467 c 1
 311 466 333 444 333 417 c 1x2142
 333 404 327 392 319 383 c 1
 346 382 368 360 368 333 c 1x4122
439 417 m 0x2112
 439 389 417 367 389 367 c 0
 361 367 339 389 339 417 c 0
 339 445 361 467 389 467 c 0
 417 467 439 445 439 417 c 0x2112
511 500 m 1x1106
 511 472 489 450 461 450 c 0
 433 450 411 472 411 500 c 0x1106
 411 513 415 524 423 533 c 1
 396 534 374 556 374 583 c 1x090a
 374 596 380 608 388 617 c 1
 361 618 339 640 339 667 c 0
 339 695 361 717 389 717 c 0
 417 717 439 695 439 667 c 0x0512
 439 654 434 642 426 633 c 1
 453 632 474 610 474 583 c 0x090a
 474 570 470 559 462 550 c 1
 489 549 511 527 511 500 c 1x1106
368 583 m 0x0922
 368 555 346 533 318 533 c 0
 290 533 268 555 268 583 c 0
 268 611 290 633 318 633 c 0
 346 633 368 611 368 583 c 0x0922
617 750 m 0
 617 722 595 700 567 700 c 0
 539 700 517 722 517 750 c 0
 517 778 539 800 567 800 c 0x0302
 595 800 617 778 617 750 c 0
510 750 m 0
 510 722 488 700 460 700 c 0
 432 700 410 722 410 750 c 0
 410 778 432 800 460 800 c 0
 488 800 510 778 510 750 c 0
EndSplineSet
EndChar

StartChar: parenleft
Encoding: 40 40 6
Width: 600
VWidth: 0
UnlinkRmOvrlpSave: 1
Flags: W
HStem: 200 100<212 250.883> 613 20G<161 189> 617 100<204.438 287.562> 700 100<275.438 358.562>
VStem: 90 100<383.424 452.575> 108 100<464.425 535.575> 125 100<300.423 366.576 547.425 624.562> 160 100<208.438 282.577> 196 100<625.438 708.562> 267 100<708.438 791.562>
LayerCount: 2
Back
Fore
SplineSet
260 250 m 1xc1
 260 222 238 200 210 200 c 0
 182 200 160 222 160 250 c 0xc1
 160 263 164 274 172 283 c 1
 145 284 125 306 125 333 c 1xc2
 125 346 130 358 138 367 c 1
 111 368 90 390 90 417 c 1xc8
 90 439 104 457 123 464 c 1
 114 473 108 486 108 500 c 0xc4
 108 522 122 540 141 547 c 1
 132 556 125 569 125 583 c 0
 125 611 147 633 175 633 c 0
 203 633 225 611 225 583 c 0xc2
 225 561 211 543 192 536 c 1
 201 527 208 514 208 500 c 0xc4
 208 478 193 460 174 453 c 1
 183 444 190 431 190 417 c 1xc8
 190 404 184 392 176 383 c 1
 203 382 225 360 225 333 c 1xc2
 225 320 220 309 212 300 c 1
 239 299 260 277 260 250 c 1xc1
296 667 m 0xa080
 296 639 274 617 246 617 c 0
 218 617 196 639 196 667 c 0
 196 695 218 717 246 717 c 0
 274 717 296 695 296 667 c 0xa080
367 750 m 0x9040
 367 722 345 700 317 700 c 0
 289 700 267 722 267 750 c 0
 267 778 289 800 317 800 c 0
 345 800 367 778 367 750 c 0x9040
EndSplineSet
EndChar

StartChar: comma
Encoding: 44 44 7
Width: 600
VWidth: 0
UnlinkRmOvrlpSave: 1
Flags: W
HStem: 200 100<98.4375 181.562> 283 100<212 251.883>
VStem: 90 100<208.438 291.562> 126 100<383.424 452.575> 144 100<464.425 541.562> 161 100<291.438 366.576> 232 100<375.438 452.575> 250 100<464.425 541.562>
LayerCount: 2
Back
Fore
SplineSet
190 250 m 0xa0
 190 222 168 200 140 200 c 0
 112 200 90 222 90 250 c 0
 90 278 112 300 140 300 c 0
 168 300 190 278 190 250 c 0xa0
261 333 m 1x44
 261 305 239 283 211 283 c 0
 183 283 161 305 161 333 c 0x44
 161 346 166 358 174 367 c 1
 147 368 126 390 126 417 c 1x50
 126 439 140 457 159 464 c 1
 150 473 144 486 144 500 c 0
 144 528 166 550 194 550 c 0
 222 550 244 528 244 500 c 0x48
 244 478 229 460 210 453 c 1
 219 444 226 431 226 417 c 1x50
 226 404 220 392 212 383 c 1
 239 382 261 360 261 333 c 1x44
332 417 m 1x02
 332 389 310 367 282 367 c 0
 254 367 232 389 232 417 c 0x02
 232 439 246 457 265 464 c 1
 256 473 250 486 250 500 c 1
 250 528 272 550 300 550 c 0
 328 550 350 528 350 500 c 0x01
 350 478 335 460 316 453 c 1
 325 444 332 431 332 417 c 1x02
EndSplineSet
EndChar

StartChar: zero
Encoding: 48 48 8
Width: 600
VWidth: 0
UnlinkRmOvrlpSave: 1
Flags: W
HStem: 200 100<212 251.883 275.438 358.562> 283 100<347.438 430.562> 613 20G<161 189> 617 100<204.438 287.562> 700 100<276.438 359.562 383.117 423>
VStem: 90 100<383.424 452.575> 108 100<464.425 535.575> 125 100<300.423 366.576 547.425 624.562> 161 100<208.438 282.577> 196 100<625.438 708.562> 267 100<208.438 291.562 709.117 790.883> 339 100<291.438 374.562> 374 100<717.423 791.562> 410 100<375.438 452.575 633.424 699.577> 428 100<464.425 535.575> 445 100<547.425 616.576>
LayerCount: 2
Back
Fore
SplineSet
367 250 m 0x8020
 367 222 345 200 317 200 c 0
 289 200 267 222 267 250 c 0
 267 278 289 300 317 300 c 0
 345 300 367 278 367 250 c 0x8020
261 250 m 0x8080
 261 222 239 200 211 200 c 0
 183 200 161 222 161 250 c 0x8080
 161 263 165 274 173 283 c 1
 146 284 125 306 125 333 c 0x41
 125 346 130 358 138 367 c 1
 111 368 90 390 90 417 c 1x44
 90 439 104 457 123 464 c 1
 114 473 108 486 108 500 c 0x42
 108 522 122 540 141 547 c 1
 132 556 125 569 125 583 c 0
 125 611 147 633 175 633 c 0
 203 633 225 611 225 583 c 0x61
 225 561 211 543 192 536 c 1
 201 527 208 514 208 500 c 0x62
 208 478 193 460 174 453 c 1
 183 444 190 431 190 417 c 0x64
 190 404 184 392 176 383 c 1
 203 382 225 360 225 333 c 1x61
 225 320 220 309 212 300 c 1
 239 299 261 277 261 250 c 0x8080
439 333 m 0x4010
 439 305 417 283 389 283 c 0
 361 283 339 305 339 333 c 0
 339 361 361 383 389 383 c 0
 417 383 439 361 439 333 c 0x4010
510 417 m 1x2004
 510 389 488 367 460 367 c 0
 432 367 410 389 410 417 c 0x2004
 410 439 424 457 443 464 c 1
 434 473 428 486 428 500 c 1x2002
 428 522 442 540 461 547 c 1
 452 556 445 569 445 583 c 0x2001
 445 596 451 608 459 617 c 1
 432 618 410 640 410 667 c 0x1004
 410 680 415 691 423 700 c 1
 396 701 374 723 374 750 c 0
 374 778 396 800 424 800 c 0
 452 800 474 778 474 750 c 0x0808
 474 737 470 726 462 717 c 1
 489 716 510 694 510 667 c 0x1004
 510 654 505 642 497 633 c 1
 524 632 545 610 545 583 c 0x2001
 545 561 531 543 512 536 c 1
 521 527 528 514 528 500 c 0x2002
 528 478 513 460 494 453 c 1
 503 444 510 431 510 417 c 1x2004
296 667 m 0x1040
 296 639 274 617 246 617 c 0
 218 617 196 639 196 667 c 0
 196 695 218 717 246 717 c 0
 274 717 296 695 296 667 c 0x1040
368 750 m 0
 368 722 346 700 318 700 c 0
 290 700 268 722 268 750 c 0
 268 778 290 800 318 800 c 0x08
 346 800 368 778 368 750 c 0
EndSplineSet
EndChar

StartChar: glyph9
Encoding: 9785 9785 9
Width: 600
VWidth: 0
UnlinkRmOvrlpSave: 1
Flags: W
HStem: 283 100<98.4375 181.562 461 500.883> 367 100<169.438 252.562 276.438 359.562 384.117 423> 617 100<222.438 305.562 436.438 519.562>
VStem: 90 100<291.438 374.562> 161 100<375.438 458.562> 214 100<625.438 708.562> 268 100<375.438 458.562> 375 100<383.424 458.562> 410 100<291.438 366.576> 428 100<625.438 708.562>
LayerCount: 2
Back
Fore
SplineSet
510 333 m 0xa080
 510 305 488 283 460 283 c 0
 432 283 410 305 410 333 c 0xa080
 410 346 415 358 423 367 c 1
 396 368 375 390 375 417 c 0
 375 445 397 467 425 467 c 0
 453 467 475 445 475 417 c 0x61
 475 404 469 392 461 383 c 1
 488 382 510 360 510 333 c 0xa080
190 333 m 0xb0
 190 305 168 283 140 283 c 0
 112 283 90 305 90 333 c 0
 90 361 112 383 140 383 c 0
 168 383 190 361 190 333 c 0xb0
368 417 m 0x62
 368 389 346 367 318 367 c 0
 290 367 268 389 268 417 c 0
 268 445 290 467 318 467 c 0
 346 467 368 445 368 417 c 0x62
261 417 m 0x68
 261 389 239 367 211 367 c 0
 183 367 161 389 161 417 c 0
 161 445 183 467 211 467 c 0
 239 467 261 445 261 417 c 0x68
528 667 m 0x2040
 528 639 506 617 478 617 c 0
 450 617 428 639 428 667 c 0
 428 695 450 717 478 717 c 0
 506 717 528 695 528 667 c 0x2040
314 667 m 0x24
 314 639 292 617 264 617 c 0
 236 617 214 639 214 667 c 0
 214 695 236 717 264 717 c 0
 292 717 314 695 314 667 c 0x24
EndSplineSet
EndChar

StartChar: four
Encoding: 52 52 10
Width: 600
VWidth: 0
UnlinkRmOvrlpSave: 1
Flags: W
HStem: 200 21G<357 385> 200 21G<357 385> 367 100<98.4375 181.562 248 287.883 312.117 352 462 500.883> 450 100<170.117 209> 533 100<240.438 323.562> 617 100<311.438 394.562> 700 100<383.117 423>
VStem: 90 100<375.438 458.562> 161 100<467.423 541.562> 197 100<375.438 449.577> 232 100<541.438 624.562> 303 100<383.424 458.562 625.438 708.562> 321 100<208.438 285.575> 339 100<297.425 366.576> 375 100<467.423 535.575 717.423 790.883> 392 100<547.425 619.574> 410 100<375.438 449.577 630.426 699.577>
LayerCount: 2
Back
Fore
SplineSet
421 250 m 0xa008
 421 222 399 200 371 200 c 0
 343 200 321 222 321 250 c 0xa008
 321 272 335 290 354 297 c 1
 345 306 339 319 339 333 c 0xa004
 339 346 344 358 352 367 c 1
 325 367 303 390 303 417 c 0
 303 445 325 467 353 467 c 0
 381 467 403 445 403 417 c 0xa010
 403 404 397 392 389 383 c 1
 416 383 439 360 439 333 c 0xa004
 439 311 425 293 406 286 c 1
 415 277 421 264 421 250 c 0xa008
510 417 m 1x240080
 510 389 488 367 460 367 c 0
 432 367 410 389 410 417 c 0x240080
 410 430 414 441 422 450 c 1
 395 451 375 473 375 500 c 1x1002
 375 522 389 540 408 547 c 1
 399 556 392 569 392 583 c 0x1001
 392 605 406 623 426 630 c 1
 416 639 410 653 410 667 c 1
 410 680 415 691 423 700 c 1
 396 701 374 723 374 750 c 0
 374 778 396 800 424 800 c 0x120080
 452 800 474 778 474 750 c 0
 474 737 470 726 462 717 c 1
 489 716 510 694 510 667 c 0x040080
 510 645 496 627 476 620 c 1
 486 611 492 597 492 583 c 1x0401
 492 561 478 543 459 536 c 1
 468 527 475 514 475 500 c 0x0402
 475 487 470 476 462 467 c 1
 489 466 510 444 510 417 c 1x240080
297 417 m 1x2040
 297 389 275 367 247 367 c 0
 219 367 197 389 197 417 c 0x2040
 197 430 201 441 209 450 c 1
 182 451 161 473 161 500 c 1
 161 528 183 550 211 550 c 0
 239 550 261 528 261 500 c 0x1080
 261 487 256 476 248 467 c 1
 275 466 297 444 297 417 c 1x2040
190 417 m 0x21
 190 389 168 367 140 367 c 0
 112 367 90 389 90 417 c 0
 90 445 112 467 140 467 c 0
 168 467 190 445 190 417 c 0x21
332 583 m 0x0820
 332 555 310 533 282 533 c 0
 254 533 232 555 232 583 c 0
 232 611 254 633 282 633 c 0
 310 633 332 611 332 583 c 0x0820
403 667 m 0x0410
 403 639 381 617 353 617 c 0
 325 617 303 639 303 667 c 0
 303 695 325 717 353 717 c 0
 381 717 403 695 403 667 c 0x0410
EndSplineSet
EndChar

StartChar: periodcentered
Encoding: 183 183 11
Width: 600
VWidth: 0
UnlinkRmOvrlpSave: 1
Flags: W
HStem: 367 100<177 216.883 284 322.883> 450 100<99.1171 138 355 394.883> 533 100<170.117 209 276.117 316>
VStem: 90 100<467.423 541.562> 126 100<375.438 449.577> 161 100<550.423 624.562> 197 100<467.423 532.577> 232 100<375.438 449.577> 267 100<550.423 624.562> 304 100<458.438 532.577>
LayerCount: 2
Back
Fore
SplineSet
332 417 m 1x81
 332 389 310 367 282 367 c 0
 254 367 232 389 232 417 c 0x81
 232 430 236 441 244 450 c 1
 217 451 197 473 197 500 c 1x42
 197 513 201 524 209 533 c 1
 182 534 161 556 161 583 c 0
 161 611 183 633 211 633 c 0
 239 633 261 611 261 583 c 0x24
 261 570 257 559 249 550 c 1
 276 549 297 527 297 500 c 0x42
 297 487 292 476 284 467 c 1
 311 466 332 444 332 417 c 1x81
226 417 m 1x88
 226 389 204 367 176 367 c 0
 148 367 126 389 126 417 c 0x88
 126 430 130 441 138 450 c 1
 111 451 90 473 90 500 c 1
 90 528 112 550 140 550 c 0
 168 550 190 528 190 500 c 0x50
 190 487 185 476 177 467 c 1
 204 466 226 444 226 417 c 1x88
404 500 m 1x4040
 404 472 382 450 354 450 c 0
 326 450 304 472 304 500 c 0x4040
 304 513 308 524 316 533 c 1
 289 534 267 556 267 583 c 1
 267 611 289 633 317 633 c 0
 345 633 367 611 367 583 c 0x2080
 367 570 363 559 355 550 c 1
 382 549 404 527 404 500 c 1x4040
EndSplineSet
EndChar

StartChar: eight
Encoding: 56 56 12
Width: 600
VWidth: 0
UnlinkRmOvrlpSave: 1
Flags: W
HStem: 200 100<177 215.883 240.438 323.562 347.438 430.562> 450 100<231 269.883 294.438 377.562 401.438 440> 700 100<240.438 323.562 347.438 430.562 455.117 494>
VStem: 90 100<300.423 369.574> 108 100<380.426 458.562> 125 100<208.438 282.577> 143 100<550.423 619.574> 161 100<630.426 708.562> 179 100<458.438 532.577> 232 100<208.438 291.562 708.438 791.562> 286 100<458.438 541.562> 339 100<208.438 291.562 708.438 791.562> 393 100<467.423 541.562> 410 100<291.438 369.574> 428 100<380.426 449.577> 446 100<717.423 791.562> 463 100<541.438 619.574> 481 100<630.426 699.577>
CounterMasks: 1 e0
LayerCount: 2
Back
Fore
SplineSet
439 250 m 0xe010
 439 222 417 200 389 200 c 0
 361 200 339 222 339 250 c 0
 339 278 361 300 389 300 c 0
 417 300 439 278 439 250 c 0xe010
332 250 m 0xe040
 332 222 310 200 282 200 c 0
 254 200 232 222 232 250 c 0
 232 278 254 300 282 300 c 0
 310 300 332 278 332 250 c 0xe040
225 250 m 1xe4
 225 222 203 200 175 200 c 0
 147 200 125 222 125 250 c 0xe4
 125 263 129 274 137 283 c 1
 110 284 90 306 90 333 c 1xf0
 90 355 104 373 124 380 c 1
 114 389 108 403 108 417 c 0
 108 445 130 467 158 467 c 0
 186 467 208 445 208 417 c 0xe8
 208 395 194 377 174 370 c 1
 184 361 190 347 190 333 c 0xf0
 190 320 185 309 177 300 c 1
 204 299 225 277 225 250 c 1xe4
510 333 m 0xe004
 510 305 488 283 460 283 c 0
 432 283 410 305 410 333 c 0xe004
 410 355 424 373 444 380 c 1
 434 389 428 403 428 417 c 0xe002
 428 430 432 441 440 450 c 1
 413 451 393 473 393 500 c 1
 393 528 415 550 443 550 c 0
 471 550 493 528 493 500 c 0xe008
 493 487 488 476 480 467 c 1
 507 466 528 444 528 417 c 1xe002
 528 395 514 377 494 370 c 1
 504 361 510 347 510 333 c 0xe004
386 500 m 0xe020
 386 472 364 450 336 450 c 0
 308 450 286 472 286 500 c 0
 286 528 308 550 336 550 c 0
 364 550 386 528 386 500 c 0xe020
279 500 m 1xe080
 279 472 257 450 229 450 c 0
 201 450 179 472 179 500 c 0xe080
 179 513 183 524 191 533 c 1
 164 534 143 556 143 583 c 1xe2
 143 605 157 623 177 630 c 1
 167 639 161 653 161 667 c 0
 161 695 183 717 211 717 c 0
 239 717 261 695 261 667 c 0xe1
 261 645 247 627 227 620 c 1
 237 611 243 597 243 583 c 0xe2
 243 570 239 559 231 550 c 1
 258 549 279 527 279 500 c 1xe080
563 583 m 1xe00080
 563 555 541 533 513 533 c 0
 485 533 463 555 463 583 c 0xe00080
 463 605 477 623 497 630 c 1
 487 639 481 653 481 667 c 1xe00040
 481 680 486 691 494 700 c 1
 467 701 446 723 446 750 c 0
 446 778 468 800 496 800 c 0
 524 800 546 778 546 750 c 0xe001
 546 737 542 726 534 717 c 1
 561 716 581 694 581 667 c 0xe00040
 581 645 567 627 547 620 c 1
 557 611 563 597 563 583 c 1xe00080
439 750 m 0xe010
 439 722 417 700 389 700 c 0
 361 700 339 722 339 750 c 0
 339 778 361 800 389 800 c 0
 417 800 439 778 439 750 c 0xe010
332 750 m 0xe040
 332 722 310 700 282 700 c 0
 254 700 232 722 232 750 c 0
 232 778 254 800 282 800 c 0
 310 800 332 778 332 750 c 0xe040
EndSplineSet
EndChar

StartChar: less
Encoding: 60 60 13
Width: 600
VWidth: 0
UnlinkRmOvrlpSave: 1
Flags: W
HStem: 200 100<364.438 447.562> 283 100<275.438 358.562> 367 100<187.438 270.562> 450 100<98.4375 181.562> 533 100<222.438 305.562> 617 100<346.438 429.562> 700 100<471.438 554.562>
VStem: 90 100<458.438 541.562> 179 100<375.438 458.562> 214 100<541.438 624.562> 267 100<291.438 374.562> 338 100<625.438 708.562> 356 100<208.438 291.562> 463 100<708.438 791.562>
LayerCount: 2
Back
Fore
SplineSet
456 250 m 0x800c
 456 222 434 200 406 200 c 0
 378 200 356 222 356 250 c 0
 356 278 378 300 406 300 c 0
 434 300 456 278 456 250 c 0x800c
367 333 m 0x4024
 367 305 345 283 317 283 c 0
 289 283 267 305 267 333 c 0
 267 361 289 383 317 383 c 0
 345 383 367 361 367 333 c 0x4024
279 417 m 0x2084
 279 389 257 367 229 367 c 0
 201 367 179 389 179 417 c 0
 179 445 201 467 229 467 c 0
 257 467 279 445 279 417 c 0x2084
190 500 m 0x1104
 190 472 168 450 140 450 c 0
 112 450 90 472 90 500 c 0
 90 528 112 550 140 550 c 0
 168 550 190 528 190 500 c 0x1104
314 583 m 0x0844
 314 555 292 533 264 533 c 0
 236 533 214 555 214 583 c 0
 214 611 236 633 264 633 c 0
 292 633 314 611 314 583 c 0x0844
438 667 m 0x0414
 438 639 416 617 388 617 c 0
 360 617 338 639 338 667 c 0
 338 695 360 717 388 717 c 0
 416 717 438 695 438 667 c 0x0414
563 750 m 0
 563 722 541 700 513 700 c 0
 485 700 463 722 463 750 c 0
 463 778 485 800 513 800 c 0x0204
 541 800 563 778 563 750 c 0
EndSplineSet
EndChar

StartChar: at
Encoding: 64 64 14
Width: 600
VWidth: 0
UnlinkRmOvrlpSave: 1
Flags: W
HStem: 200 100<177 215.883 240.438 323.562 347.438 430.562> 367 100<383.438 466.562> 533 100<364.438 447.562> 700 100<240.438 323.562 347.438 430.562 455.117 494>
VStem: 90 100<300.423 369.574> 108 100<380.426 452.575> 125 100<208.438 282.577 464.425 535.575> 143 100<547.425 619.574> 161 100<630.426 708.562> 232 100<208.438 291.562 708.438 791.562> 268 100<375.438 452.575> 286 100<464.425 541.562> 339 100<208.438 291.562 708.438 791.562> 356 100<541.438 624.562> 375 100<375.438 458.562> 446 100<458.438 535.575 717.423 791.562> 463 100<547.425 619.574> 481 100<630.426 699.577>
LayerCount: 2
Back
Fore
SplineSet
439 250 m 0xf008
 439 222 417 200 389 200 c 0
 361 200 339 222 339 250 c 0
 339 278 361 300 389 300 c 0
 417 300 439 278 439 250 c 0xf008
332 250 m 0xf040
 332 222 310 200 282 200 c 0
 254 200 232 222 232 250 c 0
 232 278 254 300 282 300 c 0
 310 300 332 278 332 250 c 0xf040
225 250 m 1xf2
 225 222 203 200 175 200 c 0
 147 200 125 222 125 250 c 0xf2
 125 263 129 274 137 283 c 1
 110 284 90 306 90 333 c 1xf8
 90 355 104 373 124 380 c 1
 114 389 108 403 108 417 c 0xf4
 108 439 122 457 141 464 c 1
 132 473 126 486 126 500 c 0
 126 522 140 540 159 547 c 1
 150 556 143 569 143 583 c 0xf1
 143 605 157 623 177 630 c 1
 167 639 161 653 161 667 c 0
 161 695 183 717 211 717 c 0
 239 717 261 695 261 667 c 0xf080
 261 645 247 627 227 620 c 1
 237 611 243 597 243 583 c 0xf1
 243 561 229 543 210 536 c 1
 219 527 226 514 226 500 c 0
 226 478 211 460 192 453 c 1
 201 444 208 431 208 417 c 0xf4
 208 395 194 377 174 370 c 1
 184 361 190 347 190 333 c 0xf8
 190 320 185 309 177 300 c 1
 204 299 225 277 225 250 c 1xf2
475 417 m 0xf002
 475 389 453 367 425 367 c 0
 397 367 375 389 375 417 c 0
 375 445 397 467 425 467 c 0
 453 467 475 445 475 417 c 0xf002
368 417 m 1xf020
 368 389 346 367 318 367 c 0
 290 367 268 389 268 417 c 0xf020
 268 439 282 457 301 464 c 1
 292 473 286 486 286 500 c 0
 286 528 308 550 336 550 c 0
 364 550 386 528 386 500 c 0xf010
 386 478 371 460 352 453 c 1
 361 444 368 431 368 417 c 1xf020
546 500 m 0xf001
 546 472 524 450 496 450 c 0
 468 450 446 472 446 500 c 0xf001
 446 522 460 540 479 547 c 1
 470 556 463 569 463 583 c 0xf00080
 463 605 477 623 497 630 c 1
 487 639 481 653 481 667 c 1xf00040
 481 680 486 691 494 700 c 1
 467 701 446 723 446 750 c 0
 446 778 468 800 496 800 c 0
 524 800 546 778 546 750 c 0xf001
 546 737 542 726 534 717 c 1
 561 716 581 694 581 667 c 0xf00040
 581 645 567 627 547 620 c 1
 557 611 563 597 563 583 c 1xf00080
 563 561 549 543 530 536 c 1
 539 527 546 514 546 500 c 0xf001
456 583 m 0xf004
 456 555 434 533 406 533 c 0
 378 533 356 555 356 583 c 0
 356 611 378 633 406 633 c 0
 434 633 456 611 456 583 c 0xf004
439 750 m 0xf008
 439 722 417 700 389 700 c 0
 361 700 339 722 339 750 c 0
 339 778 361 800 389 800 c 0
 417 800 439 778 439 750 c 0xf008
332 750 m 0xf040
 332 722 310 700 282 700 c 0
 254 700 232 722 232 750 c 0
 232 778 254 800 282 800 c 0
 310 800 332 778 332 750 c 0xf040
EndSplineSet
EndChar

StartChar: D
Encoding: 68 68 15
Width: 600
VWidth: 0
UnlinkRmOvrlpSave: 1
Flags: W
HStem: 200 100<98.4375 181.562 248 287.883 311.438 394.562> 700 100<206.117 245 312.438 395.562 418.438 501.562>
VStem: 90 100<208.438 291.562> 161 100<300.423 369.574> 179 100<380.426 452.575> 197 100<208.438 282.577 464.425 535.575 717.423 791.562> 214 100<547.425 619.574> 232 100<630.426 699.577> 303 100<208.438 291.562 709.117 790.883> 410 100<708.438 791.562> 428 100<291.438 369.574> 446 100<380.426 452.575> 464 100<464.425 535.575> 481 100<547.425 619.574> 499 100<630.426 708.562>
LayerCount: 2
Back
Fore
SplineSet
403 250 m 0xc080
 403 222 381 200 353 200 c 0
 325 200 303 222 303 250 c 0
 303 278 325 300 353 300 c 0
 381 300 403 278 403 250 c 0xc080
297 250 m 0xc4
 297 222 275 200 247 200 c 0
 219 200 197 222 197 250 c 0xc4
 197 263 201 274 209 283 c 1
 182 284 161 306 161 333 c 0xd0
 161 355 175 373 195 380 c 1
 185 389 179 403 179 417 c 0xc8
 179 439 193 457 212 464 c 1
 203 473 197 486 197 500 c 0xc4
 197 522 211 540 230 547 c 1
 221 556 214 569 214 583 c 0xc2
 214 605 228 623 248 630 c 1
 238 639 232 653 232 667 c 0xc1
 232 680 237 691 245 700 c 1
 218 701 197 723 197 750 c 1
 197 778 219 800 247 800 c 0
 275 800 297 778 297 750 c 0xc4
 297 737 293 726 285 717 c 1
 312 716 332 694 332 667 c 1xc1
 332 645 318 627 298 620 c 1
 308 611 314 597 314 583 c 0xc2
 314 561 300 543 281 536 c 1
 290 527 297 514 297 500 c 0xc4
 297 478 282 460 263 453 c 1
 272 444 279 431 279 417 c 0xc8
 279 395 265 377 245 370 c 1
 255 361 261 347 261 333 c 0xd0
 261 320 256 309 248 300 c 1
 275 299 297 277 297 250 c 0xc4
190 250 m 0xe0
 190 222 168 200 140 200 c 0
 112 200 90 222 90 250 c 0
 90 278 112 300 140 300 c 0
 168 300 190 278 190 250 c 0xe0
528 333 m 0xc020
 528 305 506 283 478 283 c 0
 450 283 428 305 428 333 c 0xc020
 428 355 442 373 462 380 c 1
 452 389 446 403 446 417 c 0xc010
 446 439 460 457 479 464 c 1
 470 473 464 486 464 500 c 1xc008
 464 522 478 540 497 547 c 1
 488 556 481 569 481 583 c 0xc004
 481 605 495 623 515 630 c 1
 505 639 499 653 499 667 c 1
 499 695 521 717 549 717 c 0
 577 717 599 695 599 667 c 0xc002
 599 645 585 627 565 620 c 1
 575 611 581 597 581 583 c 1xc004
 581 561 567 543 548 536 c 1
 557 527 564 514 564 500 c 0xc008
 564 478 549 460 530 453 c 1
 539 444 546 431 546 417 c 1xc010
 546 395 532 377 512 370 c 1
 522 361 528 347 528 333 c 0xc020
510 750 m 0xc040
 510 722 488 700 460 700 c 0
 432 700 410 722 410 750 c 0
 410 778 432 800 460 800 c 0
 488 800 510 778 510 750 c 0xc040
404 750 m 0
 404 722 382 700 354 700 c 0
 326 700 304 722 304 750 c 0
 304 778 326 800 354 800 c 0
 382 800 404 778 404 750 c 0
EndSplineSet
EndChar

StartChar: Ccedilla
Encoding: 199 199 16
Width: 600
VWidth: 0
UnlinkRmOvrlpSave: 1
Flags: W
HStem: 200 21G<250 278> 200 21G<250 278> 283 100<176 215.883 347.438 430.562> 367 100<418.438 501.562> 617 100<516 554.562> 700 100<222.438 305.562 329.438 412.562 437.117 476>
VStem: 90 100<383.424 452.575> 108 100<464.425 535.575> 125 100<291.438 366.576 547.425 619.574> 143 100<630.426 708.562> 214 100<208.438 285.575 708.438 791.562> 232 100<297.425 374.562> 321 100<708.438 791.562> 339 100<291.438 374.562> 410 100<375.438 458.562> 428 100<717.423 791.562> 463 100<625.438 699.577>
LayerCount: 2
Back
Fore
SplineSet
314 250 m 0xa020
 314 222 292 200 264 200 c 0
 236 200 214 222 214 250 c 0xa020
 214 272 228 290 247 297 c 1
 238 306 232 319 232 333 c 0
 232 361 254 383 282 383 c 0
 310 383 332 361 332 333 c 0xa010
 332 311 318 293 299 286 c 1
 308 277 314 264 314 250 c 0xa020
439 333 m 0x2004
 439 305 417 283 389 283 c 0
 361 283 339 305 339 333 c 0
 339 361 361 383 389 383 c 0
 417 383 439 361 439 333 c 0x2004
225 333 m 1x2880
 225 305 203 283 175 283 c 0
 147 283 125 305 125 333 c 0x2880
 125 346 130 358 138 367 c 1
 111 368 90 390 90 417 c 1x12
 90 439 104 457 123 464 c 1
 114 473 108 486 108 500 c 0x11
 108 522 122 540 141 547 c 1
 132 556 125 569 125 583 c 0x1080
 125 605 139 623 159 630 c 1
 149 639 143 653 143 667 c 0
 143 695 165 717 193 717 c 0
 221 717 243 695 243 667 c 0x1840
 243 645 229 627 209 620 c 1
 219 611 225 597 225 583 c 0x1880
 225 561 211 543 192 536 c 1
 201 527 208 514 208 500 c 0x19
 208 478 193 460 174 453 c 1
 183 444 190 431 190 417 c 0x1a
 190 404 184 392 176 383 c 1
 203 382 225 360 225 333 c 1x2880
510 417 m 0x1002
 510 389 488 367 460 367 c 0
 432 367 410 389 410 417 c 0
 410 445 432 467 460 467 c 0
 488 467 510 445 510 417 c 0x1002
563 667 m 0x080080
 563 639 541 617 513 617 c 0
 485 617 463 639 463 667 c 0x080080
 463 680 468 691 476 700 c 1
 449 701 428 723 428 750 c 0
 428 778 450 800 478 800 c 0
 506 800 528 778 528 750 c 0x0401
 528 737 524 726 516 717 c 1
 543 716 563 694 563 667 c 0x080080
421 750 m 0x0408
 421 722 399 700 371 700 c 0
 343 700 321 722 321 750 c 0
 321 778 343 800 371 800 c 0
 399 800 421 778 421 750 c 0x0408
314 750 m 0x0420
 314 722 292 700 264 700 c 0
 236 700 214 722 214 750 c 0
 214 778 236 800 264 800 c 0
 292 800 314 778 314 750 c 0x0420
EndSplineSet
EndChar

StartChar: H
Encoding: 72 72 17
Width: 600
VWidth: 0
UnlinkRmOvrlpSave: 1
Flags: W
HStem: 200 21G<126 154 446 474> 200 21G<126 154 446 474> 450 100<259.438 342.562 365.438 448.562> 780 20G<233 261 553 581>
VStem: 90 100<208.438 285.575> 108 100<297.425 369.574> 126 100<380.426 452.575> 144 100<464.425 535.575> 161 100<547.425 619.574> 179 100<630.426 702.575> 197 100<714.425 791.562> 251 100<458.438 541.562> 357 100<458.438 541.562> 410 100<208.438 285.575> 428 100<297.425 369.574> 446 100<380.426 452.575> 464 100<464.425 535.575> 481 100<547.425 619.574> 499 100<630.426 702.575> 517 100<714.425 791.562>
LayerCount: 2
Back
Fore
SplineSet
510 250 m 0xb004
 510 222 488 200 460 200 c 0
 432 200 410 222 410 250 c 0xb004
 410 272 424 290 443 297 c 1
 434 306 428 319 428 333 c 0xb002
 428 355 442 373 462 380 c 1
 452 389 446 403 446 417 c 0xb001
 446 439 460 457 479 464 c 1
 470 473 464 486 464 500 c 1xb00080
 464 522 478 540 497 547 c 1
 488 556 481 569 481 583 c 0xb00040
 481 605 495 623 515 630 c 1
 505 639 499 653 499 667 c 1xb00020
 499 689 513 707 532 714 c 1
 523 723 517 736 517 750 c 0
 517 778 539 800 567 800 c 0
 595 800 617 778 617 750 c 0xb00010
 617 728 603 710 584 703 c 1
 593 694 599 681 599 667 c 0xb00020
 599 645 585 627 565 620 c 1
 575 611 581 597 581 583 c 1xb00040
 581 561 567 543 548 536 c 1
 557 527 564 514 564 500 c 0xb00080
 564 478 549 460 530 453 c 1
 539 444 546 431 546 417 c 1xb001
 546 395 532 377 512 370 c 1
 522 361 528 347 528 333 c 0xb002
 528 311 514 293 495 286 c 1
 504 277 510 264 510 250 c 0xb004
190 250 m 0xb8
 190 222 168 200 140 200 c 0
 112 200 90 222 90 250 c 0xb8
 90 272 104 290 123 297 c 1
 114 306 108 319 108 333 c 0xb4
 108 355 122 373 142 380 c 1
 132 389 126 403 126 417 c 0xb2
 126 439 140 457 159 464 c 1
 150 473 144 486 144 500 c 0xb1
 144 522 158 540 177 547 c 1
 168 556 161 569 161 583 c 0xb080
 161 605 175 623 195 630 c 1
 185 639 179 653 179 667 c 0xb040
 179 689 193 707 212 714 c 1
 203 723 197 736 197 750 c 0
 197 778 219 800 247 800 c 0
 275 800 297 778 297 750 c 0xb020
 297 728 283 710 264 703 c 1
 273 694 279 681 279 667 c 0xb040
 279 645 265 627 245 620 c 1
 255 611 261 597 261 583 c 0xb080
 261 561 247 543 228 536 c 1
 237 527 244 514 244 500 c 0xb1
 244 478 229 460 210 453 c 1
 219 444 226 431 226 417 c 0xb2
 226 395 212 377 192 370 c 1
 202 361 208 347 208 333 c 0xb4
 208 311 194 293 175 286 c 1
 184 277 190 264 190 250 c 0xb8
457 500 m 0x3008
 457 472 435 450 407 450 c 0
 379 450 357 472 357 500 c 0
 357 528 379 550 407 550 c 0
 435 550 457 528 457 500 c 0x3008
351 500 m 0x3010
 351 472 329 450 301 450 c 0
 273 450 251 472 251 500 c 0
 251 528 273 550 301 550 c 0
 329 550 351 528 351 500 c 0x3010
EndSplineSet
EndChar

StartChar: Edieresis
Encoding: 203 203 18
Width: 600
VWidth: 0
UnlinkRmOvrlpSave: 1
Flags: W
HStem: 200 100<205.438 288.562 311.438 394.562 418.438 501.562> 367 100<241.438 324.562 347.438 430.562> 533 100<276.438 359.562 382.438 465.562 489.438 572.562> 700 100<258.438 341.562 472.438 555.562>
VStem: 90 100<208.438 285.575> 108 100<297.425 369.574> 126 100<380.426 452.575> 144 100<464.425 535.575> 161 100<547.425 624.562> 197 100<208.438 291.562> 233 100<375.438 458.562> 250 100<708.438 791.562> 268 100<541.438 624.562> 303 100<208.438 291.562> 339 100<375.438 458.562> 374 100<541.438 624.562> 410 100<208.438 291.562> 464 100<708.438 791.562> 481 100<541.438 624.562>
LayerCount: 2
Back
Fore
SplineSet
510 250 m 0xf00080
 510 222 488 200 460 200 c 0
 432 200 410 222 410 250 c 0
 410 278 432 300 460 300 c 0
 488 300 510 278 510 250 c 0xf00080
403 250 m 0xf004
 403 222 381 200 353 200 c 0
 325 200 303 222 303 250 c 0
 303 278 325 300 353 300 c 0
 381 300 403 278 403 250 c 0xf004
297 250 m 0xf040
 297 222 275 200 247 200 c 0
 219 200 197 222 197 250 c 0
 197 278 219 300 247 300 c 0
 275 300 297 278 297 250 c 0xf040
190 250 m 0xf8
 190 222 168 200 140 200 c 0
 112 200 90 222 90 250 c 0xf8
 90 272 104 290 123 297 c 1
 114 306 108 319 108 333 c 0xf4
 108 355 122 373 142 380 c 1
 132 389 126 403 126 417 c 0xf2
 126 439 140 457 159 464 c 1
 150 473 144 486 144 500 c 0xf1
 144 522 158 540 177 547 c 1
 168 556 161 569 161 583 c 0
 161 611 183 633 211 633 c 0
 239 633 261 611 261 583 c 0xf080
 261 561 247 543 228 536 c 1
 237 527 244 514 244 500 c 0xf1
 244 478 229 460 210 453 c 1
 219 444 226 431 226 417 c 0xf2
 226 395 212 377 192 370 c 1
 202 361 208 347 208 333 c 0xf4
 208 311 194 293 175 286 c 1
 184 277 190 264 190 250 c 0xf8
439 417 m 0xf002
 439 389 417 367 389 367 c 0
 361 367 339 389 339 417 c 0
 339 445 361 467 389 467 c 0
 417 467 439 445 439 417 c 0xf002
333 417 m 0xf020
 333 389 311 367 283 367 c 0
 255 367 233 389 233 417 c 0
 233 445 255 467 283 467 c 0
 311 467 333 445 333 417 c 0xf020
581 583 m 0xf00020
 581 555 559 533 531 533 c 0
 503 533 481 555 481 583 c 0
 481 611 503 633 531 633 c 0
 559 633 581 611 581 583 c 0xf00020
474 583 m 0xf001
 474 555 452 533 424 533 c 0
 396 533 374 555 374 583 c 0
 374 611 396 633 424 633 c 0
 452 633 474 611 474 583 c 0xf001
368 583 m 0xf008
 368 555 346 533 318 533 c 0
 290 533 268 555 268 583 c 0
 268 611 290 633 318 633 c 0
 346 633 368 611 368 583 c 0xf008
564 750 m 0xf00040
 564 722 542 700 514 700 c 0
 486 700 464 722 464 750 c 0
 464 778 486 800 514 800 c 0
 542 800 564 778 564 750 c 0xf00040
350 750 m 0xf010
 350 722 328 700 300 700 c 0
 272 700 250 722 250 750 c 0
 250 778 272 800 300 800 c 0
 328 800 350 778 350 750 c 0xf010
EndSplineSet
EndChar

StartChar: L
Encoding: 76 76 19
Width: 600
VWidth: 0
UnlinkRmOvrlpSave: 1
Flags: W
HStem: 200 100<205.438 288.562 311.438 394.562 418.438 501.562> 780 20G<233 261>
VStem: 90 100<208.438 285.575> 108 100<297.425 369.574> 126 100<380.426 452.575> 144 100<464.425 535.575> 161 100<547.425 619.574> 179 100<630.426 702.575> 197 100<208.438 291.562 714.425 791.562> 303 100<208.438 291.562> 410 100<208.438 291.562>
LayerCount: 2
Back
Fore
SplineSet
510 250 m 0xc060
 510 222 488 200 460 200 c 0
 432 200 410 222 410 250 c 0
 410 278 432 300 460 300 c 0
 488 300 510 278 510 250 c 0xc060
403 250 m 0
 403 222 381 200 353 200 c 0
 325 200 303 222 303 250 c 0
 303 278 325 300 353 300 c 0
 381 300 403 278 403 250 c 0
297 250 m 0xc0e0
 297 222 275 200 247 200 c 0
 219 200 197 222 197 250 c 0
 197 278 219 300 247 300 c 0
 275 300 297 278 297 250 c 0xc0e0
190 250 m 0xe060
 190 222 168 200 140 200 c 0
 112 200 90 222 90 250 c 0xe060
 90 272 104 290 123 297 c 1
 114 306 108 319 108 333 c 0xd060
 108 355 122 373 142 380 c 1
 132 389 126 403 126 417 c 0xc860
 126 439 140 457 159 464 c 1
 150 473 144 486 144 500 c 0xc460
 144 522 158 540 177 547 c 1
 168 556 161 569 161 583 c 0xc260
 161 605 175 623 195 630 c 1
 185 639 179 653 179 667 c 0xc160
 179 689 193 707 212 714 c 1
 203 723 197 736 197 750 c 0
 197 778 219 800 247 800 c 0
 275 800 297 778 297 750 c 0xc0e0
 297 728 283 710 264 703 c 1
 273 694 279 681 279 667 c 0xc160
 279 645 265 627 245 620 c 1
 255 611 261 597 261 583 c 0xc260
 261 561 247 543 228 536 c 1
 237 527 244 514 244 500 c 0xc460
 244 478 229 460 210 453 c 1
 219 444 226 431 226 417 c 0xc860
 226 395 212 377 192 370 c 1
 202 361 208 347 208 333 c 0xd060
 208 311 194 293 175 286 c 1
 184 277 190 264 190 250 c 0xe060
EndSplineSet
EndChar

StartChar: P
Encoding: 80 80 20
Width: 600
VWidth: 0
UnlinkRmOvrlpSave: 1
Flags: W
HStem: 200 21G<126 154> 200 21G<126 154> 450 100<259.438 342.562 365.438 448.562> 700 100<312.438 395.562 418.438 501.562>
VStem: 90 100<208.438 285.575> 108 100<297.425 369.574> 126 100<380.426 452.575> 144 100<464.425 535.575> 161 100<547.425 619.574> 179 100<630.426 702.575> 197 100<714.425 791.562> 251 100<458.438 541.562> 304 100<708.438 791.562> 357 100<458.438 541.562> 410 100<708.438 791.562> 481 100<541.438 619.574> 499 100<630.426 708.562>
LayerCount: 2
Back
Fore
SplineSet
190 250 m 0xb8
 190 222 168 200 140 200 c 0
 112 200 90 222 90 250 c 0xb8
 90 272 104 290 123 297 c 1
 114 306 108 319 108 333 c 0xb4
 108 355 122 373 142 380 c 1
 132 389 126 403 126 417 c 0xb2
 126 439 140 457 159 464 c 1
 150 473 144 486 144 500 c 0xb1
 144 522 158 540 177 547 c 1
 168 556 161 569 161 583 c 0xb080
 161 605 175 623 195 630 c 1
 185 639 179 653 179 667 c 0xb040
 179 689 193 707 212 714 c 1
 203 723 197 736 197 750 c 0
 197 778 219 800 247 800 c 0
 275 800 297 778 297 750 c 0xb020
 297 728 283 710 264 703 c 1
 273 694 279 681 279 667 c 0xb040
 279 645 265 627 245 620 c 1
 255 611 261 597 261 583 c 0xb080
 261 561 247 543 228 536 c 1
 237 527 244 514 244 500 c 0xb1
 244 478 229 460 210 453 c 1
 219 444 226 431 226 417 c 0xb2
 226 395 212 377 192 370 c 1
 202 361 208 347 208 333 c 0xb4
 208 311 194 293 175 286 c 1
 184 277 190 264 190 250 c 0xb8
457 500 m 0x3004
 457 472 435 450 407 450 c 0
 379 450 357 472 357 500 c 0
 357 528 379 550 407 550 c 0
 435 550 457 528 457 500 c 0x3004
351 500 m 0x3010
 351 472 329 450 301 450 c 0
 273 450 251 472 251 500 c 0
 251 528 273 550 301 550 c 0
 329 550 351 528 351 500 c 0x3010
581 583 m 1x3001
 581 555 559 533 531 533 c 0
 503 533 481 555 481 583 c 0x3001
 481 605 495 623 515 630 c 1
 505 639 499 653 499 667 c 1
 499 695 521 717 549 717 c 0
 577 717 599 695 599 667 c 0x300080
 599 645 585 627 565 620 c 1
 575 611 581 597 581 583 c 1x3001
510 750 m 0x3002
 510 722 488 700 460 700 c 0
 432 700 410 722 410 750 c 0
 410 778 432 800 460 800 c 0
 488 800 510 778 510 750 c 0x3002
404 750 m 0x3008
 404 722 382 700 354 700 c 0
 326 700 304 722 304 750 c 0
 304 778 326 800 354 800 c 0
 382 800 404 778 404 750 c 0x3008
EndSplineSet
EndChar

StartChar: T
Encoding: 84 84 21
Width: 600
VWidth: 0
UnlinkRmOvrlpSave: 1
Flags: W
HStem: 200 21G<179 207> 200 21G<179 207> 700 100<98.4375 181.562 206.117 245 311.438 394.562 418.438 501.562>
VStem: 90 100<708.438 791.562> 143 100<208.438 285.575> 161 100<297.425 369.574> 179 100<380.426 452.575> 197 100<464.425 535.575 717.423 791.562> 214 100<547.425 619.574> 232 100<630.426 699.577> 303 100<708.438 791.562> 410 100<708.438 791.562>
LayerCount: 2
Back
Fore
SplineSet
243 250 m 0xa810
 243 222 221 200 193 200 c 0
 165 200 143 222 143 250 c 0xa810
 143 272 157 290 176 297 c 1
 167 306 161 319 161 333 c 0xa410
 161 355 175 373 195 380 c 1
 185 389 179 403 179 417 c 0xa210
 179 439 193 457 212 464 c 1
 203 473 197 486 197 500 c 0xa110
 197 522 211 540 230 547 c 1
 221 556 214 569 214 583 c 0xa090
 214 605 228 623 248 630 c 1
 238 639 232 653 232 667 c 1xa050
 232 680 237 691 245 700 c 1
 218 701 197 723 197 750 c 0
 197 778 219 800 247 800 c 0
 275 800 297 778 297 750 c 0xa110
 297 737 293 726 285 717 c 1
 312 716 332 694 332 667 c 0xa050
 332 645 318 627 298 620 c 1
 308 611 314 597 314 583 c 1xa090
 314 561 300 543 281 536 c 1
 290 527 297 514 297 500 c 0xa110
 297 478 282 460 263 453 c 1
 272 444 279 431 279 417 c 1xa210
 279 395 265 377 245 370 c 1
 255 361 261 347 261 333 c 0xa410
 261 311 247 293 228 286 c 1
 237 277 243 264 243 250 c 0xa810
510 750 m 0
 510 722 488 700 460 700 c 0
 432 700 410 722 410 750 c 0
 410 778 432 800 460 800 c 0
 488 800 510 778 510 750 c 0
403 750 m 0x2030
 403 722 381 700 353 700 c 0
 325 700 303 722 303 750 c 0
 303 778 325 800 353 800 c 0
 381 800 403 778 403 750 c 0x2030
190 750 m 0x3010
 190 722 168 700 140 700 c 0
 112 700 90 722 90 750 c 0
 90 778 112 800 140 800 c 0
 168 800 190 778 190 750 c 0x3010
EndSplineSet
EndChar

StartChar: multiply
Encoding: 215 215 22
Width: 600
VWidth: 0
UnlinkRmOvrlpSave: 1
Flags: W
HStem: 283 100<98.4375 181.562 354 394.604> 367 100<170.438 253.562> 533 100<311.438 394.562> 617 100<170.396 211 383.438 466.562>
VStem: 90 100<291.438 374.562> 162 100<375.438 458.562 633.424 707.883> 197 100<550.423 616.576> 233 100<467.423 532.577> 268 100<383.424 449.577> 304 100<291.438 366.576 542.117 623.883> 375 100<625.438 708.562>
LayerCount: 2
Back
Fore
SplineSet
404 333 m 0x8040
 404 305 382 283 354 283 c 0
 326 283 304 305 304 333 c 0x8040
 304 346 309 358 317 367 c 1
 290 367 268 390 268 417 c 0x4080
 268 430 272 441 280 450 c 1
 253 451 233 473 233 500 c 1
 233 513 237 524 245 533 c 1x61
 218 534 197 556 197 583 c 0
 197 596 203 608 211 617 c 1
 184 617 161 640 161 667 c 0
 161 695 183 717 211 717 c 0x12
 239 717 261 695 261 667 c 0
 261 654 256 642 248 633 c 1
 275 633 297 610 297 583 c 0x22
 297 570 293 559 285 550 c 1
 312 549 333 527 333 500 c 0x21
 333 487 328 476 320 467 c 1
 347 466 368 444 368 417 c 1x6080
 368 404 362 392 354 383 c 1
 381 383 404 360 404 333 c 0x8040
190 333 m 0x88
 190 305 168 283 140 283 c 0
 112 283 90 305 90 333 c 0
 90 361 112 383 140 383 c 0
 168 383 190 361 190 333 c 0x88
262 417 m 0x44
 262 389 240 367 212 367 c 0
 184 367 162 389 162 417 c 0
 162 445 184 467 212 467 c 0
 240 467 262 445 262 417 c 0x44
403 583 m 0
 403 555 381 533 353 533 c 0
 325 533 303 555 303 583 c 0
 303 611 325 633 353 633 c 0x20
 381 633 403 611 403 583 c 0
475 667 m 0x1020
 475 639 453 617 425 617 c 0
 397 617 375 639 375 667 c 0
 375 695 397 717 425 717 c 0
 453 717 475 695 475 667 c 0x1020
EndSplineSet
EndChar

StartChar: X
Encoding: 88 88 23
Width: 600
VWidth: 0
UnlinkRmOvrlpSave: 1
Flags: W
HStem: 200 100<98.4375 181.562 462 500.883> 283 100<169.438 252.562> 367 100<241.438 324.562> 533 100<382.438 465.562> 617 100<454.438 537.562> 700 100<206.117 245 525.438 608.562>
VStem: 90 100<208.438 291.562> 161 100<291.438 374.562> 197 100<717.423 791.562> 233 100<375.438 458.562 633.424 699.577> 268 100<550.423 616.576> 304 100<467.423 532.577> 339 100<383.424 449.577> 375 100<300.423 366.576 542.117 623.883> 410 100<208.438 282.577> 446 100<625.438 708.562> 517 100<708.438 791.562>
LayerCount: 2
Back
Fore
SplineSet
510 250 m 1x8002
 510 222 488 200 460 200 c 0
 432 200 410 222 410 250 c 0x8002
 410 263 414 274 422 283 c 1
 395 284 375 306 375 333 c 1x4004
 375 346 380 358 388 367 c 1
 361 367 339 390 339 417 c 0x2008
 339 430 343 441 351 450 c 1
 324 451 304 473 304 500 c 1
 304 513 308 524 316 533 c 1x3010
 289 534 268 556 268 583 c 0
 268 596 274 608 282 617 c 1x0820
 255 617 232 640 232 667 c 0
 232 680 237 691 245 700 c 1
 218 701 197 723 197 750 c 1
 197 778 219 800 247 800 c 0x0480
 275 800 297 778 297 750 c 0
 297 737 293 726 285 717 c 1x0880
 312 716 332 694 332 667 c 1
 332 654 327 642 319 633 c 1
 346 633 368 610 368 583 c 0x1020
 368 570 364 559 356 550 c 1
 383 549 404 527 404 500 c 0x1010
 404 487 399 476 391 467 c 1
 418 466 439 444 439 417 c 1x3008
 439 404 433 392 425 383 c 1
 452 383 475 360 475 333 c 0x4004
 475 320 470 309 462 300 c 1
 489 299 510 277 510 250 c 1x8002
190 250 m 0x82
 190 222 168 200 140 200 c 0
 112 200 90 222 90 250 c 0
 90 278 112 300 140 300 c 0
 168 300 190 278 190 250 c 0x82
261 333 m 0x41
 261 305 239 283 211 283 c 0
 183 283 161 305 161 333 c 0
 161 361 183 383 211 383 c 0
 239 383 261 361 261 333 c 0x41
333 417 m 0x2040
 333 389 311 367 283 367 c 0
 255 367 233 389 233 417 c 0
 233 445 255 467 283 467 c 0
 311 467 333 445 333 417 c 0x2040
474 583 m 0
 474 555 452 533 424 533 c 0
 396 533 374 555 374 583 c 0
 374 611 396 633 424 633 c 0x10
 452 633 474 611 474 583 c 0
546 667 m 0x0801
 546 639 524 617 496 617 c 0
 468 617 446 639 446 667 c 0
 446 695 468 717 496 717 c 0
 524 717 546 695 546 667 c 0x0801
617 750 m 0x040080
 617 722 595 700 567 700 c 0
 539 700 517 722 517 750 c 0
 517 778 539 800 567 800 c 0
 595 800 617 778 617 750 c 0x040080
EndSplineSet
EndChar

StartChar: backslash
Encoding: 92 92 24
Width: 600
VWidth: 0
UnlinkRmOvrlpSave: 1
Flags: W
HStem: 200 100<355 393.883> 700 100<99.1171 138>
VStem: 90 100<717.423 791.562> 125 100<633.424 699.577> 161 100<550.423 616.576> 197 100<467.423 532.577> 232 100<383.424 449.577> 268 100<300.423 366.576> 303 100<208.438 282.577>
LayerCount: 2
Back
Fore
SplineSet
403 250 m 1xc080
 403 222 381 200 353 200 c 0
 325 200 303 222 303 250 c 0xc080
 303 263 307 274 315 283 c 1
 288 284 268 306 268 333 c 1xc1
 268 346 273 358 281 367 c 1
 254 367 232 390 232 417 c 0xc2
 232 430 236 441 244 450 c 1
 217 451 197 473 197 500 c 1xc4
 197 513 201 524 209 533 c 1
 182 534 161 556 161 583 c 0xc8
 161 596 167 608 175 617 c 1
 148 617 125 640 125 667 c 0xd0
 125 680 130 691 138 700 c 1
 111 701 90 723 90 750 c 1
 90 778 112 800 140 800 c 0
 168 800 190 778 190 750 c 0xe0
 190 737 186 726 178 717 c 1
 205 716 225 694 225 667 c 1xd0
 225 654 220 642 212 633 c 1
 239 633 261 610 261 583 c 0xc8
 261 570 257 559 249 550 c 1
 276 549 297 527 297 500 c 0xc4
 297 487 292 476 284 467 c 1
 311 466 332 444 332 417 c 1xc2
 332 404 326 392 318 383 c 1
 345 383 368 360 368 333 c 0xc1
 368 320 363 309 355 300 c 1
 382 299 403 277 403 250 c 1xc080
EndSplineSet
EndChar

StartChar: germandbls
Encoding: 223 223 25
Width: 600
VWidth: 0
UnlinkRmOvrlpSave: 1
Flags: W
HStem: 200 100<258.438 341.562 365.438 448.562> 450 100<259.438 342.562 409 447.883> 533 100<330.117 369> 617 100<445 483.562> 700 100<258.438 341.562 366.117 405>
VStem: 90 100<208.438 285.575> 108 100<297.425 369.574> 126 100<380.426 452.575> 144 100<464.425 535.575> 161 100<547.425 619.574> 179 100<630.426 708.562> 250 100<208.438 291.562 459.117 540.883 708.438 791.562> 321 100<550.423 624.562> 357 100<208.438 291.562 458.438 532.577 717.423 791.562> 392 100<625.438 699.577> 428 100<291.438 369.574> 446 100<380.426 458.562>
LayerCount: 2
Back
Fore
SplineSet
457 250 m 0x8004
 457 222 435 200 407 200 c 0
 379 200 357 222 357 250 c 0
 357 278 379 300 407 300 c 0
 435 300 457 278 457 250 c 0x8004
350 250 m 0x8010
 350 222 328 200 300 200 c 0
 272 200 250 222 250 250 c 0
 250 278 272 300 300 300 c 0
 328 300 350 278 350 250 c 0x8010
190 250 m 0x94
 190 222 168 200 140 200 c 0
 112 200 90 222 90 250 c 0x94
 90 272 104 290 123 297 c 1
 114 306 108 319 108 333 c 0x92
 108 355 122 373 142 380 c 1
 132 389 126 403 126 417 c 0x91
 126 439 140 457 159 464 c 1
 150 473 144 486 144 500 c 0x9080
 144 522 158 540 177 547 c 1
 168 556 161 569 161 583 c 0x9040
 161 605 175 623 195 630 c 1
 185 639 179 653 179 667 c 0
 179 695 201 717 229 717 c 0
 257 717 279 695 279 667 c 0x9020
 279 645 265 627 245 620 c 1
 255 611 261 597 261 583 c 0x9040
 261 561 247 543 228 536 c 1
 237 527 244 514 244 500 c 0x9080
 244 478 229 460 210 453 c 1
 219 444 226 431 226 417 c 0x91
 226 395 212 377 192 370 c 1
 202 361 208 347 208 333 c 0x92
 208 311 194 293 175 286 c 1
 184 277 190 264 190 250 c 0x94
528 333 m 0x8001
 528 305 506 283 478 283 c 0
 450 283 428 305 428 333 c 0x8001
 428 355 442 373 462 380 c 1
 452 389 446 403 446 417 c 0
 446 445 468 467 496 467 c 0
 524 467 546 445 546 417 c 0x800080
 546 395 532 377 512 370 c 1
 522 361 528 347 528 333 c 0x8001
457 500 m 0xc004
 457 472 435 450 407 450 c 0
 379 450 357 472 357 500 c 0xc004
 357 513 361 524 369 533 c 1
 342 534 321 556 321 583 c 0
 321 611 343 633 371 633 c 0
 399 633 421 611 421 583 c 0xa008
 421 570 417 559 409 550 c 1
 436 549 457 527 457 500 c 0xc004
351 500 m 0
 351 472 329 450 301 450 c 0
 273 450 251 472 251 500 c 0
 251 528 273 550 301 550 c 0
 329 550 351 528 351 500 c 0
492 667 m 0x9002
 492 639 470 617 442 617 c 0
 414 617 392 639 392 667 c 0x9002
 392 680 397 691 405 700 c 1
 378 701 357 723 357 750 c 0
 357 778 379 800 407 800 c 0
 435 800 457 778 457 750 c 0x8804
 457 737 453 726 445 717 c 1
 472 716 492 694 492 667 c 0x9002
350 750 m 0x8810
 350 722 328 700 300 700 c 0
 272 700 250 722 250 750 c 0
 250 778 272 800 300 800 c 0
 328 800 350 778 350 750 c 0x8810
EndSplineSet
EndChar

StartChar: grave
Encoding: 96 96 26
Width: 600
VWidth: 0
UnlinkRmOvrlpSave: 1
Flags: W
HStem: 533 100<212 250.883> 700 100<99.1171 138>
VStem: 90 100<717.423 791.562> 125 100<633.424 699.577> 160 100<541.438 616.576>
LayerCount: 2
Back
Fore
SplineSet
260 583 m 0xc8
 260 555 238 533 210 533 c 0
 182 533 160 555 160 583 c 0xc8
 160 596 166 608 174 617 c 1
 147 618 125 640 125 667 c 0xd0
 125 680 130 691 138 700 c 1
 111 701 90 723 90 750 c 0
 90 778 112 800 140 800 c 0
 168 800 190 778 190 750 c 0xe0
 190 737 186 726 178 717 c 1
 205 716 225 694 225 667 c 0xd0
 225 654 220 642 212 633 c 1
 239 632 260 610 260 583 c 0xc8
EndSplineSet
EndChar

StartChar: d
Encoding: 100 100 27
Width: 600
VWidth: 0
UnlinkRmOvrlpSave: 1
Flags: W
HStem: 200 100<187.438 270.562 293.438 376.562> 533 100<204.438 287.562 311.438 394.562 419.117 458> 780 20G<535 563>
VStem: 90 100<291.438 369.574> 108 100<380.426 452.575> 126 100<464.425 541.562> 179 100<208.438 291.562> 196 100<541.438 624.562> 285 100<208.438 291.562> 303 100<541.438 624.562> 392 100<208.438 285.575> 410 100<297.425 369.574 550.423 624.562> 428 100<380.426 452.575> 446 100<464.425 532.577> 481 100<625.438 702.575> 499 100<714.425 791.562>
LayerCount: 2
Back
Fore
SplineSet
492 250 m 0xe020
 492 222 470 200 442 200 c 0
 414 200 392 222 392 250 c 0xe020
 392 272 406 290 425 297 c 1
 416 306 410 319 410 333 c 0xe010
 410 355 424 373 444 380 c 1
 434 389 428 403 428 417 c 0xe008
 428 439 442 457 461 464 c 1
 452 473 446 486 446 500 c 1xe004
 446 513 450 524 458 533 c 1
 431 534 410 556 410 583 c 0
 410 611 432 633 460 633 c 0
 488 633 510 611 510 583 c 0xe010
 510 570 506 559 498 550 c 1
 525 549 546 527 546 500 c 0xe004
 546 478 531 460 512 453 c 1
 521 444 528 431 528 417 c 1xe008
 528 395 514 377 494 370 c 1
 504 361 510 347 510 333 c 0xe010
 510 311 496 293 477 286 c 1
 486 277 492 264 492 250 c 0xe020
385 250 m 0xe080
 385 222 363 200 335 200 c 0
 307 200 285 222 285 250 c 0
 285 278 307 300 335 300 c 0
 363 300 385 278 385 250 c 0xe080
279 250 m 0xe2
 279 222 257 200 229 200 c 0
 201 200 179 222 179 250 c 0
 179 278 201 300 229 300 c 0
 257 300 279 278 279 250 c 0xe2
190 333 m 0xf0
 190 305 168 283 140 283 c 0
 112 283 90 305 90 333 c 0xf0
 90 355 104 373 124 380 c 1
 114 389 108 403 108 417 c 0xe8
 108 439 122 457 141 464 c 1
 132 473 126 486 126 500 c 0
 126 528 148 550 176 550 c 0
 204 550 226 528 226 500 c 0xe4
 226 478 211 460 192 453 c 1
 201 444 208 431 208 417 c 0xe8
 208 395 194 377 174 370 c 1
 184 361 190 347 190 333 c 0xf0
403 583 m 0xe040
 403 555 381 533 353 533 c 0
 325 533 303 555 303 583 c 0
 303 611 325 633 353 633 c 0
 381 633 403 611 403 583 c 0xe040
296 583 m 0xe1
 296 555 274 533 246 533 c 0
 218 533 196 555 196 583 c 0
 196 611 218 633 246 633 c 0
 274 633 296 611 296 583 c 0xe1
581 667 m 0xe002
 581 639 559 617 531 617 c 0
 503 617 481 639 481 667 c 0xe002
 481 689 495 707 514 714 c 1
 505 723 499 736 499 750 c 0
 499 778 521 800 549 800 c 0
 577 800 599 778 599 750 c 0xe001
 599 728 585 710 566 703 c 1
 575 694 581 681 581 667 c 0xe002
EndSplineSet
EndChar

StartChar: ccedilla
Encoding: 231 231 28
Width: 600
VWidth: 0
UnlinkRmOvrlpSave: 1
Flags: W
HStem: 200 21G<250 278> 200 21G<250 278> 283 100<176 215.883 347.438 430.562> 533 100<497 535.883> 617 100<204.438 287.562 311.438 394.562 419.117 459>
VStem: 90 100<383.424 452.575> 108 100<464.425 535.575> 125 100<291.438 366.576 547.425 624.562> 196 100<625.438 708.562> 214 100<208.438 285.575> 232 100<297.425 374.562> 303 100<625.438 708.562> 339 100<291.438 374.562> 410 100<633.424 708.562> 445 100<541.438 616.576>
LayerCount: 2
Back
Fore
SplineSet
314 250 m 0xa040
 314 222 292 200 264 200 c 0
 236 200 214 222 214 250 c 0xa040
 214 272 228 290 247 297 c 1
 238 306 232 319 232 333 c 0
 232 361 254 383 282 383 c 0
 310 383 332 361 332 333 c 0xa020
 332 311 318 293 299 286 c 1
 308 277 314 264 314 250 c 0xa040
439 333 m 0x2008
 439 305 417 283 389 283 c 0
 361 283 339 305 339 333 c 0
 339 361 361 383 389 383 c 0
 417 383 439 361 439 333 c 0x2008
225 333 m 1x31
 225 305 203 283 175 283 c 0
 147 283 125 305 125 333 c 0x31
 125 346 130 358 138 367 c 1
 111 368 90 390 90 417 c 1x34
 90 439 104 457 123 464 c 1
 114 473 108 486 108 500 c 0x32
 108 522 122 540 141 547 c 1
 132 556 125 569 125 583 c 0
 125 611 147 633 175 633 c 0
 203 633 225 611 225 583 c 0x31
 225 561 211 543 192 536 c 1
 201 527 208 514 208 500 c 0x32
 208 478 193 460 174 453 c 1
 183 444 190 431 190 417 c 0x34
 190 404 184 392 176 383 c 1
 203 382 225 360 225 333 c 1x31
545 583 m 0x3002
 545 555 523 533 495 533 c 0
 467 533 445 555 445 583 c 0x3002
 445 596 451 608 459 617 c 1
 432 618 410 640 410 667 c 0
 410 695 432 717 460 717 c 0
 488 717 510 695 510 667 c 0x2804
 510 654 505 642 497 633 c 1
 524 632 545 610 545 583 c 0x3002
403 667 m 0x2810
 403 639 381 617 353 617 c 0
 325 617 303 639 303 667 c 0
 303 695 325 717 353 717 c 0
 381 717 403 695 403 667 c 0x2810
296 667 m 0x2880
 296 639 274 617 246 617 c 0
 218 617 196 639 196 667 c 0
 196 695 218 717 246 717 c 0
 274 717 296 695 296 667 c 0x2880
EndSplineSet
EndChar

StartChar: h
Encoding: 104 104 29
Width: 600
VWidth: 0
UnlinkRmOvrlpSave: 1
Flags: W
HStem: 200 21G<126 154 446 474> 200 21G<126 154 446 474> 533 100<266 304.883 329.438 412.562 437.117 476> 780 20G<233 261>
VStem: 90 100<208.438 285.575> 108 100<297.425 369.574> 126 100<380.426 452.575> 144 100<464.425 541.562> 179 100<633.424 702.575> 197 100<714.425 791.562> 214 100<541.438 616.576> 321 100<541.438 624.562> 410 100<208.438 285.575> 428 100<297.425 369.574 550.423 624.562> 446 100<380.426 452.575> 464 100<464.425 532.577>
LayerCount: 2
Back
Fore
SplineSet
510 250 m 0xb008
 510 222 488 200 460 200 c 0
 432 200 410 222 410 250 c 0xb008
 410 272 424 290 443 297 c 1
 434 306 428 319 428 333 c 0xb004
 428 355 442 373 462 380 c 1
 452 389 446 403 446 417 c 0xb002
 446 439 460 457 479 464 c 1
 470 473 464 486 464 500 c 1xb001
 464 513 468 524 476 533 c 1
 449 534 428 556 428 583 c 0
 428 611 450 633 478 633 c 0
 506 633 528 611 528 583 c 0xb004
 528 570 524 559 516 550 c 1
 543 549 564 527 564 500 c 0xb001
 564 478 549 460 530 453 c 1
 539 444 546 431 546 417 c 1xb002
 546 395 532 377 512 370 c 1
 522 361 528 347 528 333 c 0xb004
 528 311 514 293 495 286 c 1
 504 277 510 264 510 250 c 0xb008
190 250 m 0xb8
 190 222 168 200 140 200 c 0
 112 200 90 222 90 250 c 0xb8
 90 272 104 290 123 297 c 1
 114 306 108 319 108 333 c 0xb4
 108 355 122 373 142 380 c 1
 132 389 126 403 126 417 c 0xb2
 126 439 140 457 159 464 c 1
 150 473 144 486 144 500 c 0
 144 528 166 550 194 550 c 0
 222 550 244 528 244 500 c 0xb1
 244 478 229 460 210 453 c 1
 219 444 226 431 226 417 c 0xb2
 226 395 212 377 192 370 c 1
 202 361 208 347 208 333 c 0xb4
 208 311 194 293 175 286 c 1
 184 277 190 264 190 250 c 0xb8
421 583 m 0x3010
 421 555 399 533 371 533 c 0
 343 533 321 555 321 583 c 0
 321 611 343 633 371 633 c 0
 399 633 421 611 421 583 c 0x3010
314 583 m 0x3020
 314 555 292 533 264 533 c 0
 236 533 214 555 214 583 c 0x3020
 214 596 220 608 228 617 c 1
 201 618 179 640 179 667 c 0x3080
 179 689 193 707 212 714 c 1
 203 723 197 736 197 750 c 0
 197 778 219 800 247 800 c 0
 275 800 297 778 297 750 c 0x3040
 297 728 283 710 264 703 c 1
 273 694 279 681 279 667 c 0x3080
 279 654 274 642 266 633 c 1
 293 632 314 610 314 583 c 0x3020
EndSplineSet
EndChar

StartChar: edieresis
Encoding: 235 235 30
Width: 600
VWidth: 0
UnlinkRmOvrlpSave: 1
Flags: W
HStem: 200 100<177 215.883 240.438 323.562 347.438 430.562> 367 100<223.438 306.562 329.438 412.562> 533 100<204.438 287.562 311.438 394.562 419.117 458> 700 100<240.438 323.562 454.438 537.562>
VStem: 90 100<300.423 369.574> 108 100<380.426 452.575> 125 100<208.438 282.577 464.425 540.883> 196 100<541.438 624.562> 215 100<375.438 458.562> 232 100<208.438 291.562 708.438 791.562> 303 100<541.438 624.562> 321 100<375.438 458.562> 339 100<208.438 291.562> 410 100<550.423 624.562> 428 100<375.438 452.575> 446 100<464.425 532.577 708.438 791.562>
LayerCount: 2
Back
Fore
SplineSet
439 250 m 0xf008
 439 222 417 200 389 200 c 0
 361 200 339 222 339 250 c 0
 339 278 361 300 389 300 c 0
 417 300 439 278 439 250 c 0xf008
332 250 m 0xf040
 332 222 310 200 282 200 c 0
 254 200 232 222 232 250 c 0
 232 278 254 300 282 300 c 0
 310 300 332 278 332 250 c 0xf040
225 250 m 1xf2
 225 222 203 200 175 200 c 0
 147 200 125 222 125 250 c 0xf2
 125 263 129 274 137 283 c 1
 110 284 90 306 90 333 c 1xf8
 90 355 104 373 124 380 c 1
 114 389 108 403 108 417 c 0
 108 439 122 457 141 464 c 1
 132 473 126 486 126 500 c 0
 126 528 148 550 176 550 c 0
 204 550 226 528 226 500 c 0
 226 478 211 460 192 453 c 1
 201 444 208 431 208 417 c 0xf4
 208 395 194 377 174 370 c 1
 184 361 190 347 190 333 c 0xf8
 190 320 185 309 177 300 c 1
 204 299 225 277 225 250 c 1xf2
528 417 m 1xf002
 528 389 506 367 478 367 c 0
 450 367 428 389 428 417 c 0xf002
 428 439 442 457 461 464 c 1
 452 473 446 486 446 500 c 1xf001
 446 513 450 524 458 533 c 1
 431 534 410 556 410 583 c 0
 410 611 432 633 460 633 c 0
 488 633 510 611 510 583 c 0xf004
 510 570 506 559 498 550 c 1
 525 549 546 527 546 500 c 0xf001
 546 478 531 460 512 453 c 1
 521 444 528 431 528 417 c 1xf002
421 417 m 0xf010
 421 389 399 367 371 367 c 0
 343 367 321 389 321 417 c 0
 321 445 343 467 371 467 c 0
 399 467 421 445 421 417 c 0xf010
315 417 m 0xf080
 315 389 293 367 265 367 c 0
 237 367 215 389 215 417 c 0
 215 445 237 467 265 467 c 0
 293 467 315 445 315 417 c 0xf080
403 583 m 0xf020
 403 555 381 533 353 533 c 0
 325 533 303 555 303 583 c 0
 303 611 325 633 353 633 c 0
 381 633 403 611 403 583 c 0xf020
296 583 m 0xf1
 296 555 274 533 246 533 c 0
 218 533 196 555 196 583 c 0
 196 611 218 633 246 633 c 0
 274 633 296 611 296 583 c 0xf1
546 750 m 0xf001
 546 722 524 700 496 700 c 0
 468 700 446 722 446 750 c 0
 446 778 468 800 496 800 c 0
 524 800 546 778 546 750 c 0xf001
332 750 m 0xf040
 332 722 310 700 282 700 c 0
 254 700 232 722 232 750 c 0
 232 778 254 800 282 800 c 0
 310 800 332 778 332 750 c 0xf040
EndSplineSet
EndChar

StartChar: l
Encoding: 108 108 31
Width: 600
VWidth: 0
UnlinkRmOvrlpSave: 1
Flags: W
HStem: 200 100<98.4375 181.562 312.438 395.562> 700 100<205.438 288.562>
VStem: 90 100<208.438 291.562> 197 100<208.438 285.575 708.438 791.562> 215 100<297.425 369.574> 233 100<380.426 452.575> 251 100<464.425 535.575> 268 100<547.425 619.574> 286 100<630.426 702.575> 304 100<208.438 291.562 714.425 791.562>
LayerCount: 2
Back
Fore
SplineSet
404 250 m 0xe040
 404 222 382 200 354 200 c 0
 326 200 304 222 304 250 c 0
 304 278 326 300 354 300 c 0
 382 300 404 278 404 250 c 0xe040
297 250 m 0xf0
 297 222 275 200 247 200 c 0
 219 200 197 222 197 250 c 0xf0
 197 272 211 290 230 297 c 1
 221 306 215 319 215 333 c 0xe8
 215 355 229 373 249 380 c 1
 239 389 233 403 233 417 c 0xe4
 233 439 247 457 266 464 c 1
 257 473 251 486 251 500 c 0xe2
 251 522 265 540 284 547 c 1
 275 556 268 569 268 583 c 0xe1
 268 605 282 623 302 630 c 1
 292 639 286 653 286 667 c 1xe080
 286 689 300 707 319 714 c 1
 310 723 304 736 304 750 c 0
 304 778 326 800 354 800 c 0
 382 800 404 778 404 750 c 0xe040
 404 728 390 710 371 703 c 1
 380 694 386 681 386 667 c 0xe080
 386 645 372 627 352 620 c 1
 362 611 368 597 368 583 c 1xe1
 368 561 354 543 335 536 c 1
 344 527 351 514 351 500 c 0xe2
 351 478 336 460 317 453 c 1
 326 444 333 431 333 417 c 1xe4
 333 395 319 377 299 370 c 1
 309 361 315 347 315 333 c 0xe8
 315 311 301 293 282 286 c 1
 291 277 297 264 297 250 c 0xf0
190 250 m 0
 190 222 168 200 140 200 c 0
 112 200 90 222 90 250 c 0
 90 278 112 300 140 300 c 0
 168 300 190 278 190 250 c 0
297 750 m 0
 297 722 275 700 247 700 c 0
 219 700 197 722 197 750 c 0
 197 778 219 800 247 800 c 0
 275 800 297 778 297 750 c 0
EndSplineSet
EndChar

StartChar: p
Encoding: 112 112 32
Width: 600
VWidth: 0
UnlinkRmOvrlpSave: 1
Flags: W
HStem: 200 21G<126 154> 200 21G<126 154> 367 100<231 269.883 294.438 377.562 401.438 484.562> 450 100<472.438 555.562> 533 100<276.438 359.562 382.438 465.562>
VStem: 90 100<208.438 285.575> 108 100<297.425 374.562> 144 100<467.423 535.575> 161 100<547.425 624.562> 179 100<375.438 449.577> 268 100<541.438 624.562> 286 100<375.438 458.562> 374 100<541.438 624.562> 393 100<375.438 458.562> 464 100<458.438 541.562>
LayerCount: 2
Back
Fore
SplineSet
190 250 m 0x84
 190 222 168 200 140 200 c 0
 112 200 90 222 90 250 c 0x84
 90 272 104 290 123 297 c 1
 114 306 108 319 108 333 c 0
 108 361 130 383 158 383 c 0
 186 383 208 361 208 333 c 0x82
 208 311 194 293 175 286 c 1
 184 277 190 264 190 250 c 0x84
493 417 m 0x2004
 493 389 471 367 443 367 c 0
 415 367 393 389 393 417 c 0
 393 445 415 467 443 467 c 0
 471 467 493 445 493 417 c 0x2004
386 417 m 0x2010
 386 389 364 367 336 367 c 0
 308 367 286 389 286 417 c 0
 286 445 308 467 336 467 c 0
 364 467 386 445 386 417 c 0x2010
279 417 m 1x2840
 279 389 257 367 229 367 c 0
 201 367 179 389 179 417 c 0x2840
 179 430 183 441 191 450 c 1
 164 451 144 473 144 500 c 1x11
 144 522 158 540 177 547 c 1
 168 556 161 569 161 583 c 0
 161 611 183 633 211 633 c 0
 239 633 261 611 261 583 c 0x0880
 261 561 247 543 228 536 c 1
 237 527 244 514 244 500 c 0x09
 244 487 239 476 231 467 c 1
 258 466 279 444 279 417 c 1x2840
564 500 m 0x1002
 564 472 542 450 514 450 c 0
 486 450 464 472 464 500 c 0
 464 528 486 550 514 550 c 0
 542 550 564 528 564 500 c 0x1002
474 583 m 0x0808
 474 555 452 533 424 533 c 0
 396 533 374 555 374 583 c 0
 374 611 396 633 424 633 c 0
 452 633 474 611 474 583 c 0x0808
368 583 m 0x0820
 368 555 346 533 318 533 c 0
 290 533 268 555 268 583 c 0
 268 611 290 633 318 633 c 0
 346 633 368 611 368 583 c 0x0820
EndSplineSet
EndChar

StartChar: t
Encoding: 116 116 33
Width: 600
VWidth: 0
UnlinkRmOvrlpSave: 1
Flags: W
HStem: 200 100<231 269.883 294.438 377.562> 283 100<365.438 448.562> 533 100<98.4375 181.562 311.438 394.562> 780 20G<269 297>
VStem: 90 100<541.438 624.562> 144 100<300.423 369.574> 162 100<380.426 452.575> 179 100<208.438 282.577 464.425 535.575> 197 100<547.425 619.574> 215 100<630.426 702.575> 233 100<714.425 791.562> 286 100<208.438 291.562> 303 100<541.438 624.562> 357 100<291.438 374.562>
LayerCount: 2
Back
Fore
SplineSet
386 250 m 0xb010
 386 222 364 200 336 200 c 0
 308 200 286 222 286 250 c 0
 286 278 308 300 336 300 c 0
 364 300 386 278 386 250 c 0xb010
279 250 m 1xb1
 279 222 257 200 229 200 c 0
 201 200 179 222 179 250 c 0xb1
 179 263 183 274 191 283 c 1
 164 284 144 306 144 333 c 1x74
 144 355 158 373 178 380 c 1
 168 389 162 403 162 417 c 0x72
 162 439 176 457 195 464 c 1
 186 473 180 486 180 500 c 0
 180 522 194 540 213 547 c 1
 204 556 197 569 197 583 c 0x7080
 197 605 211 623 231 630 c 1
 221 639 215 653 215 667 c 0x7040
 215 689 229 707 248 714 c 1
 239 723 233 736 233 750 c 1
 233 778 255 800 283 800 c 0
 311 800 333 778 333 750 c 0x7020
 333 728 319 710 300 703 c 1
 309 694 315 681 315 667 c 0x7040
 315 645 301 627 281 620 c 1
 291 611 297 597 297 583 c 1x7080
 297 561 283 543 264 536 c 1
 273 527 280 514 280 500 c 0
 280 478 265 460 246 453 c 1
 255 444 262 431 262 417 c 1x72
 262 395 248 377 228 370 c 1
 238 361 244 347 244 333 c 0x74
 244 320 239 309 231 300 c 1
 258 299 279 277 279 250 c 1xb1
457 333 m 0x7004
 457 305 435 283 407 283 c 0
 379 283 357 305 357 333 c 0
 357 361 379 383 407 383 c 0
 435 383 457 361 457 333 c 0x7004
403 583 m 0x3008
 403 555 381 533 353 533 c 0
 325 533 303 555 303 583 c 0
 303 611 325 633 353 633 c 0
 381 633 403 611 403 583 c 0x3008
190 583 m 0x38
 190 555 168 533 140 533 c 0
 112 533 90 555 90 583 c 0
 90 611 112 633 140 633 c 0
 168 633 190 611 190 583 c 0x38
EndSplineSet
EndChar

StartChar: divide
Encoding: 247 247 34
Width: 600
VWidth: 0
UnlinkRmOvrlpSave: 1
Flags: W
HStem: 283 100<222.438 305.562> 450 100<98.4375 181.562 205.438 288.562 311.438 394.562 418.438 501.562> 617 100<293.438 376.562>
VStem: 90 100<458.438 541.562> 197 100<458.438 541.562> 214 100<291.438 374.562> 285 100<625.438 708.562> 303 100<458.438 541.562> 410 100<458.438 541.562>
CounterMasks: 1 e0
LayerCount: 2
Back
Fore
SplineSet
314 333 m 0xf480
 314 305 292 283 264 283 c 0
 236 283 214 305 214 333 c 0
 214 361 236 383 264 383 c 0
 292 383 314 361 314 333 c 0xf480
510 500 m 0
 510 472 488 450 460 450 c 0
 432 450 410 472 410 500 c 0
 410 528 432 550 460 550 c 0
 488 550 510 528 510 500 c 0
403 500 m 0xf180
 403 472 381 450 353 450 c 0
 325 450 303 472 303 500 c 0
 303 528 325 550 353 550 c 0
 381 550 403 528 403 500 c 0xf180
297 500 m 0xf880
 297 472 275 450 247 450 c 0
 219 450 197 472 197 500 c 0
 197 528 219 550 247 550 c 0
 275 550 297 528 297 500 c 0xf880
190 500 m 0
 190 472 168 450 140 450 c 0
 112 450 90 472 90 500 c 0
 90 528 112 550 140 550 c 0
 168 550 190 528 190 500 c 0
385 667 m 0xf280
 385 639 363 617 335 617 c 0
 307 617 285 639 285 667 c 0
 285 695 307 717 335 717 c 0
 363 717 385 695 385 667 c 0xf280
EndSplineSet
EndChar

StartChar: x
Encoding: 120 120 35
Width: 600
VWidth: 0
UnlinkRmOvrlpSave: 1
Flags: W
HStem: 200 100<98.4375 181.562 462 500.883> 283 100<169.438 252.562 383.438 422> 367 100<294.438 377.562> 450 100<249 287.883 419.438 502.562> 533 100<170.117 209 489.438 572.562>
VStem: 90 100<208.438 291.562> 161 100<291.438 374.562 550.423 624.562> 197 100<458.438 532.577> 286 100<375.438 458.562> 375 100<300.423 374.562> 410 100<208.438 282.577 459.117 540.883> 481 100<541.438 624.562>
LayerCount: 2
Back
Fore
SplineSet
510 250 m 1x8020
 510 222 488 200 460 200 c 0
 432 200 410 222 410 250 c 0x8020
 410 263 414 274 422 283 c 1
 395 284 375 306 375 333 c 1
 375 361 397 383 425 383 c 0
 453 383 475 361 475 333 c 0x4040
 475 320 470 309 462 300 c 1
 489 299 510 277 510 250 c 1x8020
190 250 m 0x84
 190 222 168 200 140 200 c 0
 112 200 90 222 90 250 c 0
 90 278 112 300 140 300 c 0
 168 300 190 278 190 250 c 0x84
261 333 m 0x42
 261 305 239 283 211 283 c 0
 183 283 161 305 161 333 c 0
 161 361 183 383 211 383 c 0
 239 383 261 361 261 333 c 0x42
386 417 m 0x2080
 386 389 364 367 336 367 c 0
 308 367 286 389 286 417 c 0
 286 445 308 467 336 467 c 0
 364 467 386 445 386 417 c 0x2080
511 500 m 0
 511 472 489 450 461 450 c 0
 433 450 411 472 411 500 c 0
 411 528 433 550 461 550 c 0x10
 489 550 511 528 511 500 c 0
297 500 m 1x11
 297 472 275 450 247 450 c 0
 219 450 197 472 197 500 c 0x11
 197 513 201 524 209 533 c 1
 182 534 161 556 161 583 c 1
 161 611 183 633 211 633 c 0
 239 633 261 611 261 583 c 0x0a
 261 570 257 559 249 550 c 1
 276 549 297 527 297 500 c 1x11
581 583 m 0x0810
 581 555 559 533 531 533 c 0
 503 533 481 555 481 583 c 0
 481 611 503 633 531 633 c 0
 559 633 581 611 581 583 c 0x0810
EndSplineSet
EndChar

StartChar: bar
Encoding: 124 124 36
Width: 600
VWidth: 0
UnlinkRmOvrlpSave: 1
Flags: W
HStem: 200 21G<126 154> 200 21G<126 154> 780 20G<233 261>
VStem: 90 100<208.438 285.575> 108 100<297.425 369.574> 126 100<380.426 452.575> 144 100<464.425 535.575> 161 100<547.425 619.574> 179 100<630.426 702.575> 197 100<714.425 791.562>
LayerCount: 2
Back
Fore
SplineSet
190 250 m 0xb0
 190 222 168 200 140 200 c 0
 112 200 90 222 90 250 c 0xb0
 90 272 104 290 123 297 c 1
 114 306 108 319 108 333 c 0xa8
 108 355 122 373 142 380 c 1
 132 389 126 403 126 417 c 0xa4
 126 439 140 457 159 464 c 1
 150 473 144 486 144 500 c 0xa2
 144 522 158 540 177 547 c 1
 168 556 161 569 161 583 c 0xa1
 161 605 175 623 195 630 c 1
 185 639 179 653 179 667 c 1xa080
 179 689 193 707 212 714 c 1
 203 723 197 736 197 750 c 0
 197 778 219 800 247 800 c 0
 275 800 297 778 297 750 c 0xa040
 297 728 283 710 264 703 c 1
 273 694 279 681 279 667 c 0xa080
 279 645 265 627 245 620 c 1
 255 611 261 597 261 583 c 1xa1
 261 561 247 543 228 536 c 1
 237 527 244 514 244 500 c 0xa2
 244 478 229 460 210 453 c 1
 219 444 226 431 226 417 c 1xa4
 226 395 212 377 192 370 c 1
 202 361 208 347 208 333 c 0xa8
 208 311 194 293 175 286 c 1
 184 277 190 264 190 250 c 0xb0
EndSplineSet
EndChar

StartChar: glyph37
Encoding: 769 769 37
Width: 600
VWidth: 0
UnlinkRmOvrlpSave: 1
Flags: W
HStem: 533 100<98.4375 181.562> 617 100<169.438 252.562> 700 100<240.438 323.562>
VStem: 90 100<541.438 624.562> 161 100<625.438 708.562> 232 100<708.438 791.562>
LayerCount: 2
Back
Fore
SplineSet
190 583 m 0x90
 190 555 168 533 140 533 c 0
 112 533 90 555 90 583 c 0
 90 611 112 633 140 633 c 0
 168 633 190 611 190 583 c 0x90
261 667 m 0x48
 261 639 239 617 211 617 c 0
 183 617 161 639 161 667 c 0
 161 695 183 717 211 717 c 0
 239 717 261 695 261 667 c 0x48
332 750 m 0x24
 332 722 310 700 282 700 c 0
 254 700 232 722 232 750 c 0
 232 778 254 800 282 800 c 0
 310 800 332 778 332 750 c 0x24
EndSplineSet
EndChar

StartChar: glyph38
Encoding: 8594 8594 38
Width: 600
VWidth: 0
UnlinkRmOvrlpSave: 1
Flags: W
HStem: 283 100<275.438 358.562> 367 100<390 429.883> 450 100<98.4375 181.562 205.438 288.562 312.117 351 462 500.883> 617 100<347.396 388>
VStem: 90 100<458.438 541.562> 197 100<458.438 541.562> 267 100<291.438 374.562> 303 100<467.423 541.562> 339 100<375.438 449.577 633.424 707.883> 374 100<550.423 616.576> 410 100<458.438 532.577>
LayerCount: 2
Back
Fore
SplineSet
367 333 m 0x9a
 367 305 345 283 317 283 c 0
 289 283 267 305 267 333 c 0
 267 361 289 383 317 383 c 0
 345 383 367 361 367 333 c 0x9a
439 417 m 0x5880
 439 389 417 367 389 367 c 0
 361 367 339 389 339 417 c 0x5880
 339 430 343 441 351 450 c 1
 324 451 303 473 303 500 c 0
 303 528 325 550 353 550 c 0
 381 550 403 528 403 500 c 0x39
 403 487 398 476 390 467 c 1
 417 466 439 444 439 417 c 0x5880
510 500 m 0x3820
 510 472 488 450 460 450 c 0
 432 450 410 472 410 500 c 0x3820
 410 513 414 524 422 533 c 1
 395 534 374 556 374 583 c 0
 374 596 380 608 388 617 c 1
 361 617 338 640 338 667 c 0
 338 695 360 717 388 717 c 0
 416 717 438 695 438 667 c 0
 438 654 433 642 425 633 c 1
 452 633 474 610 474 583 c 0x3840
 474 570 470 559 462 550 c 1
 489 549 510 527 510 500 c 0x3820
297 500 m 0x3c
 297 472 275 450 247 450 c 0
 219 450 197 472 197 500 c 0
 197 528 219 550 247 550 c 0
 275 550 297 528 297 500 c 0x3c
190 500 m 0
 190 472 168 450 140 450 c 0
 112 450 90 472 90 500 c 0
 90 528 112 550 140 550 c 0
 168 550 190 528 190 500 c 0
EndSplineSet
EndChar

StartChar: numbersign
Encoding: 35 35 39
Width: 600
VWidth: 0
UnlinkRmOvrlpSave: 1
Flags: W
HStem: 200 21G<197 225 303 331> 200 21G<197 225 303 331> 367 100<98.4375 181.562 418.438 501.562> 533 100<133.438 216.562 453.438 536.562> 780 20G<304 332 410 438>
VStem: 90 100<375.438 458.562> 125 100<541.438 624.562> 161 100<208.438 285.575> 179 100<297.425 369.574> 197 100<380.426 452.575> 215 100<464.425 535.575> 232 100<547.425 619.574> 250 100<630.426 702.575> 267 100<208.438 285.575 714.425 790.883> 285 100<297.425 369.574> 303 100<380.426 452.575> 321 100<464.425 535.575> 338 100<547.425 619.574> 356 100<630.426 702.575> 374 100<714.425 791.562> 410 100<375.438 458.562> 445 100<541.438 624.562>
LayerCount: 2
Back
Fore
SplineSet
367 250 m 0xb804
 367 222 345 200 317 200 c 0
 289 200 267 222 267 250 c 0xb804
 267 272 281 290 300 297 c 1
 291 306 285 319 285 333 c 0xb802
 285 355 299 373 319 380 c 1
 309 389 303 403 303 417 c 0xb801
 303 439 317 457 336 464 c 1
 327 473 321 486 321 500 c 1xb80080
 321 522 335 540 354 547 c 1
 345 556 338 569 338 583 c 0xb80040
 338 605 352 623 372 630 c 1
 362 639 356 653 356 667 c 1xb80020
 356 689 370 707 389 714 c 1
 380 723 374 736 374 750 c 0
 374 778 396 800 424 800 c 0
 452 800 474 778 474 750 c 0xb80010
 474 728 460 710 441 703 c 1
 450 694 456 681 456 667 c 0xb80020
 456 645 442 627 422 620 c 1
 432 611 438 597 438 583 c 1xb80040
 438 561 424 543 405 536 c 1
 414 527 421 514 421 500 c 0xb80080
 421 478 406 460 387 453 c 1
 396 444 403 431 403 417 c 1xb801
 403 395 389 377 369 370 c 1
 379 361 385 347 385 333 c 0xb802
 385 311 371 293 352 286 c 1
 361 277 367 264 367 250 c 0xb804
261 250 m 0xb9
 261 222 239 200 211 200 c 0
 183 200 161 222 161 250 c 0xb9
 161 272 175 290 194 297 c 1
 185 306 179 319 179 333 c 0xb880
 179 355 193 373 213 380 c 1
 203 389 197 403 197 417 c 0xb840
 197 439 211 457 230 464 c 1
 221 473 215 486 215 500 c 0xb820
 215 522 229 540 248 547 c 1
 239 556 232 569 232 583 c 0xb810
 232 605 246 623 266 630 c 1
 256 639 250 653 250 667 c 0
 250 689 264 707 283 714 c 1
 274 723 268 736 268 750 c 1
 268 778 290 800 318 800 c 0
 346 800 368 778 368 750 c 0
 368 728 354 710 335 703 c 1
 344 694 350 681 350 667 c 0xb808
 350 645 336 627 316 620 c 1
 326 611 332 597 332 583 c 1xb810
 332 561 318 543 299 536 c 1
 308 527 315 514 315 500 c 0xb820
 315 478 300 460 281 453 c 1
 290 444 297 431 297 417 c 1xb840
 297 395 283 377 263 370 c 1
 273 361 279 347 279 333 c 0xb880
 279 311 265 293 246 286 c 1
 255 277 261 264 261 250 c 0xb9
510 417 m 0x380008
 510 389 488 367 460 367 c 0
 432 367 410 389 410 417 c 0
 410 445 432 467 460 467 c 0
 488 467 510 445 510 417 c 0x380008
190 417 m 0x3c
 190 389 168 367 140 367 c 0
 112 367 90 389 90 417 c 0
 90 445 112 467 140 467 c 0
 168 467 190 445 190 417 c 0x3c
545 583 m 0x380004
 545 555 523 533 495 533 c 0
 467 533 445 555 445 583 c 0
 445 611 467 633 495 633 c 0
 523 633 545 611 545 583 c 0x380004
225 583 m 0x3a
 225 555 203 533 175 533 c 0
 147 533 125 555 125 583 c 0
 125 611 147 633 175 633 c 0
 203 633 225 611 225 583 c 0x3a
EndSplineSet
EndChar

StartChar: glyph40
Encoding: 8356 8356 40
Width: 600
VWidth: 0
UnlinkRmOvrlpSave: 1
Flags: W
HStem: 200 100<98.4375 181.562 311.438 394.562 418.438 501.562> 367 100<134.438 217.562 347.438 430.562> 533 100<169.438 252.562 382.438 465.562> 617 100<552 590.562> 700 100<365.438 448.562 473.117 512>
VStem: 90 100<208.438 291.562> 126 100<375.438 458.562> 161 100<541.438 624.562> 197 100<208.438 285.575> 215 100<297.425 369.574> 233 100<380.426 452.575> 251 100<464.425 535.575> 268 100<547.425 619.574> 286 100<630.426 708.562> 303 100<208.438 291.562> 339 100<375.438 458.562> 357 100<708.438 791.562> 374 100<541.438 624.562> 410 100<208.438 291.562> 464 100<717.423 791.562> 499 100<625.438 699.577>
LayerCount: 2
Back
Fore
SplineSet
510 250 m 0xc00020
 510 222 488 200 460 200 c 0
 432 200 410 222 410 250 c 0
 410 278 432 300 460 300 c 0
 488 300 510 278 510 250 c 0xc00020
403 250 m 0xc002
 403 222 381 200 353 200 c 0
 325 200 303 222 303 250 c 0
 303 278 325 300 353 300 c 0
 381 300 403 278 403 250 c 0xc002
297 250 m 0xd080
 297 222 275 200 247 200 c 0
 219 200 197 222 197 250 c 0xd080
 197 272 211 290 230 297 c 1
 221 306 215 319 215 333 c 0xd040
 215 355 229 373 249 380 c 1
 239 389 233 403 233 417 c 0xd020
 233 439 247 457 266 464 c 1
 257 473 251 486 251 500 c 0xd010
 251 522 265 540 284 547 c 1
 275 556 268 569 268 583 c 0xd008
 268 605 282 623 302 630 c 1
 292 639 286 653 286 667 c 0
 286 695 308 717 336 717 c 0
 364 717 386 695 386 667 c 0xd004
 386 645 372 627 352 620 c 1
 362 611 368 597 368 583 c 1xd008
 368 561 354 543 335 536 c 1
 344 527 351 514 351 500 c 0xd010
 351 478 336 460 317 453 c 1
 326 444 333 431 333 417 c 1xd020
 333 395 319 377 299 370 c 1
 309 361 315 347 315 333 c 0xd040
 315 311 301 293 282 286 c 1
 291 277 297 264 297 250 c 0xd080
190 250 m 0xc4
 190 222 168 200 140 200 c 0
 112 200 90 222 90 250 c 0
 90 278 112 300 140 300 c 0
 168 300 190 278 190 250 c 0xc4
439 417 m 0xc001
 439 389 417 367 389 367 c 0
 361 367 339 389 339 417 c 0
 339 445 361 467 389 467 c 0
 417 467 439 445 439 417 c 0xc001
226 417 m 0xc2
 226 389 204 367 176 367 c 0
 148 367 126 389 126 417 c 0
 126 445 148 467 176 467 c 0
 204 467 226 445 226 417 c 0xc2
474 583 m 0xe00040
 474 555 452 533 424 533 c 0
 396 533 374 555 374 583 c 0
 374 611 396 633 424 633 c 0
 452 633 474 611 474 583 c 0xe00040
261 583 m 0xe1
 261 555 239 533 211 533 c 0
 183 533 161 555 161 583 c 0
 161 611 183 633 211 633 c 0
 239 633 261 611 261 583 c 0xe1
599 667 m 0xd00008
 599 639 577 617 549 617 c 0
 521 617 499 639 499 667 c 0xd00008
 499 680 504 691 512 700 c 1
 485 701 464 723 464 750 c 0
 464 778 486 800 514 800 c 0
 542 800 564 778 564 750 c 0xc80010
 564 737 560 726 552 717 c 1
 579 716 599 694 599 667 c 0xd00008
457 750 m 0xc80080
 457 722 435 700 407 700 c 0
 379 700 357 722 357 750 c 0
 357 778 379 800 407 800 c 0
 435 800 457 778 457 750 c 0xc80080
EndSplineSet
EndChar

StartChar: quotesingle
Encoding: 39 39 41
Width: 600
VWidth: 0
UnlinkRmOvrlpSave: 1
Flags: W
HStem: 533 100<98.4375 181.562> 617 100<169.438 252.562> 700 100<240.438 323.562>
VStem: 90 100<541.438 624.562> 161 100<625.438 708.562> 232 100<708.438 791.562>
LayerCount: 2
Back
Fore
SplineSet
190 583 m 0x90
 190 555 168 533 140 533 c 0
 112 533 90 555 90 583 c 0
 90 611 112 633 140 633 c 0
 168 633 190 611 190 583 c 0x90
261 667 m 0x48
 261 639 239 617 211 617 c 0
 183 617 161 639 161 667 c 0
 161 695 183 717 211 717 c 0
 239 717 261 695 261 667 c 0x48
332 750 m 0x24
 332 722 310 700 282 700 c 0
 254 700 232 722 232 750 c 0
 232 778 254 800 282 800 c 0
 310 800 332 778 332 750 c 0x24
EndSplineSet
EndChar

StartChar: plus
Encoding: 43 43 42
Width: 600
VWidth: 0
UnlinkRmOvrlpSave: 1
Flags: W
HStem: 200 21G<232 260> 200 21G<232 260> 450 100<98.4375 181.562 205.438 244 355 393.883 418.438 501.562> 780 20G<339 367>
VStem: 90 100<458.438 541.562> 196 100<208.438 285.575 467.423 540.883> 214 100<297.425 369.574> 232 100<380.426 449.577> 267 100<550.423 619.574> 285 100<630.426 702.575> 303 100<458.438 532.577 714.425 791.562> 410 100<458.438 541.562>
LayerCount: 2
Back
Fore
SplineSet
296 250 m 0xbc10
 296 222 274 200 246 200 c 0
 218 200 196 222 196 250 c 0xbc10
 196 272 210 290 229 297 c 1
 220 306 214 319 214 333 c 0xba10
 214 355 228 373 248 380 c 1
 238 389 232 403 232 417 c 0
 232 430 236 441 244 450 c 1
 217 451 197 473 197 500 c 1
 197 528 219 550 247 550 c 0
 275 550 297 528 297 500 c 0
 297 487 292 476 284 467 c 1
 311 466 332 444 332 417 c 1xb910
 332 395 318 377 298 370 c 1
 308 361 314 347 314 333 c 0xba10
 314 311 300 293 281 286 c 1
 290 277 296 264 296 250 c 0xbc10
510 500 m 0
 510 472 488 450 460 450 c 0
 432 450 410 472 410 500 c 0
 410 528 432 550 460 550 c 0
 488 550 510 528 510 500 c 0
403 500 m 0x3830
 403 472 381 450 353 450 c 0
 325 450 303 472 303 500 c 0x3830
 303 513 307 524 315 533 c 1
 288 534 267 556 267 583 c 0x3890
 267 605 281 623 301 630 c 1
 291 639 285 653 285 667 c 1x3850
 285 689 299 707 318 714 c 1
 309 723 303 736 303 750 c 0
 303 778 325 800 353 800 c 0
 381 800 403 778 403 750 c 0x3830
 403 728 389 710 370 703 c 1
 379 694 385 681 385 667 c 0x3850
 385 645 371 627 351 620 c 1
 361 611 367 597 367 583 c 1x3890
 367 570 363 559 355 550 c 1
 382 549 403 527 403 500 c 0x3830
190 500 m 0
 190 472 168 450 140 450 c 0
 112 450 90 472 90 500 c 0
 90 528 112 550 140 550 c 0
 168 550 190 528 190 500 c 0
EndSplineSet
EndChar

StartChar: glyph43
Encoding: 8364 8364 43
Width: 600
VWidth: 0
UnlinkRmOvrlpSave: 1
Flags: W
HStem: 200 100<266 304.883 329.438 412.562> 283 100<400.438 483.562> 367 100<98.4375 181.562 311.438 394.562> 533 100<133.438 216.562 346.438 429.562> 617 100<516 554.562> 700 100<329.438 412.562 437.117 476>
VStem: 90 100<375.438 458.562> 125 100<541.438 624.562> 179 100<300.423 369.574> 197 100<380.426 452.575> 214 100<208.438 282.577 464.425 535.575> 232 100<547.425 619.574> 250 100<630.426 708.562> 303 100<375.438 458.562> 321 100<208.438 291.562 708.438 791.562> 338 100<541.438 624.562> 392 100<291.438 374.562> 428 100<717.423 791.562> 463 100<625.438 699.577>
LayerCount: 2
Back
Fore
SplineSet
421 250 m 0x8002
 421 222 399 200 371 200 c 0
 343 200 321 222 321 250 c 0
 321 278 343 300 371 300 c 0
 399 300 421 278 421 250 c 0x8002
314 250 m 1x8820
 314 222 292 200 264 200 c 0
 236 200 214 222 214 250 c 0x8820
 214 263 218 274 226 283 c 1
 199 284 179 306 179 333 c 1x4080
 179 355 193 373 213 380 c 1
 203 389 197 403 197 417 c 0x4040
 197 439 211 457 230 464 c 1
 221 473 215 486 215 500 c 0
 215 522 229 540 248 547 c 1
 239 556 232 569 232 583 c 0x4010
 232 605 246 623 266 630 c 1
 256 639 250 653 250 667 c 0
 250 695 272 717 300 717 c 0
 328 717 350 695 350 667 c 0x4808
 350 645 336 627 316 620 c 1
 326 611 332 597 332 583 c 1x4810
 332 561 318 543 299 536 c 1
 308 527 315 514 315 500 c 0
 315 478 300 460 281 453 c 1
 290 444 297 431 297 417 c 1x4840
 297 395 283 377 263 370 c 1
 273 361 279 347 279 333 c 0x4880
 279 320 274 309 266 300 c 1
 293 299 314 277 314 250 c 1x8820
492 333 m 0x400080
 492 305 470 283 442 283 c 0
 414 283 392 305 392 333 c 0
 392 361 414 383 442 383 c 0
 470 383 492 361 492 333 c 0x400080
403 417 m 0x2004
 403 389 381 367 353 367 c 0
 325 367 303 389 303 417 c 0
 303 445 325 467 353 467 c 0
 381 467 403 445 403 417 c 0x2004
190 417 m 0x22
 190 389 168 367 140 367 c 0
 112 367 90 389 90 417 c 0
 90 445 112 467 140 467 c 0
 168 467 190 445 190 417 c 0x22
438 583 m 0x1001
 438 555 416 533 388 533 c 0
 360 533 338 555 338 583 c 0
 338 611 360 633 388 633 c 0
 416 633 438 611 438 583 c 0x1001
225 583 m 0x11
 225 555 203 533 175 533 c 0
 147 533 125 555 125 583 c 0
 125 611 147 633 175 633 c 0
 203 633 225 611 225 583 c 0x11
563 667 m 0x080020
 563 639 541 617 513 617 c 0
 485 617 463 639 463 667 c 0x080020
 463 680 468 691 476 700 c 1
 449 701 428 723 428 750 c 0
 428 778 450 800 478 800 c 0
 506 800 528 778 528 750 c 0x040040
 528 737 524 726 516 717 c 1
 543 716 563 694 563 667 c 0x080020
421 750 m 0x0402
 421 722 399 700 371 700 c 0
 343 700 321 722 321 750 c 0
 321 778 343 800 371 800 c 0
 399 800 421 778 421 750 c 0x0402
EndSplineSet
EndChar

StartChar: slash
Encoding: 47 47 44
Width: 600
VWidth: 0
UnlinkRmOvrlpSave: 1
Flags: W
HStem: 200 100<98.4375 181.562> 283 100<169.438 252.562> 367 100<241.438 324.562> 450 100<312.438 395.562> 533 100<382.438 465.562> 617 100<454.438 537.562> 700 100<525.438 608.562>
VStem: 90 100<208.438 291.562> 161 100<291.438 374.562> 233 100<375.438 458.562> 304 100<458.438 541.562> 374 100<541.438 624.562> 446 100<625.438 708.562> 517 100<708.438 791.562>
LayerCount: 2
Back
Fore
SplineSet
190 250 m 0x81
 190 222 168 200 140 200 c 0
 112 200 90 222 90 250 c 0
 90 278 112 300 140 300 c 0
 168 300 190 278 190 250 c 0x81
261 333 m 0x4080
 261 305 239 283 211 283 c 0
 183 283 161 305 161 333 c 0
 161 361 183 383 211 383 c 0
 239 383 261 361 261 333 c 0x4080
333 417 m 0x2040
 333 389 311 367 283 367 c 0
 255 367 233 389 233 417 c 0
 233 445 255 467 283 467 c 0
 311 467 333 445 333 417 c 0x2040
404 500 m 0x1020
 404 472 382 450 354 450 c 0
 326 450 304 472 304 500 c 0
 304 528 326 550 354 550 c 0
 382 550 404 528 404 500 c 0x1020
474 583 m 0x0810
 474 555 452 533 424 533 c 0
 396 533 374 555 374 583 c 0
 374 611 396 633 424 633 c 0
 452 633 474 611 474 583 c 0x0810
546 667 m 0x0408
 546 639 524 617 496 617 c 0
 468 617 446 639 446 667 c 0
 446 695 468 717 496 717 c 0
 524 717 546 695 546 667 c 0x0408
617 750 m 0x0204
 617 722 595 700 567 700 c 0
 539 700 517 722 517 750 c 0
 517 778 539 800 567 800 c 0
 595 800 617 778 617 750 c 0x0204
EndSplineSet
EndChar

StartChar: glyph45
Encoding: 305 305 45
Width: 600
VWidth: 0
UnlinkRmOvrlpSave: 1
Flags: W
HStem: 200 100<98.4375 181.562 312.438 395.562> 533 100<169.438 252.562>
VStem: 90 100<208.438 291.562> 161 100<541.438 624.562> 197 100<208.438 285.575> 215 100<297.425 369.574> 233 100<380.426 452.575> 251 100<464.425 535.575> 268 100<547.425 624.562> 304 100<208.438 291.562>
LayerCount: 2
Back
Fore
SplineSet
404 250 m 0xc040
 404 222 382 200 354 200 c 0
 326 200 304 222 304 250 c 0
 304 278 326 300 354 300 c 0
 382 300 404 278 404 250 c 0xc040
297 250 m 0xc8
 297 222 275 200 247 200 c 0
 219 200 197 222 197 250 c 0xc8
 197 272 211 290 230 297 c 1
 221 306 215 319 215 333 c 0xc4
 215 355 229 373 249 380 c 1
 239 389 233 403 233 417 c 0xc2
 233 439 247 457 266 464 c 1
 257 473 251 486 251 500 c 0xc1
 251 522 265 540 284 547 c 1
 275 556 268 569 268 583 c 0
 268 611 290 633 318 633 c 0
 346 633 368 611 368 583 c 0xc080
 368 561 354 543 335 536 c 1
 344 527 351 514 351 500 c 0xc1
 351 478 336 460 317 453 c 1
 326 444 333 431 333 417 c 1xc2
 333 395 319 377 299 370 c 1
 309 361 315 347 315 333 c 0xc4
 315 311 301 293 282 286 c 1
 291 277 297 264 297 250 c 0xc8
190 250 m 0xe0
 190 222 168 200 140 200 c 0
 112 200 90 222 90 250 c 0
 90 278 112 300 140 300 c 0
 168 300 190 278 190 250 c 0xe0
261 583 m 0xd0
 261 555 239 533 211 533 c 0
 183 533 161 555 161 583 c 0
 161 611 183 633 211 633 c 0
 239 633 261 611 261 583 c 0xd0
EndSplineSet
EndChar

StartChar: degree
Encoding: 176 176 46
Width: 600
VWidth: 0
UnlinkRmOvrlpSave: 1
Flags: W
HStem: 533 100<177 216.883 240.438 323.562> 617 100<99.3961 140 356 394.883> 700 100<170.438 253.562 277.117 317>
VStem: 90 100<633.424 708.562> 126 100<541.438 616.576> 162 100<708.438 791.562> 232 100<541.438 624.562> 268 100<717.423 791.562> 304 100<625.438 699.577>
LayerCount: 2
Back
Fore
SplineSet
332 583 m 0x82
 332 555 310 533 282 533 c 0
 254 533 232 555 232 583 c 0
 232 611 254 633 282 633 c 0
 310 633 332 611 332 583 c 0x82
226 583 m 0x88
 226 555 204 533 176 533 c 0
 148 533 126 555 126 583 c 0x88
 126 596 132 608 140 617 c 1
 113 617 90 640 90 667 c 0
 90 695 112 717 140 717 c 0
 168 717 190 695 190 667 c 0x50
 190 654 185 642 177 633 c 1
 204 633 226 610 226 583 c 0x88
404 667 m 0x4080
 404 639 382 617 354 617 c 0
 326 617 304 639 304 667 c 0x4080
 304 680 309 691 317 700 c 1
 290 701 268 723 268 750 c 0
 268 778 290 800 318 800 c 0
 346 800 368 778 368 750 c 0x21
 368 737 364 726 356 717 c 1
 383 716 404 694 404 667 c 0x4080
262 750 m 0x24
 262 722 240 700 212 700 c 0
 184 700 162 722 162 750 c 0
 162 778 184 800 212 800 c 0
 240 800 262 778 262 750 c 0x24
EndSplineSet
EndChar

StartChar: three
Encoding: 51 51 47
Width: 600
VWidth: 0
UnlinkRmOvrlpSave: 1
Flags: W
HStem: 200 100<177 215.883 240.438 323.562 347.438 430.562> 283 100<98.4375 137> 450 100<294.438 377.562> 533 100<365.117 405> 617 100<480 518.883> 700 100<187.438 270.562 294.438 377.562 401.117 441 507.438 590.562>
VStem: 90 100<300.423 374.562> 125 100<208.438 282.577> 179 100<708.438 791.562> 232 100<208.438 291.562> 286 100<458.438 541.562 708.438 791.562> 339 100<208.438 291.562> 356 100<550.423 624.562> 393 100<467.423 532.577 717.423 790.883> 410 100<291.438 369.574> 428 100<380.426 449.577 625.438 699.577> 499 100<708.438 791.562>
LayerCount: 2
Back
Fore
SplineSet
439 250 m 0x8010
 439 222 417 200 389 200 c 0
 361 200 339 222 339 250 c 0
 339 278 361 300 389 300 c 0
 417 300 439 278 439 250 c 0x8010
332 250 m 0x8040
 332 222 310 200 282 200 c 0
 254 200 232 222 232 250 c 0
 232 278 254 300 282 300 c 0
 310 300 332 278 332 250 c 0x8040
225 250 m 1x81
 225 222 203 200 175 200 c 0
 147 200 125 222 125 250 c 0x81
 125 263 129 274 137 283 c 1
 110 284 90 306 90 333 c 1
 90 361 112 383 140 383 c 0
 168 383 190 361 190 333 c 0x42
 190 320 185 309 177 300 c 1
 204 299 225 277 225 250 c 1x81
510 333 m 0x2002
 510 305 488 283 460 283 c 0
 432 283 410 305 410 333 c 0x6002
 410 355 424 373 444 380 c 1
 434 389 428 403 428 417 c 0x6001
 428 430 432 441 440 450 c 1
 413 451 393 473 393 500 c 1x6004
 393 513 397 524 405 533 c 1
 378 534 356 556 356 583 c 1
 356 611 378 633 406 633 c 0
 434 633 456 611 456 583 c 0x1008
 456 570 452 559 444 550 c 1
 471 549 493 527 493 500 c 1x2004
 493 487 488 476 480 467 c 1
 507 466 528 444 528 417 c 1x2001
 528 395 514 377 494 370 c 1
 504 361 510 347 510 333 c 0x2002
386 500 m 0x2020
 386 472 364 450 336 450 c 0
 308 450 286 472 286 500 c 0
 286 528 308 550 336 550 c 0
 364 550 386 528 386 500 c 0x2020
528 667 m 0x0801
 528 639 506 617 478 617 c 0x0801
 450 617 428 639 428 667 c 0
 428 680 433 691 441 700 c 1
 414 701 392 723 392 750 c 0
 392 778 414 800 442 800 c 0x0401
 470 800 492 778 492 750 c 0
 492 737 488 726 480 717 c 1
 507 716 528 694 528 667 c 0x0801
599 750 m 0x040080
 599 722 577 700 549 700 c 0
 521 700 499 722 499 750 c 0
 499 778 521 800 549 800 c 0
 577 800 599 778 599 750 c 0x040080
386 750 m 0x0420
 386 722 364 700 336 700 c 0
 308 700 286 722 286 750 c 0
 286 778 308 800 336 800 c 0
 364 800 386 778 386 750 c 0x0420
279 750 m 0x0480
 279 722 257 700 229 700 c 0
 201 700 179 722 179 750 c 0
 179 778 201 800 229 800 c 0
 257 800 279 778 279 750 c 0x0480
EndSplineSet
EndChar

StartChar: seven
Encoding: 55 55 48
Width: 600
VWidth: 0
UnlinkRmOvrlpSave: 1
Flags: W
HStem: 200 100<98.4375 181.562> 283 100<170.438 253.562> 367 100<241.438 324.562> 450 100<312.438 395.562> 533 100<383.438 466.562> 700 100<152.438 235.562 259.438 342.562 365.438 448.562>
VStem: 90 100<208.438 291.562> 144 100<708.438 791.562> 162 100<291.438 374.562> 233 100<375.438 458.562> 251 100<708.438 791.562> 304 100<458.438 541.562> 357 100<708.438 791.562> 375 100<541.438 624.562> 446 100<625.438 702.575> 464 100<714.425 791.562>
LayerCount: 2
Back
Fore
SplineSet
190 250 m 0x86
 190 222 168 200 140 200 c 0
 112 200 90 222 90 250 c 0
 90 278 112 300 140 300 c 0
 168 300 190 278 190 250 c 0x86
262 333 m 0x4480
 262 305 240 283 212 283 c 0
 184 283 162 305 162 333 c 0
 162 361 184 383 212 383 c 0
 240 383 262 361 262 333 c 0x4480
333 417 m 0x2440
 333 389 311 367 283 367 c 0
 255 367 233 389 233 417 c 0
 233 445 255 467 283 467 c 0
 311 467 333 445 333 417 c 0x2440
404 500 m 0x1410
 404 472 382 450 354 450 c 0
 326 450 304 472 304 500 c 0
 304 528 326 550 354 550 c 0
 382 550 404 528 404 500 c 0x1410
475 583 m 0x0c04
 475 555 453 533 425 533 c 0
 397 533 375 555 375 583 c 0
 375 611 397 633 425 633 c 0
 453 633 475 611 475 583 c 0x0c04
546 667 m 0x0402
 546 639 524 617 496 617 c 0
 468 617 446 639 446 667 c 0x0402
 446 689 460 707 479 714 c 1
 470 723 464 736 464 750 c 0
 464 778 486 800 514 800 c 0
 542 800 564 778 564 750 c 0x0401
 564 728 550 710 531 703 c 1
 540 694 546 681 546 667 c 0x0402
457 750 m 0x0408
 457 722 435 700 407 700 c 0
 379 700 357 722 357 750 c 0
 357 778 379 800 407 800 c 0
 435 800 457 778 457 750 c 0x0408
351 750 m 0x0420
 351 722 329 700 301 700 c 0
 273 700 251 722 251 750 c 0
 251 778 273 800 301 800 c 0
 329 800 351 778 351 750 c 0x0420
244 750 m 0x05
 244 722 222 700 194 700 c 0
 166 700 144 722 144 750 c 0
 144 778 166 800 194 800 c 0
 222 800 244 778 244 750 c 0x05
EndSplineSet
EndChar

StartChar: semicolon
Encoding: 59 59 49
Width: 600
VWidth: 0
UnlinkRmOvrlpSave: 1
Flags: W
HStem: 200 100<98.4375 181.562> 283 100<212 251.883> 617 100<187.438 270.562 338 376.562> 700 100<259.117 298>
VStem: 90 100<208.438 291.562> 126 100<383.424 452.575> 144 100<464.425 541.562> 161 100<291.438 366.576> 179 100<625.438 708.562> 232 100<375.438 452.575> 250 100<464.425 541.562 717.423 791.562> 285 100<625.438 699.577>
LayerCount: 2
Back
Fore
SplineSet
190 250 m 0x88
 190 222 168 200 140 200 c 0
 112 200 90 222 90 250 c 0
 90 278 112 300 140 300 c 0
 168 300 190 278 190 250 c 0x88
261 333 m 1x41
 261 305 239 283 211 283 c 0
 183 283 161 305 161 333 c 0x41
 161 346 166 358 174 367 c 1
 147 368 126 390 126 417 c 1x44
 126 439 140 457 159 464 c 1
 150 473 144 486 144 500 c 0
 144 528 166 550 194 550 c 0
 222 550 244 528 244 500 c 0x42
 244 478 229 460 210 453 c 1
 219 444 226 431 226 417 c 1x44
 226 404 220 392 212 383 c 1
 239 382 261 360 261 333 c 1x41
332 417 m 1x0040
 332 389 310 367 282 367 c 0
 254 367 232 389 232 417 c 0x0040
 232 439 246 457 265 464 c 1
 256 473 250 486 250 500 c 1
 250 528 272 550 300 550 c 0
 328 550 350 528 350 500 c 0x0020
 350 478 335 460 316 453 c 1
 325 444 332 431 332 417 c 1x0040
385 667 m 0x2010
 385 639 363 617 335 617 c 0
 307 617 285 639 285 667 c 0x2010
 285 680 290 691 298 700 c 1
 271 701 250 723 250 750 c 0
 250 778 272 800 300 800 c 0
 328 800 350 778 350 750 c 0x1020
 350 737 346 726 338 717 c 1
 365 716 385 694 385 667 c 0x2010
279 667 m 0x2080
 279 639 257 617 229 617 c 0
 201 617 179 639 179 667 c 0
 179 695 201 717 229 717 c 0
 257 717 279 695 279 667 c 0x2080
EndSplineSet
EndChar

StartChar: question
Encoding: 63 63 50
Width: 600
VWidth: 0
UnlinkRmOvrlpSave: 1
Flags: W
HStem: 200 100<169.438 252.562> 533 100<347.438 430.562> 617 100<98.4375 181.562 463 501.562> 700 100<169.438 252.562 276.438 359.562 384.117 423>
VStem: 90 100<625.438 708.562> 161 100<208.438 291.562 708.438 791.562> 197 100<375.438 452.575> 215 100<464.425 535.575> 232 100<547.425 624.562> 268 100<708.438 791.562> 339 100<541.438 624.562> 375 100<717.423 791.562> 410 100<625.438 699.577>
LayerCount: 2
Back
Fore
SplineSet
261 250 m 0x84
 261 222 239 200 211 200 c 0
 183 200 161 222 161 250 c 0
 161 278 183 300 211 300 c 0
 239 300 261 278 261 250 c 0x84
297 417 m 1xc2
 297 389 275 367 247 367 c 0
 219 367 197 389 197 417 c 0xc2
 197 439 211 457 230 464 c 1
 221 473 215 486 215 500 c 0xc1
 215 522 229 540 248 547 c 1
 239 556 232 569 232 583 c 0
 232 611 254 633 282 633 c 0
 310 633 332 611 332 583 c 0xc080
 332 561 318 543 299 536 c 1
 308 527 315 514 315 500 c 0xc1
 315 478 300 460 281 453 c 1
 290 444 297 431 297 417 c 1xc2
439 583 m 0xc020
 439 555 417 533 389 533 c 0
 361 533 339 555 339 583 c 0
 339 611 361 633 389 633 c 0
 417 633 439 611 439 583 c 0xc020
510 667 m 0xa008
 510 639 488 617 460 617 c 0
 432 617 410 639 410 667 c 0xa008
 410 680 415 691 423 700 c 1
 396 701 375 723 375 750 c 0
 375 778 397 800 425 800 c 0
 453 800 475 778 475 750 c 0x9010
 475 737 471 726 463 717 c 1
 490 716 510 694 510 667 c 0xa008
190 667 m 0xa8
 190 639 168 617 140 617 c 0
 112 617 90 639 90 667 c 0
 90 695 112 717 140 717 c 0
 168 717 190 695 190 667 c 0xa8
368 750 m 0x9040
 368 722 346 700 318 700 c 0
 290 700 268 722 268 750 c 0
 268 778 290 800 318 800 c 0
 346 800 368 778 368 750 c 0x9040
261 750 m 0x94
 261 722 239 700 211 700 c 0
 183 700 161 722 161 750 c 0
 161 778 183 800 211 800 c 0
 239 800 261 778 261 750 c 0x94
EndSplineSet
EndChar

StartChar: Agrave
Encoding: 192 192 51
Width: 600
VWidth: 0
UnlinkRmOvrlpSave: 1
Flags: W
HStem: 200 21G<126 154 446 474> 200 21G<126 154 446 474> 283 100<265 305.604 329.438 412.562> 367 100<188.117 228> 450 100<259.438 342.562> 533 100<330.117 369> 617 100<445 483.562> 700 100<366.117 405>
VStem: 90 100<208.438 285.575> 108 100<297.425 374.562> 179 100<383.424 458.562> 215 100<291.438 366.576> 251 100<458.438 541.562> 321 100<291.438 374.562 550.423 624.562> 357 100<467.423 532.577 717.423 791.562> 393 100<383.424 449.577 626.117 699.577> 410 100<208.438 285.575> 428 100<297.425 366.576>
LayerCount: 2
Back
Fore
SplineSet
510 250 m 0x200080
 510 222 488 200 460 200 c 0
 432 200 410 222 410 250 c 0xa00080
 410 272 424 290 443 297 c 1
 434 306 428 319 428 333 c 0xa00040
 428 346 433 358 441 367 c 1
 414 368 393 390 393 417 c 0x9001
 393 430 397 441 405 450 c 1
 378 451 357 473 357 500 c 0x0802
 357 513 361 524 369 533 c 1
 342 534 321 556 321 583 c 0
 321 611 343 633 371 633 c 0
 399 633 421 611 421 583 c 0x0404
 421 570 417 559 409 550 c 1
 436 549 457 527 457 500 c 0x0802
 457 487 452 476 444 467 c 1
 471 466 493 444 493 417 c 0x1001
 493 404 487 392 479 383 c 1
 506 382 528 360 528 333 c 0x200040
 528 311 514 293 495 286 c 1
 504 277 510 264 510 250 c 0x200080
190 250 m 0xa080
 190 222 168 200 140 200 c 0
 112 200 90 222 90 250 c 0xa080
 90 272 104 290 123 297 c 1
 114 306 108 319 108 333 c 0
 108 361 130 383 158 383 c 0
 186 383 208 361 208 333 c 0xa040
 208 311 194 293 175 286 c 1
 184 277 190 264 190 250 c 0xa080
421 333 m 0x2004
 421 305 399 283 371 283 c 0
 343 283 321 305 321 333 c 0
 321 361 343 383 371 383 c 0
 399 383 421 361 421 333 c 0x2004
315 333 m 0x2010
 315 305 293 283 265 283 c 0
 237 283 215 305 215 333 c 0x2010
 215 346 220 358 228 367 c 1
 201 367 179 390 179 417 c 0
 179 445 201 467 229 467 c 0
 257 467 279 445 279 417 c 0x1020
 279 404 273 392 265 383 c 1
 292 383 315 360 315 333 c 0x2010
351 500 m 0x0808
 351 472 329 450 301 450 c 0
 273 450 251 472 251 500 c 0
 251 528 273 550 301 550 c 0
 329 550 351 528 351 500 c 0x0808
492 667 m 0
 492 639 470 617 442 617 c 0x0202
 414 617 392 639 392 667 c 0
 392 680 397 691 405 700 c 1
 378 701 357 723 357 750 c 0
 357 778 379 800 407 800 c 0x0102
 435 800 457 778 457 750 c 0
 457 737 453 726 445 717 c 1x0202
 472 716 492 694 492 667 c 0
EndSplineSet
EndChar

StartChar: C
Encoding: 67 67 52
Width: 600
VWidth: 0
UnlinkRmOvrlpSave: 1
Flags: W
HStem: 200 100<177 215.883 240.438 323.562 347.438 430.562> 283 100<418.438 501.562> 617 100<534 572.562> 700 100<240.438 323.562 347.438 430.562 455.117 494>
VStem: 90 100<300.423 369.574> 108 100<380.426 452.575> 125 100<208.438 282.577 464.425 535.575> 143 100<547.425 619.574> 161 100<630.426 708.562> 232 100<208.438 291.562 708.438 791.562> 339 100<208.438 291.562 708.438 791.562> 410 100<291.438 374.562> 446 100<717.423 791.562> 481 100<625.438 699.577>
LayerCount: 2
Back
Fore
SplineSet
439 250 m 0x8020
 439 222 417 200 389 200 c 0
 361 200 339 222 339 250 c 0
 339 278 361 300 389 300 c 0
 417 300 439 278 439 250 c 0x8020
332 250 m 0x8040
 332 222 310 200 282 200 c 0
 254 200 232 222 232 250 c 0
 232 278 254 300 282 300 c 0
 310 300 332 278 332 250 c 0x8040
225 250 m 1xa2
 225 222 203 200 175 200 c 0
 147 200 125 222 125 250 c 0xa2
 125 263 129 274 137 283 c 1
 110 284 90 306 90 333 c 1x48
 90 355 104 373 124 380 c 1
 114 389 108 403 108 417 c 0x44
 108 439 122 457 141 464 c 1
 132 473 126 486 126 500 c 0
 126 522 140 540 159 547 c 1
 150 556 143 569 143 583 c 0x41
 143 605 157 623 177 630 c 1
 167 639 161 653 161 667 c 0
 161 695 183 717 211 717 c 0
 239 717 261 695 261 667 c 0x6080
 261 645 247 627 227 620 c 1
 237 611 243 597 243 583 c 0x61
 243 561 229 543 210 536 c 1
 219 527 226 514 226 500 c 0
 226 478 211 460 192 453 c 1
 201 444 208 431 208 417 c 0x64
 208 395 194 377 174 370 c 1
 184 361 190 347 190 333 c 0x68
 190 320 185 309 177 300 c 1
 204 299 225 277 225 250 c 1xa2
510 333 m 0x4010
 510 305 488 283 460 283 c 0
 432 283 410 305 410 333 c 0
 410 361 432 383 460 383 c 0
 488 383 510 361 510 333 c 0x4010
581 667 m 0x2004
 581 639 559 617 531 617 c 0
 503 617 481 639 481 667 c 0x2004
 481 680 486 691 494 700 c 1
 467 701 446 723 446 750 c 0
 446 778 468 800 496 800 c 0
 524 800 546 778 546 750 c 0x1008
 546 737 542 726 534 717 c 1
 561 716 581 694 581 667 c 0x2004
439 750 m 0x1020
 439 722 417 700 389 700 c 0
 361 700 339 722 339 750 c 0
 339 778 361 800 389 800 c 0
 417 800 439 778 439 750 c 0x1020
332 750 m 0x1040
 332 722 310 700 282 700 c 0
 254 700 232 722 232 750 c 0
 232 778 254 800 282 800 c 0
 310 800 332 778 332 750 c 0x1040
EndSplineSet
EndChar

StartChar: Adieresis
Encoding: 196 196 53
Width: 600
VWidth: 0
UnlinkRmOvrlpSave: 1
Flags: W
HStem: 200 21G<126 154 446 474> 200 21G<126 154 446 474> 367 100<284 323.883 347.438 430.562> 450 100<206.117 245> 533 100<276.438 359.562> 617 100<348.117 388> 700 100<258.438 341.562 472.438 555.562>
VStem: 90 100<208.438 285.575> 108 100<297.425 369.574> 126 100<380.426 458.562> 197 100<467.423 541.562> 233 100<375.438 449.577> 250 100<708.438 791.562> 268 100<541.438 624.562> 339 100<375.438 458.562 633.424 708.562> 374 100<550.423 616.576> 410 100<208.438 285.575 467.423 532.577> 428 100<297.425 369.574> 446 100<380.426 449.577> 464 100<708.438 791.562>
LayerCount: 2
Back
Fore
SplineSet
510 250 m 0x200080
 510 222 488 200 460 200 c 0
 432 200 410 222 410 250 c 0xa00080
 410 272 424 290 443 297 c 1
 434 306 428 319 428 333 c 0xa00040
 428 355 442 373 462 380 c 1
 452 389 446 403 446 417 c 0
 446 430 450 441 458 450 c 1x900020
 431 451 411 473 411 500 c 1
 411 513 415 524 423 533 c 1
 396 534 374 556 374 583 c 1x0801
 374 596 380 608 388 617 c 1
 361 618 339 640 339 667 c 0
 339 695 361 717 389 717 c 0x0402
 417 717 439 695 439 667 c 0
 439 654 434 642 426 633 c 1x0802
 453 632 474 610 474 583 c 0
 474 570 470 559 462 550 c 1x1001
 489 549 511 527 511 500 c 1
 511 487 506 476 498 467 c 1
 525 466 546 444 546 417 c 1x200020
 546 395 532 377 512 370 c 1
 522 361 528 347 528 333 c 0x200040
 528 311 514 293 495 286 c 1
 504 277 510 264 510 250 c 0x200080
190 250 m 0xa1
 190 222 168 200 140 200 c 0
 112 200 90 222 90 250 c 0xa1
 90 272 104 290 123 297 c 1
 114 306 108 319 108 333 c 0xa080
 108 355 122 373 142 380 c 1
 132 389 126 403 126 417 c 0
 126 445 148 467 176 467 c 0
 204 467 226 445 226 417 c 0xa040
 226 395 212 377 192 370 c 1
 202 361 208 347 208 333 c 0xa080
 208 311 194 293 175 286 c 1
 184 277 190 264 190 250 c 0xa1
439 417 m 0x2002
 439 389 417 367 389 367 c 0
 361 367 339 389 339 417 c 0
 339 445 361 467 389 467 c 0
 417 467 439 445 439 417 c 0x2002
333 417 m 1x2010
 333 389 311 367 283 367 c 0
 255 367 233 389 233 417 c 0x2010
 233 430 237 441 245 450 c 1
 218 451 197 473 197 500 c 1
 197 528 219 550 247 550 c 0
 275 550 297 528 297 500 c 0x1020
 297 487 292 476 284 467 c 1
 311 466 333 444 333 417 c 1x2010
368 583 m 0x0804
 368 555 346 533 318 533 c 0
 290 533 268 555 268 583 c 0
 268 611 290 633 318 633 c 0
 346 633 368 611 368 583 c 0x0804
564 750 m 0x020010
 564 722 542 700 514 700 c 0
 486 700 464 722 464 750 c 0
 464 778 486 800 514 800 c 0
 542 800 564 778 564 750 c 0x020010
350 750 m 0x0208
 350 722 328 700 300 700 c 0
 272 700 250 722 250 750 c 0
 250 778 272 800 300 800 c 0
 328 800 350 778 350 750 c 0x0208
EndSplineSet
EndChar

StartChar: G
Encoding: 71 71 54
Width: 600
VWidth: 0
UnlinkRmOvrlpSave: 1
Flags: W
HStem: 200 100<177 215.883 240.438 323.562 347.438 430.562> 450 100<347.438 430.562> 617 100<534 572.562> 700 100<240.438 323.562 347.438 430.562 455.117 494>
VStem: 90 100<300.423 369.574> 108 100<380.426 452.575> 125 100<208.438 282.577 464.425 535.575> 143 100<547.425 619.574> 161 100<630.426 708.562> 232 100<208.438 291.562 708.438 791.562> 339 100<208.438 291.562 458.438 541.562 708.438 791.562> 410 100<291.438 369.574> 428 100<380.426 452.575> 446 100<464.425 541.562 717.423 791.562> 481 100<625.438 699.577>
LayerCount: 2
Back
Fore
SplineSet
439 250 m 0xc020
 439 222 417 200 389 200 c 0
 361 200 339 222 339 250 c 0
 339 278 361 300 389 300 c 0
 417 300 439 278 439 250 c 0xc020
332 250 m 0xc040
 332 222 310 200 282 200 c 0
 254 200 232 222 232 250 c 0
 232 278 254 300 282 300 c 0
 310 300 332 278 332 250 c 0xc040
225 250 m 1xe2
 225 222 203 200 175 200 c 0
 147 200 125 222 125 250 c 0xe2
 125 263 129 274 137 283 c 1
 110 284 90 306 90 333 c 1xe8
 90 355 104 373 124 380 c 1
 114 389 108 403 108 417 c 0xe4
 108 439 122 457 141 464 c 1
 132 473 126 486 126 500 c 0
 126 522 140 540 159 547 c 1
 150 556 143 569 143 583 c 0xe1
 143 605 157 623 177 630 c 1
 167 639 161 653 161 667 c 0
 161 695 183 717 211 717 c 0
 239 717 261 695 261 667 c 0xe080
 261 645 247 627 227 620 c 1
 237 611 243 597 243 583 c 0xe1
 243 561 229 543 210 536 c 1
 219 527 226 514 226 500 c 0
 226 478 211 460 192 453 c 1
 201 444 208 431 208 417 c 0xe4
 208 395 194 377 174 370 c 1
 184 361 190 347 190 333 c 0xe8
 190 320 185 309 177 300 c 1
 204 299 225 277 225 250 c 1xe2
510 333 m 0xc010
 510 305 488 283 460 283 c 0
 432 283 410 305 410 333 c 0xc010
 410 355 424 373 444 380 c 1
 434 389 428 403 428 417 c 0xc008
 428 439 442 457 461 464 c 1
 452 473 446 486 446 500 c 1
 446 528 468 550 496 550 c 0
 524 550 546 528 546 500 c 0xc004
 546 478 531 460 512 453 c 1
 521 444 528 431 528 417 c 1xc008
 528 395 514 377 494 370 c 1
 504 361 510 347 510 333 c 0xc010
439 500 m 0xc020
 439 472 417 450 389 450 c 0
 361 450 339 472 339 500 c 0
 339 528 361 550 389 550 c 0
 417 550 439 528 439 500 c 0xc020
581 667 m 0xe002
 581 639 559 617 531 617 c 0
 503 617 481 639 481 667 c 0xe002
 481 680 486 691 494 700 c 1
 467 701 446 723 446 750 c 0
 446 778 468 800 496 800 c 0
 524 800 546 778 546 750 c 0xd004
 546 737 542 726 534 717 c 1
 561 716 581 694 581 667 c 0xe002
439 750 m 0xd020
 439 722 417 700 389 700 c 0
 361 700 339 722 339 750 c 0
 339 778 361 800 389 800 c 0
 417 800 439 778 439 750 c 0xd020
332 750 m 0xd040
 332 722 310 700 282 700 c 0
 254 700 232 722 232 750 c 0
 232 778 254 800 282 800 c 0
 310 800 332 778 332 750 c 0xd040
EndSplineSet
EndChar

StartChar: Egrave
Encoding: 200 200 55
Width: 600
VWidth: 0
UnlinkRmOvrlpSave: 1
Flags: W
HStem: 200 100<205.438 288.562 311.438 394.562 418.438 501.562> 367 100<241.438 324.562 347.438 430.562> 533 100<276.438 359.562 489.438 572.562> 700 100<366.117 405>
VStem: 90 100<208.438 285.575> 108 100<297.425 369.574> 126 100<380.426 452.575> 144 100<464.425 535.575> 161 100<547.425 624.562> 197 100<208.438 291.562> 233 100<375.438 458.562> 268 100<541.438 624.562> 303 100<208.438 291.562> 339 100<375.438 458.562> 357 100<717.423 791.562> 374 100<541.438 619.574> 392 100<630.426 699.577> 410 100<208.438 291.562> 481 100<541.438 624.562>
LayerCount: 2
Back
Fore
SplineSet
510 250 m 0xf00040
 510 222 488 200 460 200 c 0
 432 200 410 222 410 250 c 0
 410 278 432 300 460 300 c 0
 488 300 510 278 510 250 c 0xf00040
403 250 m 0xf008
 403 222 381 200 353 200 c 0
 325 200 303 222 303 250 c 0
 303 278 325 300 353 300 c 0
 381 300 403 278 403 250 c 0xf008
297 250 m 0xf040
 297 222 275 200 247 200 c 0
 219 200 197 222 197 250 c 0
 197 278 219 300 247 300 c 0
 275 300 297 278 297 250 c 0xf040
190 250 m 0xf8
 190 222 168 200 140 200 c 0
 112 200 90 222 90 250 c 0xf8
 90 272 104 290 123 297 c 1
 114 306 108 319 108 333 c 0xf4
 108 355 122 373 142 380 c 1
 132 389 126 403 126 417 c 0xf2
 126 439 140 457 159 464 c 1
 150 473 144 486 144 500 c 0xf1
 144 522 158 540 177 547 c 1
 168 556 161 569 161 583 c 0
 161 611 183 633 211 633 c 0
 239 633 261 611 261 583 c 0xf080
 261 561 247 543 228 536 c 1
 237 527 244 514 244 500 c 0xf1
 244 478 229 460 210 453 c 1
 219 444 226 431 226 417 c 0xf2
 226 395 212 377 192 370 c 1
 202 361 208 347 208 333 c 0xf4
 208 311 194 293 175 286 c 1
 184 277 190 264 190 250 c 0xf8
439 417 m 0xf004
 439 389 417 367 389 367 c 0
 361 367 339 389 339 417 c 0
 339 445 361 467 389 467 c 0
 417 467 439 445 439 417 c 0xf004
333 417 m 0xf020
 333 389 311 367 283 367 c 0
 255 367 233 389 233 417 c 0
 233 445 255 467 283 467 c 0
 311 467 333 445 333 417 c 0xf020
581 583 m 0xf00020
 581 555 559 533 531 533 c 0
 503 533 481 555 481 583 c 0
 481 611 503 633 531 633 c 0
 559 633 581 611 581 583 c 0xf00020
474 583 m 1xf001
 474 555 452 533 424 533 c 0
 396 533 374 555 374 583 c 0xf001
 374 605 388 623 408 630 c 1
 398 639 392 653 392 667 c 1xf00080
 392 680 397 691 405 700 c 1
 378 701 357 723 357 750 c 0
 357 778 379 800 407 800 c 0
 435 800 457 778 457 750 c 0xf002
 457 737 453 726 445 717 c 1
 472 716 492 694 492 667 c 0xf00080
 492 645 478 627 458 620 c 1
 468 611 474 597 474 583 c 1xf001
368 583 m 0xf010
 368 555 346 533 318 533 c 0
 290 533 268 555 268 583 c 0
 268 611 290 633 318 633 c 0
 346 633 368 611 368 583 c 0xf010
EndSplineSet
EndChar

StartChar: K
Encoding: 75 75 56
Width: 600
VWidth: 0
UnlinkRmOvrlpSave: 1
Flags: W
HStem: 200 100<462 500.883> 200 21G<126 154> 533 100<277.117 316> 617 100<400.438 483.562> 700 100<525.438 608.562>
VStem: 90 100<208.438 285.575> 108 100<297.425 369.574> 126 100<380.426 452.575> 144 100<464.425 535.575> 161 100<547.425 619.574> 179 100<630.426 702.575> 197 100<714.425 791.562> 268 100<550.423 624.562> 304 100<467.423 532.577> 339 100<383.424 449.577> 375 100<300.423 366.576> 392 100<625.438 708.562> 410 100<208.438 282.577> 517 100<708.438 791.562>
LayerCount: 2
Back
Fore
SplineSet
510 250 m 1xa00060
 510 222 488 200 460 200 c 0
 432 200 410 222 410 250 c 0x400060
 410 263 414 274 422 283 c 1
 395 284 375 306 375 333 c 1x400120
 375 346 380 358 388 367 c 1
 361 367 339 390 339 417 c 0x400220
 339 430 343 441 351 450 c 1
 324 451 304 473 304 500 c 1x400420
 304 513 308 524 316 533 c 1
 289 534 268 556 268 583 c 0
 268 611 290 633 318 633 c 0
 346 633 368 611 368 583 c 0x600820
 368 570 364 559 356 550 c 1
 383 549 404 527 404 500 c 0x600420
 404 487 399 476 391 467 c 1
 418 466 439 444 439 417 c 1x600220
 439 404 433 392 425 383 c 1
 452 383 475 360 475 333 c 0x600120
 475 320 470 309 462 300 c 1
 489 299 510 277 510 250 c 1xa00060
190 250 m 0x4c0020
 190 222 168 200 140 200 c 0
 112 200 90 222 90 250 c 0x4c0020
 90 272 104 290 123 297 c 1
 114 306 108 319 108 333 c 0x4a0020
 108 355 122 373 142 380 c 1
 132 389 126 403 126 417 c 0x490020
 126 439 140 457 159 464 c 1
 150 473 144 486 144 500 c 0x488020
 144 522 158 540 177 547 c 1
 168 556 161 569 161 583 c 0x484020
 161 605 175 623 195 630 c 1
 185 639 179 653 179 667 c 0x482020
 179 689 193 707 212 714 c 1
 203 723 197 736 197 750 c 0
 197 778 219 800 247 800 c 0
 275 800 297 778 297 750 c 0x481020
 297 728 283 710 264 703 c 1
 273 694 279 681 279 667 c 0x482020
 279 645 265 627 245 620 c 1
 255 611 261 597 261 583 c 0x484020
 261 561 247 543 228 536 c 1
 237 527 244 514 244 500 c 0x488020
 244 478 229 460 210 453 c 1
 219 444 226 431 226 417 c 0x490020
 226 395 212 377 192 370 c 1
 202 361 208 347 208 333 c 0x4a0020
 208 311 194 293 175 286 c 1
 184 277 190 264 190 250 c 0x4c0020
492 667 m 0x1000a0
 492 639 470 617 442 617 c 0
 414 617 392 639 392 667 c 0
 392 695 414 717 442 717 c 0
 470 717 492 695 492 667 c 0x1000a0
617 750 m 0
 617 722 595 700 567 700 c 0
 539 700 517 722 517 750 c 0
 517 778 539 800 567 800 c 0x080020
 595 800 617 778 617 750 c 0
EndSplineSet
EndChar

StartChar: O
Encoding: 79 79 57
Width: 600
VWidth: 0
UnlinkRmOvrlpSave: 1
Flags: W
HStem: 200 100<177 215.883 240.438 323.562 347.438 430.562> 700 100<240.438 323.562 347.438 430.562 455.117 494>
VStem: 90 100<300.423 369.574> 108 100<380.426 452.575> 125 100<208.438 282.577 464.425 535.575> 143 100<547.425 619.574> 161 100<630.426 708.562> 232 100<208.438 291.562 708.438 791.562> 339 100<208.438 291.562 708.438 791.562> 410 100<291.438 369.574> 428 100<380.426 452.575> 446 100<464.425 535.575 717.423 791.562> 463 100<547.425 619.574> 481 100<630.426 699.577>
LayerCount: 2
Back
Fore
SplineSet
439 250 m 0xc080
 439 222 417 200 389 200 c 0
 361 200 339 222 339 250 c 0
 339 278 361 300 389 300 c 0
 417 300 439 278 439 250 c 0xc080
332 250 m 0xc1
 332 222 310 200 282 200 c 0
 254 200 232 222 232 250 c 0
 232 278 254 300 282 300 c 0
 310 300 332 278 332 250 c 0xc1
225 250 m 1xc8
 225 222 203 200 175 200 c 0
 147 200 125 222 125 250 c 0xc8
 125 263 129 274 137 283 c 1
 110 284 90 306 90 333 c 1xe0
 90 355 104 373 124 380 c 1
 114 389 108 403 108 417 c 0xd0
 108 439 122 457 141 464 c 1
 132 473 126 486 126 500 c 0
 126 522 140 540 159 547 c 1
 150 556 143 569 143 583 c 0xc4
 143 605 157 623 177 630 c 1
 167 639 161 653 161 667 c 0
 161 695 183 717 211 717 c 0
 239 717 261 695 261 667 c 0xc2
 261 645 247 627 227 620 c 1
 237 611 243 597 243 583 c 0xc4
 243 561 229 543 210 536 c 1
 219 527 226 514 226 500 c 0
 226 478 211 460 192 453 c 1
 201 444 208 431 208 417 c 0xd0
 208 395 194 377 174 370 c 1
 184 361 190 347 190 333 c 0xe0
 190 320 185 309 177 300 c 1
 204 299 225 277 225 250 c 1xc8
510 333 m 0xc040
 510 305 488 283 460 283 c 0
 432 283 410 305 410 333 c 0xc040
 410 355 424 373 444 380 c 1
 434 389 428 403 428 417 c 0xc020
 428 439 442 457 461 464 c 1
 452 473 446 486 446 500 c 1xc010
 446 522 460 540 479 547 c 1
 470 556 463 569 463 583 c 0xc008
 463 605 477 623 497 630 c 1
 487 639 481 653 481 667 c 1xc004
 481 680 486 691 494 700 c 1
 467 701 446 723 446 750 c 0
 446 778 468 800 496 800 c 0
 524 800 546 778 546 750 c 0xc010
 546 737 542 726 534 717 c 1
 561 716 581 694 581 667 c 0xc004
 581 645 567 627 547 620 c 1
 557 611 563 597 563 583 c 1xc008
 563 561 549 543 530 536 c 1
 539 527 546 514 546 500 c 0xc010
 546 478 531 460 512 453 c 1
 521 444 528 431 528 417 c 1xc020
 528 395 514 377 494 370 c 1
 504 361 510 347 510 333 c 0xc040
439 750 m 0xc080
 439 722 417 700 389 700 c 0
 361 700 339 722 339 750 c 0
 339 778 361 800 389 800 c 0
 417 800 439 778 439 750 c 0xc080
332 750 m 0xc1
 332 722 310 700 282 700 c 0
 254 700 232 722 232 750 c 0
 232 778 254 800 282 800 c 0
 310 800 332 778 332 750 c 0xc1
EndSplineSet
EndChar

StartChar: S
Encoding: 83 83 58
Width: 600
VWidth: 0
UnlinkRmOvrlpSave: 1
Flags: W
HStem: 200 100<177 215.883 240.438 323.562 347.438 430.562> 283 100<98.4375 137> 450 100<231 269.883 294.438 377.562 401.438 440> 617 100<534 572.562> 700 100<240.438 323.562 347.438 430.562 455.117 494>
VStem: 90 100<300.423 374.562> 125 100<208.438 282.577> 143 100<550.423 619.574> 161 100<630.426 708.562> 179 100<458.438 532.577> 232 100<208.438 291.562 708.438 791.562> 286 100<458.438 541.562> 339 100<208.438 291.562 708.438 791.562> 393 100<467.423 541.562> 410 100<291.438 369.574> 428 100<380.426 449.577> 446 100<717.423 791.562> 481 100<625.438 699.577>
LayerCount: 2
Back
Fore
SplineSet
439 250 m 0xa008
 439 222 417 200 389 200 c 0
 361 200 339 222 339 250 c 0
 339 278 361 300 389 300 c 0
 417 300 439 278 439 250 c 0xa008
332 250 m 0xa020
 332 222 310 200 282 200 c 0
 254 200 232 222 232 250 c 0
 232 278 254 300 282 300 c 0
 310 300 332 278 332 250 c 0xa020
225 250 m 1xa2
 225 222 203 200 175 200 c 0
 147 200 125 222 125 250 c 0xa2
 125 263 129 274 137 283 c 1
 110 284 90 306 90 333 c 1
 90 361 112 383 140 383 c 0
 168 383 190 361 190 333 c 0x64
 190 320 185 309 177 300 c 1
 204 299 225 277 225 250 c 1xa2
510 333 m 0x6002
 510 305 488 283 460 283 c 0
 432 283 410 305 410 333 c 0x6002
 410 355 424 373 444 380 c 1
 434 389 428 403 428 417 c 0x6001
 428 430 432 441 440 450 c 1
 413 451 393 473 393 500 c 1
 393 528 415 550 443 550 c 0
 471 550 493 528 493 500 c 0x6004
 493 487 488 476 480 467 c 1
 507 466 528 444 528 417 c 1x6001
 528 395 514 377 494 370 c 1
 504 361 510 347 510 333 c 0x6002
386 500 m 0x2010
 386 472 364 450 336 450 c 0
 308 450 286 472 286 500 c 0
 286 528 308 550 336 550 c 0
 364 550 386 528 386 500 c 0x2010
279 500 m 1x3040
 279 472 257 450 229 450 c 0
 201 450 179 472 179 500 c 0x3040
 179 513 183 524 191 533 c 1
 164 534 143 556 143 583 c 1x31
 143 605 157 623 177 630 c 1
 167 639 161 653 161 667 c 0
 161 695 183 717 211 717 c 0
 239 717 261 695 261 667 c 0x3080
 261 645 247 627 227 620 c 1
 237 611 243 597 243 583 c 0x31
 243 570 239 559 231 550 c 1
 258 549 279 527 279 500 c 1x3040
581 667 m 0x300040
 581 639 559 617 531 617 c 0
 503 617 481 639 481 667 c 0x300040
 481 680 486 691 494 700 c 1
 467 701 446 723 446 750 c 0
 446 778 468 800 496 800 c 0
 524 800 546 778 546 750 c 0x280080
 546 737 542 726 534 717 c 1
 561 716 581 694 581 667 c 0x300040
439 750 m 0x2808
 439 722 417 700 389 700 c 0
 361 700 339 722 339 750 c 0
 339 778 361 800 389 800 c 0
 417 800 439 778 439 750 c 0x2808
332 750 m 0x2820
 332 722 310 700 282 700 c 0
 254 700 232 722 232 750 c 0
 232 778 254 800 282 800 c 0
 310 800 332 778 332 750 c 0x2820
EndSplineSet
EndChar

StartChar: W
Encoding: 87 87 59
Width: 600
VWidth: 0
UnlinkRmOvrlpSave: 1
Flags: W
HStem: 200 100<177 215.883 390 429.883> 283 100<205.438 288.562> 780 20G<215 243 535 563>
VStem: 90 100<300.423 369.574> 108 100<380.426 452.575> 125 100<208.438 282.577 464.425 535.575> 143 100<547.425 619.574> 161 100<630.426 702.575> 179 100<714.425 791.562> 197 100<291.438 374.562> 268 100<383.424 452.575> 286 100<464.425 541.562> 303 100<300.423 366.576> 339 100<208.438 282.577> 410 100<291.438 369.574> 428 100<380.426 452.575> 446 100<464.425 535.575> 463 100<547.425 619.574> 481 100<630.426 702.575> 499 100<714.425 791.562>
LayerCount: 2
Back
Fore
SplineSet
439 250 m 0xa004
 439 222 417 200 389 200 c 0
 361 200 339 222 339 250 c 0xa004
 339 263 343 274 351 283 c 1
 324 284 303 306 303 333 c 0x6008
 303 346 308 358 316 367 c 1
 289 368 268 390 268 417 c 0x6020
 268 439 282 457 301 464 c 1
 292 473 286 486 286 500 c 0
 286 528 308 550 336 550 c 0
 364 550 386 528 386 500 c 0x6010
 386 478 371 460 352 453 c 1
 361 444 368 431 368 417 c 1x6020
 368 404 362 392 354 383 c 1
 381 382 403 360 403 333 c 0x6008
 403 320 398 309 390 300 c 1
 417 299 439 277 439 250 c 0xa004
225 250 m 1xa4
 225 222 203 200 175 200 c 0
 147 200 125 222 125 250 c 0xa4
 125 263 129 274 137 283 c 1
 110 284 90 306 90 333 c 1x70
 90 355 104 373 124 380 c 1
 114 389 108 403 108 417 c 0x68
 108 439 122 457 141 464 c 1
 132 473 126 486 126 500 c 0
 126 522 140 540 159 547 c 1
 150 556 143 569 143 583 c 0x62
 143 605 157 623 177 630 c 1
 167 639 161 653 161 667 c 0x61
 161 689 175 707 194 714 c 1
 185 723 179 736 179 750 c 0
 179 778 201 800 229 800 c 0
 257 800 279 778 279 750 c 0x6080
 279 728 265 710 246 703 c 1
 255 694 261 681 261 667 c 0x61
 261 645 247 627 227 620 c 1
 237 611 243 597 243 583 c 0x62
 243 561 229 543 210 536 c 1
 219 527 226 514 226 500 c 0
 226 478 211 460 192 453 c 1
 201 444 208 431 208 417 c 0x68
 208 395 194 377 174 370 c 1
 184 361 190 347 190 333 c 0x70
 190 320 185 309 177 300 c 1
 204 299 225 277 225 250 c 1xa4
510 333 m 0x6002
 510 305 488 283 460 283 c 0
 432 283 410 305 410 333 c 0x6002
 410 355 424 373 444 380 c 1
 434 389 428 403 428 417 c 0x6001
 428 439 442 457 461 464 c 1
 452 473 446 486 446 500 c 1x600080
 446 522 460 540 479 547 c 1
 470 556 463 569 463 583 c 0x600040
 463 605 477 623 497 630 c 1
 487 639 481 653 481 667 c 1x600020
 481 689 495 707 514 714 c 1
 505 723 499 736 499 750 c 0
 499 778 521 800 549 800 c 0
 577 800 599 778 599 750 c 0x600010
 599 728 585 710 566 703 c 1
 575 694 581 681 581 667 c 0x600020
 581 645 567 627 547 620 c 1
 557 611 563 597 563 583 c 1x600040
 563 561 549 543 530 536 c 1
 539 527 546 514 546 500 c 0x600080
 546 478 531 460 512 453 c 1
 521 444 528 431 528 417 c 1x6001
 528 395 514 377 494 370 c 1
 504 361 510 347 510 333 c 0x6002
297 333 m 0x6040
 297 305 275 283 247 283 c 0
 219 283 197 305 197 333 c 0
 197 361 219 383 247 383 c 0
 275 383 297 361 297 333 c 0x6040
EndSplineSet
EndChar

StartChar: Oslash
Encoding: 216 216 60
Width: 600
VWidth: 0
UnlinkRmOvrlpSave: 1
Flags: W
HStem: 200 100<212 251.883 275.438 358.562> 283 100<347.438 430.562> 367 100<205.438 288.562> 450 100<276.438 359.562> 533 100<346.438 429.562> 617 100<204.438 287.562> 700 100<276.438 359.562 383.117 423>
VStem: 90 100<383.424 452.575> 108 100<464.425 535.575> 125 100<300.423 366.576 547.425 624.562> 161 100<208.438 282.577> 197 100<375.438 458.562 626.117 707.883> 268 100<209.117 290.883 458.438 541.562 708.438 791.562> 339 100<291.438 374.562 542.117 623.883> 374 100<717.423 791.562> 410 100<375.438 452.575 633.424 699.577> 428 100<464.425 535.575> 445 100<547.425 616.576>
LayerCount: 2
Back
Fore
SplineSet
367 250 m 0x80
 367 222 345 200 317 200 c 0
 289 200 267 222 267 250 c 0
 267 278 289 300 317 300 c 0
 345 300 367 278 367 250 c 0x80
261 250 m 0x8020
 261 222 239 200 211 200 c 0
 183 200 161 222 161 250 c 0x8020
 161 263 165 274 173 283 c 1
 146 284 125 306 125 333 c 0x4040
 125 346 130 358 138 367 c 1
 111 368 90 390 90 417 c 1x21
 90 439 104 457 123 464 c 1
 114 473 108 486 108 500 c 0x2080
 108 522 122 540 141 547 c 1
 132 556 125 569 125 583 c 0
 125 611 147 633 175 633 c 0
 203 633 225 611 225 583 c 0x2840
 225 561 211 543 192 536 c 1
 201 527 208 514 208 500 c 0x2880
 208 478 193 460 174 453 c 1
 183 444 190 431 190 417 c 0x29
 190 404 184 392 176 383 c 1
 203 382 225 360 225 333 c 1x4840
 225 320 220 309 212 300 c 1
 239 299 261 277 261 250 c 0x8020
439 333 m 0x4004
 439 305 417 283 389 283 c 0
 361 283 339 305 339 333 c 0
 339 361 361 383 389 383 c 0
 417 383 439 361 439 333 c 0x4004
510 417 m 1x0801
 510 389 488 367 460 367 c 0
 432 367 410 389 410 417 c 0x2801
 410 439 424 457 443 464 c 1
 434 473 428 486 428 500 c 1x280080
 428 522 442 540 461 547 c 1
 452 556 445 569 445 583 c 0x280040
 445 596 451 608 459 617 c 1
 432 618 410 640 410 667 c 0x2401
 410 680 415 691 423 700 c 1
 396 701 374 723 374 750 c 0
 374 778 396 800 424 800 c 0
 452 800 474 778 474 750 c 0x0202
 474 737 470 726 462 717 c 1
 489 716 510 694 510 667 c 0x0401
 510 654 505 642 497 633 c 1
 524 632 545 610 545 583 c 0x080040
 545 561 531 543 512 536 c 1
 521 527 528 514 528 500 c 0x080080
 528 478 513 460 494 453 c 1
 503 444 510 431 510 417 c 1x0801
297 417 m 0x2010
 297 389 275 367 247 367 c 0
 219 367 197 389 197 417 c 0
 197 445 219 467 247 467 c 0
 275 467 297 445 297 417 c 0x2010
368 500 m 0x1008
 368 472 346 450 318 450 c 0
 290 450 268 472 268 500 c 0
 268 528 290 550 318 550 c 0
 346 550 368 528 368 500 c 0x1008
438 583 m 0
 438 555 416 533 388 533 c 0
 360 533 338 555 338 583 c 0
 338 611 360 633 388 633 c 0x08
 416 633 438 611 438 583 c 0
296 667 m 0
 296 639 274 617 246 617 c 0
 218 617 196 639 196 667 c 0
 196 695 218 717 246 717 c 0x04
 274 717 296 695 296 667 c 0
368 750 m 0x0208
 368 722 346 700 318 700 c 0
 290 700 268 722 268 750 c 0
 268 778 290 800 318 800 c 0
 346 800 368 778 368 750 c 0x0208
EndSplineSet
EndChar

StartChar: bracketleft
Encoding: 91 91 61
Width: 600
VWidth: 0
UnlinkRmOvrlpSave: 1
Flags: W
HStem: 200 100<205.438 288.562 312.438 395.562> 700 100<312.438 395.562 419.438 502.562>
VStem: 90 100<208.438 285.575> 108 100<297.425 369.574> 126 100<380.426 452.575> 144 100<464.425 535.575> 161 100<547.425 619.574> 179 100<630.426 702.575> 197 100<208.438 291.562 714.425 791.562> 304 100<208.438 291.562 708.438 791.562> 411 100<708.438 791.562>
LayerCount: 2
Back
Fore
SplineSet
404 250 m 0xc060
 404 222 382 200 354 200 c 0
 326 200 304 222 304 250 c 0
 304 278 326 300 354 300 c 0
 382 300 404 278 404 250 c 0xc060
297 250 m 0xc0e0
 297 222 275 200 247 200 c 0
 219 200 197 222 197 250 c 0
 197 278 219 300 247 300 c 0
 275 300 297 278 297 250 c 0xc0e0
190 250 m 0xe060
 190 222 168 200 140 200 c 0
 112 200 90 222 90 250 c 0xe060
 90 272 104 290 123 297 c 1
 114 306 108 319 108 333 c 0xd060
 108 355 122 373 142 380 c 1
 132 389 126 403 126 417 c 0xc860
 126 439 140 457 159 464 c 1
 150 473 144 486 144 500 c 0xc460
 144 522 158 540 177 547 c 1
 168 556 161 569 161 583 c 0xc260
 161 605 175 623 195 630 c 1
 185 639 179 653 179 667 c 0xc160
 179 689 193 707 212 714 c 1
 203 723 197 736 197 750 c 0
 197 778 219 800 247 800 c 0
 275 800 297 778 297 750 c 0xc0e0
 297 728 283 710 264 703 c 1
 273 694 279 681 279 667 c 0xc160
 279 645 265 627 245 620 c 1
 255 611 261 597 261 583 c 0xc260
 261 561 247 543 228 536 c 1
 237 527 244 514 244 500 c 0xc460
 244 478 229 460 210 453 c 1
 219 444 226 431 226 417 c 0xc860
 226 395 212 377 192 370 c 1
 202 361 208 347 208 333 c 0xd060
 208 311 194 293 175 286 c 1
 184 277 190 264 190 250 c 0xe060
511 750 m 0
 511 722 489 700 461 700 c 0
 433 700 411 722 411 750 c 0
 411 778 433 800 461 800 c 0
 489 800 511 778 511 750 c 0
404 750 m 0
 404 722 382 700 354 700 c 0
 326 700 304 722 304 750 c 0
 304 778 326 800 354 800 c 0
 382 800 404 778 404 750 c 0
EndSplineSet
EndChar

StartChar: Udieresis
Encoding: 220 220 62
Width: 600
VWidth: 0
UnlinkRmOvrlpSave: 1
Flags: W
HStem: 200 100<177 215.883 240.438 323.562 347.438 430.562> 613 20G<179 207 499 527> 700 100<187.438 270.562 507.438 590.562>
VStem: 90 100<300.423 369.574> 108 100<380.426 452.575> 125 100<208.438 282.577 464.425 535.575> 143 100<547.425 624.562> 179 100<708.438 791.562> 232 100<208.438 291.562> 339 100<208.438 291.562> 410 100<291.438 369.574> 428 100<380.426 452.575> 446 100<464.425 535.575> 463 100<547.425 624.562> 499 100<708.438 791.562>
LayerCount: 2
Back
Fore
SplineSet
439 250 m 0xe040
 439 222 417 200 389 200 c 0
 361 200 339 222 339 250 c 0
 339 278 361 300 389 300 c 0
 417 300 439 278 439 250 c 0xe040
332 250 m 0xe080
 332 222 310 200 282 200 c 0
 254 200 232 222 232 250 c 0
 232 278 254 300 282 300 c 0
 310 300 332 278 332 250 c 0xe080
225 250 m 1xe4
 225 222 203 200 175 200 c 0
 147 200 125 222 125 250 c 0xe4
 125 263 129 274 137 283 c 1
 110 284 90 306 90 333 c 1xf0
 90 355 104 373 124 380 c 1
 114 389 108 403 108 417 c 0xe8
 108 439 122 457 141 464 c 1
 132 473 126 486 126 500 c 0
 126 522 140 540 159 547 c 1
 150 556 143 569 143 583 c 0
 143 611 165 633 193 633 c 0
 221 633 243 611 243 583 c 0xe2
 243 561 229 543 210 536 c 1
 219 527 226 514 226 500 c 0
 226 478 211 460 192 453 c 1
 201 444 208 431 208 417 c 0xe8
 208 395 194 377 174 370 c 1
 184 361 190 347 190 333 c 0xf0
 190 320 185 309 177 300 c 1
 204 299 225 277 225 250 c 1xe4
510 333 m 0xe020
 510 305 488 283 460 283 c 0
 432 283 410 305 410 333 c 0xe020
 410 355 424 373 444 380 c 1
 434 389 428 403 428 417 c 0xe010
 428 439 442 457 461 464 c 1
 452 473 446 486 446 500 c 1xe008
 446 522 460 540 479 547 c 1
 470 556 463 569 463 583 c 0
 463 611 485 633 513 633 c 0
 541 633 563 611 563 583 c 0xe004
 563 561 549 543 530 536 c 1
 539 527 546 514 546 500 c 0xe008
 546 478 531 460 512 453 c 1
 521 444 528 431 528 417 c 1xe010
 528 395 514 377 494 370 c 1
 504 361 510 347 510 333 c 0xe020
599 750 m 0xe002
 599 722 577 700 549 700 c 0
 521 700 499 722 499 750 c 0
 499 778 521 800 549 800 c 0
 577 800 599 778 599 750 c 0xe002
279 750 m 0xe1
 279 722 257 700 229 700 c 0
 201 700 179 722 179 750 c 0
 179 778 201 800 229 800 c 0
 257 800 279 778 279 750 c 0xe1
EndSplineSet
EndChar

StartChar: underscore
Encoding: 95 95 63
Width: 600
VWidth: 0
UnlinkRmOvrlpSave: 1
Flags: W
HStem: 200 100<98.4375 181.562 205.438 288.562 311.438 394.562 418.438 501.562>
VStem: 90 100<208.438 291.562> 197 100<208.438 291.562> 303 100<208.438 291.562> 410 100<208.438 291.562>
LayerCount: 2
Back
Fore
SplineSet
510 250 m 0
 510 222 488 200 460 200 c 0
 432 200 410 222 410 250 c 0
 410 278 432 300 460 300 c 0
 488 300 510 278 510 250 c 0
403 250 m 0
 403 222 381 200 353 200 c 0
 325 200 303 222 303 250 c 0
 303 278 325 300 353 300 c 0
 381 300 403 278 403 250 c 0
297 250 m 0
 297 222 275 200 247 200 c 0
 219 200 197 222 197 250 c 0
 197 278 219 300 247 300 c 0
 275 300 297 278 297 250 c 0
190 250 m 0
 190 222 168 200 140 200 c 0
 112 200 90 222 90 250 c 0
 90 278 112 300 140 300 c 0
 168 300 190 278 190 250 c 0
EndSplineSet
EndChar

StartChar: glyph64
Encoding: 567 567 64
Width: 600
VWidth: 0
UnlinkRmOvrlpSave: 1
Flags: W
HStem: 200 100<177 215.883 240.438 323.562 347.438 430.562> 283 100<98.4375 137> 613 20G<499 527>
VStem: 90 100<300.423 374.562> 125 100<208.438 282.577> 232 100<208.438 291.562> 339 100<208.438 291.562> 410 100<291.438 369.574> 428 100<380.426 452.575> 446 100<464.425 535.575> 463 100<547.425 624.562>
LayerCount: 2
Back
Fore
SplineSet
439 250 m 0xa6
 439 222 417 200 389 200 c 0
 361 200 339 222 339 250 c 0
 339 278 361 300 389 300 c 0
 417 300 439 278 439 250 c 0xa6
332 250 m 0
 332 222 310 200 282 200 c 0
 254 200 232 222 232 250 c 0
 232 278 254 300 282 300 c 0
 310 300 332 278 332 250 c 0
225 250 m 1xac
 225 222 203 200 175 200 c 0
 147 200 125 222 125 250 c 0xac
 125 263 129 274 137 283 c 1
 110 284 90 306 90 333 c 1
 90 361 112 383 140 383 c 0
 168 383 190 361 190 333 c 0x74
 190 320 185 309 177 300 c 1
 204 299 225 277 225 250 c 1xac
510 333 m 0x65
 510 305 488 283 460 283 c 0
 432 283 410 305 410 333 c 0x65
 410 355 424 373 444 380 c 1
 434 389 428 403 428 417 c 0x6480
 428 439 442 457 461 464 c 1
 452 473 446 486 446 500 c 1x6440
 446 522 460 540 479 547 c 1
 470 556 463 569 463 583 c 0
 463 611 485 633 513 633 c 0
 541 633 563 611 563 583 c 0x6420
 563 561 549 543 530 536 c 1
 539 527 546 514 546 500 c 0x6440
 546 478 531 460 512 453 c 1
 521 444 528 431 528 417 c 1x6480
 528 395 514 377 494 370 c 1
 504 361 510 347 510 333 c 0x65
EndSplineSet
EndChar

StartChar: agrave
Encoding: 224 224 65
Width: 600
VWidth: 0
UnlinkRmOvrlpSave: 1
Flags: W
HStem: 200 100<177 215.883 240.438 323.562 347.438 430.562> 283 100<98.4375 137 461 500.883> 367 100<169.438 252.562 276.438 359.562 384.117 423> 450 100<498 536.883> 533 100<204.438 287.562 311.438 394.562> 700 100<348.117 387>
VStem: 90 100<300.423 374.562> 125 100<208.438 282.577> 161 100<375.438 458.562> 196 100<541.438 624.562> 232 100<208.438 291.562> 268 100<375.438 458.562> 303 100<541.438 624.562> 339 100<208.438 291.562 717.423 791.562> 375 100<383.424 458.562 633.424 699.577> 410 100<291.438 366.576 550.423 616.576> 446 100<458.438 532.577>
LayerCount: 2
Back
Fore
SplineSet
439 250 m 0x8404
 439 222 417 200 389 200 c 0
 361 200 339 222 339 250 c 0
 339 278 361 300 389 300 c 0
 417 300 439 278 439 250 c 0x8404
332 250 m 0x8420
 332 222 310 200 282 200 c 0
 254 200 232 222 232 250 c 0
 232 278 254 300 282 300 c 0
 310 300 332 278 332 250 c 0x8420
225 250 m 1x85
 225 222 203 200 175 200 c 0
 147 200 125 222 125 250 c 0x85
 125 263 129 274 137 283 c 1
 110 284 90 306 90 333 c 1
 90 361 112 383 140 383 c 0
 168 383 190 361 190 333 c 0x46
 190 320 185 309 177 300 c 1
 204 299 225 277 225 250 c 1x85
510 333 m 0x4401
 510 305 488 283 460 283 c 0
 432 283 410 305 410 333 c 0x4401
 410 346 415 358 423 367 c 1
 396 368 375 390 375 417 c 0
 375 445 397 467 425 467 c 0
 453 467 475 445 475 417 c 0x2402
 475 404 469 392 461 383 c 1
 488 382 510 360 510 333 c 0x4401
368 417 m 0x2410
 368 389 346 367 318 367 c 0
 290 367 268 389 268 417 c 0
 268 445 290 467 318 467 c 0
 346 467 368 445 368 417 c 0x2410
261 417 m 0x2480
 261 389 239 367 211 367 c 0
 183 367 161 389 161 417 c 0
 161 445 183 467 211 467 c 0
 239 467 261 445 261 417 c 0x2480
546 500 m 0x140080
 546 472 524 450 496 450 c 0
 468 450 446 472 446 500 c 0x140080
 446 513 450 524 458 533 c 1
 431 534 410 556 410 583 c 0x0c01
 410 596 416 608 424 617 c 1
 397 617 374 640 374 667 c 0
 374 680 379 691 387 700 c 1
 360 701 339 723 339 750 c 0
 339 778 361 800 389 800 c 0
 417 800 439 778 439 750 c 0x0c04
 439 737 435 726 427 717 c 1
 454 716 474 694 474 667 c 0
 474 654 469 642 461 633 c 1
 488 633 510 610 510 583 c 0x0c01
 510 570 506 559 498 550 c 1
 525 549 546 527 546 500 c 0x140080
403 583 m 0x0c08
 403 555 381 533 353 533 c 0
 325 533 303 555 303 583 c 0
 303 611 325 633 353 633 c 0
 381 633 403 611 403 583 c 0x0c08
296 583 m 0x0c40
 296 555 274 533 246 533 c 0
 218 533 196 555 196 583 c 0
 196 611 218 633 246 633 c 0
 274 633 296 611 296 583 c 0x0c40
EndSplineSet
EndChar

StartChar: c
Encoding: 99 99 66
Width: 600
VWidth: 0
UnlinkRmOvrlpSave: 1
Flags: W
HStem: 200 100<177 215.883 240.438 323.562 347.438 430.562> 450 100<498 536.883> 533 100<204.438 287.562 311.438 394.562 419.117 458>
VStem: 90 100<300.423 369.574> 108 100<380.426 452.575> 125 100<208.438 282.577 464.425 540.883> 196 100<541.438 624.562> 232 100<208.438 291.562> 303 100<541.438 624.562> 339 100<208.438 291.562> 410 100<550.423 624.562> 446 100<458.438 532.577>
LayerCount: 2
Back
Fore
SplineSet
439 250 m 0x8040
 439 222 417 200 389 200 c 0
 361 200 339 222 339 250 c 0
 339 278 361 300 389 300 c 0
 417 300 439 278 439 250 c 0x8040
332 250 m 0x81
 332 222 310 200 282 200 c 0
 254 200 232 222 232 250 c 0
 232 278 254 300 282 300 c 0
 310 300 332 278 332 250 c 0x81
225 250 m 1xc4
 225 222 203 200 175 200 c 0
 147 200 125 222 125 250 c 0xc4
 125 263 129 274 137 283 c 1
 110 284 90 306 90 333 c 1xd0
 90 355 104 373 124 380 c 1
 114 389 108 403 108 417 c 0
 108 439 122 457 141 464 c 1
 132 473 126 486 126 500 c 0
 126 528 148 550 176 550 c 0
 204 550 226 528 226 500 c 0
 226 478 211 460 192 453 c 1
 201 444 208 431 208 417 c 0xc8
 208 395 194 377 174 370 c 1
 184 361 190 347 190 333 c 0xd0
 190 320 185 309 177 300 c 1
 204 299 225 277 225 250 c 1xc4
546 500 m 0xc010
 546 472 524 450 496 450 c 0
 468 450 446 472 446 500 c 0xc010
 446 513 450 524 458 533 c 1
 431 534 410 556 410 583 c 0
 410 611 432 633 460 633 c 0
 488 633 510 611 510 583 c 0xa020
 510 570 506 559 498 550 c 1
 525 549 546 527 546 500 c 0xc010
403 583 m 0xa080
 403 555 381 533 353 533 c 0
 325 533 303 555 303 583 c 0
 303 611 325 633 353 633 c 0
 381 633 403 611 403 583 c 0xa080
296 583 m 0xa2
 296 555 274 533 246 533 c 0
 218 533 196 555 196 583 c 0
 196 611 218 633 246 633 c 0
 274 633 296 611 296 583 c 0xa2
EndSplineSet
EndChar

StartChar: adieresis
Encoding: 228 228 67
Width: 600
VWidth: 0
UnlinkRmOvrlpSave: 1
Flags: W
HStem: 200 100<177 215.883 240.438 323.562 347.438 430.562> 283 100<98.4375 137 461 500.883> 367 100<169.438 252.562 276.438 359.562 384.117 423> 450 100<498 536.883> 533 100<204.438 287.562 311.438 394.562 419.117 458> 700 100<240.438 323.562 454.438 537.562>
VStem: 90 100<300.423 374.562> 125 100<208.438 282.577> 161 100<375.438 458.562> 196 100<541.438 624.562> 232 100<208.438 291.562 708.438 791.562> 268 100<375.438 458.562> 303 100<541.438 624.562> 339 100<208.438 291.562> 375 100<383.424 458.562> 410 100<291.438 366.576 550.423 624.562> 446 100<458.438 532.577 708.438 791.562>
LayerCount: 2
Back
Fore
SplineSet
439 250 m 0x8404
 439 222 417 200 389 200 c 0
 361 200 339 222 339 250 c 0
 339 278 361 300 389 300 c 0
 417 300 439 278 439 250 c 0x8404
332 250 m 0x8420
 332 222 310 200 282 200 c 0
 254 200 232 222 232 250 c 0
 232 278 254 300 282 300 c 0
 310 300 332 278 332 250 c 0x8420
225 250 m 1x85
 225 222 203 200 175 200 c 0
 147 200 125 222 125 250 c 0x85
 125 263 129 274 137 283 c 1
 110 284 90 306 90 333 c 1
 90 361 112 383 140 383 c 0
 168 383 190 361 190 333 c 0x46
 190 320 185 309 177 300 c 1
 204 299 225 277 225 250 c 1x85
510 333 m 0x4401
 510 305 488 283 460 283 c 0
 432 283 410 305 410 333 c 0x4401
 410 346 415 358 423 367 c 1
 396 368 375 390 375 417 c 0
 375 445 397 467 425 467 c 0
 453 467 475 445 475 417 c 0x2402
 475 404 469 392 461 383 c 1
 488 382 510 360 510 333 c 0x4401
368 417 m 0x2410
 368 389 346 367 318 367 c 0
 290 367 268 389 268 417 c 0
 268 445 290 467 318 467 c 0
 346 467 368 445 368 417 c 0x2410
261 417 m 0x2480
 261 389 239 367 211 367 c 0
 183 367 161 389 161 417 c 0
 161 445 183 467 211 467 c 0
 239 467 261 445 261 417 c 0x2480
546 500 m 0x140080
 546 472 524 450 496 450 c 0
 468 450 446 472 446 500 c 0x140080
 446 513 450 524 458 533 c 1
 431 534 410 556 410 583 c 0
 410 611 432 633 460 633 c 0
 488 633 510 611 510 583 c 0x0c01
 510 570 506 559 498 550 c 1
 525 549 546 527 546 500 c 0x140080
403 583 m 0x0c08
 403 555 381 533 353 533 c 0
 325 533 303 555 303 583 c 0
 303 611 325 633 353 633 c 0
 381 633 403 611 403 583 c 0x0c08
296 583 m 0x0c40
 296 555 274 533 246 533 c 0
 218 533 196 555 196 583 c 0
 196 611 218 633 246 633 c 0
 274 633 296 611 296 583 c 0x0c40
546 750 m 0x040080
 546 722 524 700 496 700 c 0
 468 700 446 722 446 750 c 0
 446 778 468 800 496 800 c 0
 524 800 546 778 546 750 c 0x040080
332 750 m 0x0420
 332 722 310 700 282 700 c 0
 254 700 232 722 232 750 c 0
 232 778 254 800 282 800 c 0
 310 800 332 778 332 750 c 0x0420
EndSplineSet
EndChar

StartChar: g
Encoding: 103 103 68
Width: 600
VWidth: 0
UnlinkRmOvrlpSave: 1
Flags: W
HStem: 200 100<98.4375 181.562 205.438 288.562 311.438 394.562> 367 100<231 269.883 294.438 377.562 402.117 441> 450 100<152.438 191 516 554.883> 533 100<222.438 305.562 329.438 412.562 437.117 476> 617 100<507.438 590.562>
VStem: 90 100<208.438 291.562> 144 100<467.423 541.562> 179 100<375.438 449.577> 197 100<208.438 291.562> 214 100<541.438 624.562> 286 100<375.438 458.562> 303 100<208.438 291.562> 321 100<541.438 624.562> 393 100<383.424 458.562> 410 100<208.438 285.575> 428 100<297.425 366.576 550.423 624.562> 464 100<458.438 532.577> 499 100<625.438 708.562>
LayerCount: 2
Back
Fore
SplineSet
510 250 m 0xc002
 510 222 488 200 460 200 c 0
 432 200 410 222 410 250 c 0xc002
 410 272 424 290 443 297 c 1
 434 306 428 319 428 333 c 0xc001
 428 346 433 358 441 367 c 1
 414 368 393 390 393 417 c 0
 393 445 415 467 443 467 c 0
 471 467 493 445 493 417 c 0xc004
 493 404 487 392 479 383 c 1
 506 382 528 360 528 333 c 0xc001
 528 311 514 293 495 286 c 1
 504 277 510 264 510 250 c 0xc002
403 250 m 0x8010
 403 222 381 200 353 200 c 0
 325 200 303 222 303 250 c 0
 303 278 325 300 353 300 c 0
 381 300 403 278 403 250 c 0x8010
297 250 m 0x8080
 297 222 275 200 247 200 c 0
 219 200 197 222 197 250 c 0
 197 278 219 300 247 300 c 0
 275 300 297 278 297 250 c 0x8080
190 250 m 0x84
 190 222 168 200 140 200 c 0
 112 200 90 222 90 250 c 0
 90 278 112 300 140 300 c 0
 168 300 190 278 190 250 c 0x84
386 417 m 0xc020
 386 389 364 367 336 367 c 0
 308 367 286 389 286 417 c 0
 286 445 308 467 336 467 c 0
 364 467 386 445 386 417 c 0xc020
279 417 m 1xc1
 279 389 257 367 229 367 c 0
 201 367 179 389 179 417 c 0xc1
 179 430 183 441 191 450 c 1
 164 451 144 473 144 500 c 1
 144 528 166 550 194 550 c 0
 222 550 244 528 244 500 c 0xa2
 244 487 239 476 231 467 c 1
 258 466 279 444 279 417 c 1xc1
564 500 m 0xa00080
 564 472 542 450 514 450 c 0
 486 450 464 472 464 500 c 0xa00080
 464 513 468 524 476 533 c 1
 449 534 428 556 428 583 c 0
 428 611 450 633 478 633 c 0
 506 633 528 611 528 583 c 0x9001
 528 570 524 559 516 550 c 1
 543 549 564 527 564 500 c 0xa00080
421 583 m 0x9008
 421 555 399 533 371 533 c 0
 343 533 321 555 321 583 c 0
 321 611 343 633 371 633 c 0
 399 633 421 611 421 583 c 0x9008
314 583 m 0x9040
 314 555 292 533 264 533 c 0
 236 533 214 555 214 583 c 0
 214 611 236 633 264 633 c 0
 292 633 314 611 314 583 c 0x9040
599 667 m 0x880040
 599 639 577 617 549 617 c 0
 521 617 499 639 499 667 c 0
 499 695 521 717 549 717 c 0
 577 717 599 695 599 667 c 0x880040
EndSplineSet
EndChar

StartChar: egrave
Encoding: 232 232 69
Width: 600
VWidth: 0
UnlinkRmOvrlpSave: 1
Flags: W
HStem: 200 100<177 215.883 240.438 323.562 347.438 430.562> 367 100<223.438 306.562 329.438 412.562> 533 100<204.438 287.562 311.438 394.562> 700 100<348.117 387>
VStem: 90 100<300.423 369.574> 108 100<380.426 452.575> 125 100<208.438 282.577 464.425 540.883> 196 100<541.438 624.562> 215 100<375.438 458.562> 232 100<208.438 291.562> 303 100<541.438 624.562> 321 100<375.438 458.562> 339 100<208.438 291.562 717.423 791.562> 374 100<633.424 699.577> 410 100<550.423 616.576> 428 100<375.438 452.575> 446 100<464.425 532.577>
LayerCount: 2
Back
Fore
SplineSet
439 250 m 0xf008
 439 222 417 200 389 200 c 0
 361 200 339 222 339 250 c 0
 339 278 361 300 389 300 c 0
 417 300 439 278 439 250 c 0xf008
332 250 m 0xf040
 332 222 310 200 282 200 c 0
 254 200 232 222 232 250 c 0
 232 278 254 300 282 300 c 0
 310 300 332 278 332 250 c 0xf040
225 250 m 1xf2
 225 222 203 200 175 200 c 0
 147 200 125 222 125 250 c 0xf2
 125 263 129 274 137 283 c 1
 110 284 90 306 90 333 c 1xf8
 90 355 104 373 124 380 c 1
 114 389 108 403 108 417 c 0
 108 439 122 457 141 464 c 1
 132 473 126 486 126 500 c 0
 126 528 148 550 176 550 c 0
 204 550 226 528 226 500 c 0
 226 478 211 460 192 453 c 1
 201 444 208 431 208 417 c 0xf4
 208 395 194 377 174 370 c 1
 184 361 190 347 190 333 c 0xf8
 190 320 185 309 177 300 c 1
 204 299 225 277 225 250 c 1xf2
528 417 m 1xf001
 528 389 506 367 478 367 c 0
 450 367 428 389 428 417 c 0xf001
 428 439 442 457 461 464 c 1
 452 473 446 486 446 500 c 1xf00080
 446 513 450 524 458 533 c 1
 431 534 410 556 410 583 c 0xf002
 410 596 416 608 424 617 c 1
 397 617 374 640 374 667 c 0xf004
 374 680 379 691 387 700 c 1
 360 701 339 723 339 750 c 0
 339 778 361 800 389 800 c 0
 417 800 439 778 439 750 c 0xf008
 439 737 435 726 427 717 c 1
 454 716 474 694 474 667 c 0xf004
 474 654 469 642 461 633 c 1
 488 633 510 610 510 583 c 0xf002
 510 570 506 559 498 550 c 1
 525 549 546 527 546 500 c 0xf00080
 546 478 531 460 512 453 c 1
 521 444 528 431 528 417 c 1xf001
421 417 m 0xf010
 421 389 399 367 371 367 c 0
 343 367 321 389 321 417 c 0
 321 445 343 467 371 467 c 0
 399 467 421 445 421 417 c 0xf010
315 417 m 0xf080
 315 389 293 367 265 367 c 0
 237 367 215 389 215 417 c 0
 215 445 237 467 265 467 c 0
 293 467 315 445 315 417 c 0xf080
403 583 m 0xf020
 403 555 381 533 353 533 c 0
 325 533 303 555 303 583 c 0
 303 611 325 633 353 633 c 0
 381 633 403 611 403 583 c 0xf020
296 583 m 0xf1
 296 555 274 533 246 533 c 0
 218 533 196 555 196 583 c 0
 196 611 218 633 246 633 c 0
 274 633 296 611 296 583 c 0xf1
EndSplineSet
EndChar

StartChar: k
Encoding: 107 107 70
Width: 600
VWidth: 0
UnlinkRmOvrlpSave: 1
Flags: W
HStem: 200 100<418.438 501.562> 200 21G<126 154> 283 100<329.438 412.562> 367 100<241.438 324.562> 450 100<312.438 395.562> 533 100<382.438 465.562> 780 20G<233 261>
VStem: 90 100<208.438 285.575> 108 100<297.425 369.574> 126 100<380.426 452.575> 144 100<464.425 535.575> 161 100<547.425 619.574> 179 100<630.426 702.575> 197 100<714.425 791.562> 233 100<375.438 458.562> 304 100<458.438 541.562> 321 100<291.438 374.562> 374 100<541.438 624.562> 410 100<208.438 291.562>
LayerCount: 2
Back
Fore
SplineSet
510 250 m 0x820020
 510 222 488 200 460 200 c 0
 432 200 410 222 410 250 c 0
 410 278 432 300 460 300 c 0
 488 300 510 278 510 250 c 0x820020
190 250 m 0x43
 190 222 168 200 140 200 c 0
 112 200 90 222 90 250 c 0x43
 90 272 104 290 123 297 c 1
 114 306 108 319 108 333 c 0x4280
 108 355 122 373 142 380 c 1
 132 389 126 403 126 417 c 0x4240
 126 439 140 457 159 464 c 1
 150 473 144 486 144 500 c 0x4220
 144 522 158 540 177 547 c 1
 168 556 161 569 161 583 c 0x4210
 161 605 175 623 195 630 c 1
 185 639 179 653 179 667 c 0x4208
 179 689 193 707 212 714 c 1
 203 723 197 736 197 750 c 0
 197 778 219 800 247 800 c 0
 275 800 297 778 297 750 c 0x4204
 297 728 283 710 264 703 c 1
 273 694 279 681 279 667 c 0x4208
 279 645 265 627 245 620 c 1
 255 611 261 597 261 583 c 0x4210
 261 561 247 543 228 536 c 1
 237 527 244 514 244 500 c 0x4220
 244 478 229 460 210 453 c 1
 219 444 226 431 226 417 c 0x4240
 226 395 212 377 192 370 c 1
 202 361 208 347 208 333 c 0x4280
 208 311 194 293 175 286 c 1
 184 277 190 264 190 250 c 0x43
421 333 m 0x220080
 421 305 399 283 371 283 c 0
 343 283 321 305 321 333 c 0
 321 361 343 383 371 383 c 0
 399 383 421 361 421 333 c 0x220080
333 417 m 0x1202
 333 389 311 367 283 367 c 0
 255 367 233 389 233 417 c 0
 233 445 255 467 283 467 c 0
 311 467 333 445 333 417 c 0x1202
404 500 m 0x0a01
 404 472 382 450 354 450 c 0
 326 450 304 472 304 500 c 0
 304 528 326 550 354 550 c 0
 382 550 404 528 404 500 c 0x0a01
474 583 m 0x060040
 474 555 452 533 424 533 c 0
 396 533 374 555 374 583 c 0
 374 611 396 633 424 633 c 0
 452 633 474 611 474 583 c 0x060040
EndSplineSet
EndChar

StartChar: o
Encoding: 111 111 71
Width: 600
VWidth: 0
UnlinkRmOvrlpSave: 1
Flags: W
HStem: 200 100<177 215.883 240.438 323.562 347.438 430.562> 533 100<204.438 287.562 311.438 394.562 419.117 458>
VStem: 90 100<300.423 369.574> 108 100<380.426 452.575> 125 100<208.438 282.577 464.425 540.883> 196 100<541.438 624.562> 232 100<208.438 291.562> 303 100<541.438 624.562> 339 100<208.438 291.562> 410 100<291.438 369.574 550.423 624.562> 428 100<380.426 452.575> 446 100<464.425 532.577>
LayerCount: 2
Back
Fore
SplineSet
439 250 m 0xc080
 439 222 417 200 389 200 c 0
 361 200 339 222 339 250 c 0
 339 278 361 300 389 300 c 0
 417 300 439 278 439 250 c 0xc080
332 250 m 0xc2
 332 222 310 200 282 200 c 0
 254 200 232 222 232 250 c 0
 232 278 254 300 282 300 c 0
 310 300 332 278 332 250 c 0xc2
225 250 m 1xc8
 225 222 203 200 175 200 c 0
 147 200 125 222 125 250 c 0xc8
 125 263 129 274 137 283 c 1
 110 284 90 306 90 333 c 1xe0
 90 355 104 373 124 380 c 1
 114 389 108 403 108 417 c 0
 108 439 122 457 141 464 c 1
 132 473 126 486 126 500 c 0
 126 528 148 550 176 550 c 0
 204 550 226 528 226 500 c 0
 226 478 211 460 192 453 c 1
 201 444 208 431 208 417 c 0xd0
 208 395 194 377 174 370 c 1
 184 361 190 347 190 333 c 0xe0
 190 320 185 309 177 300 c 1
 204 299 225 277 225 250 c 1xc8
510 333 m 0xc040
 510 305 488 283 460 283 c 0
 432 283 410 305 410 333 c 0xc040
 410 355 424 373 444 380 c 1
 434 389 428 403 428 417 c 0xc020
 428 439 442 457 461 464 c 1
 452 473 446 486 446 500 c 1xc010
 446 513 450 524 458 533 c 1
 431 534 410 556 410 583 c 0
 410 611 432 633 460 633 c 0
 488 633 510 611 510 583 c 0xc040
 510 570 506 559 498 550 c 1
 525 549 546 527 546 500 c 0xc010
 546 478 531 460 512 453 c 1
 521 444 528 431 528 417 c 1xc020
 528 395 514 377 494 370 c 1
 504 361 510 347 510 333 c 0xc040
403 583 m 0xc1
 403 555 381 533 353 533 c 0
 325 533 303 555 303 583 c 0
 303 611 325 633 353 633 c 0
 381 633 403 611 403 583 c 0xc1
296 583 m 0xc4
 296 555 274 533 246 533 c 0
 218 533 196 555 196 583 c 0
 196 611 218 633 246 633 c 0
 274 633 296 611 296 583 c 0xc4
EndSplineSet
EndChar

StartChar: s
Encoding: 115 115 72
Width: 600
VWidth: 0
UnlinkRmOvrlpSave: 1
Flags: W
HStem: 200 100<98.4375 181.562 205.438 288.562 312.438 395.562> 283 100<426 465.883> 367 100<178 216.883 241.438 324.562 349.117 388> 450 100<99.4375 138> 533 100<169.438 252.562 276.438 359.562 383.438 466.562>
VStem: 90 100<208.438 291.562 467.423 540.883> 126 100<375.438 449.577> 161 100<541.438 624.562> 197 100<208.438 291.562> 233 100<375.438 458.562> 268 100<541.438 624.562> 304 100<208.438 291.562> 340 100<383.424 458.562> 375 100<291.438 366.576 541.438 624.562>
LayerCount: 2
Back
Fore
SplineSet
404 250 m 0x8010
 404 222 382 200 354 200 c 0
 326 200 304 222 304 250 c 0
 304 278 326 300 354 300 c 0
 382 300 404 278 404 250 c 0x8010
297 250 m 0x8080
 297 222 275 200 247 200 c 0
 219 200 197 222 197 250 c 0
 197 278 219 300 247 300 c 0
 275 300 297 278 297 250 c 0x8080
190 250 m 0x84
 190 222 168 200 140 200 c 0
 112 200 90 222 90 250 c 0
 90 278 112 300 140 300 c 0
 168 300 190 278 190 250 c 0x84
475 333 m 0x4004
 475 305 453 283 425 283 c 0
 397 283 375 305 375 333 c 0x4004
 375 346 380 358 388 367 c 1
 361 368 340 390 340 417 c 0
 340 445 362 467 390 467 c 0
 418 467 440 445 440 417 c 0x2008
 440 404 434 392 426 383 c 1
 453 382 475 360 475 333 c 0x4004
333 417 m 0x2040
 333 389 311 367 283 367 c 0
 255 367 233 389 233 417 c 0
 233 445 255 467 283 467 c 0
 311 467 333 445 333 417 c 0x2040
226 417 m 1x22
 226 389 204 367 176 367 c 0x22
 148 367 126 389 126 417 c 0
 126 430 130 441 138 450 c 1
 111 451 91 473 91 500 c 1
 91 528 113 550 141 550 c 0x12
 169 550 191 528 191 500 c 0
 191 487 186 476 178 467 c 1
 205 466 226 444 226 417 c 1x22
475 583 m 0x0804
 475 555 453 533 425 533 c 0
 397 533 375 555 375 583 c 0
 375 611 397 633 425 633 c 0
 453 633 475 611 475 583 c 0x0804
368 583 m 0x0820
 368 555 346 533 318 533 c 0
 290 533 268 555 268 583 c 0
 268 611 290 633 318 633 c 0
 346 633 368 611 368 583 c 0x0820
261 583 m 0x09
 261 555 239 533 211 533 c 0
 183 533 161 555 161 583 c 0
 161 611 183 633 211 633 c 0
 239 633 261 611 261 583 c 0x09
EndSplineSet
EndChar

StartChar: glyph73
Encoding: 373 373 73
Width: 600
VWidth: 0
UnlinkRmOvrlpSave: 1
Flags: W
HStem: 200 100<177 215.883 390 429.883> 283 100<205.438 288.562> 367 100<277.117 316> 617 100<222.438 305.562 480 518.883> 700 100<294.438 377.562 401.117 441>
VStem: 90 100<300.423 369.574> 108 100<380.426 452.575> 125 100<208.438 282.577 464.425 540.883> 197 100<291.438 374.562> 214 100<625.438 708.562> 268 100<383.424 458.562> 286 100<708.438 791.562> 303 100<300.423 366.576> 339 100<208.438 282.577> 392 100<717.423 791.562> 410 100<291.438 369.574> 428 100<380.426 452.575 625.438 699.577> 446 100<464.425 541.562>
LayerCount: 2
Back
Fore
SplineSet
439 250 m 0x8004
 439 222 417 200 389 200 c 0
 361 200 339 222 339 250 c 0x8004
 339 263 343 274 351 283 c 1
 324 284 303 306 303 333 c 0x4008
 303 346 308 358 316 367 c 1
 289 368 268 390 268 417 c 0
 268 445 290 467 318 467 c 0
 346 467 368 445 368 417 c 0x2020
 368 404 362 392 354 383 c 1
 381 382 403 360 403 333 c 0x4008
 403 320 398 309 390 300 c 1
 417 299 439 277 439 250 c 0x8004
225 250 m 1x81
 225 222 203 200 175 200 c 0
 147 200 125 222 125 250 c 0x81
 125 263 129 274 137 283 c 1
 110 284 90 306 90 333 c 1x44
 90 355 104 373 124 380 c 1
 114 389 108 403 108 417 c 0
 108 439 122 457 141 464 c 1
 132 473 126 486 126 500 c 0
 126 528 148 550 176 550 c 0
 204 550 226 528 226 500 c 0
 226 478 211 460 192 453 c 1
 201 444 208 431 208 417 c 0x42
 208 395 194 377 174 370 c 1
 184 361 190 347 190 333 c 0x44
 190 320 185 309 177 300 c 1
 204 299 225 277 225 250 c 1x81
510 333 m 0x4001
 510 305 488 283 460 283 c 0
 432 283 410 305 410 333 c 0x4001
 410 355 424 373 444 380 c 1
 434 389 428 403 428 417 c 0x400080
 428 439 442 457 461 464 c 1
 452 473 446 486 446 500 c 1
 446 528 468 550 496 550 c 0
 524 550 546 528 546 500 c 0x400040
 546 478 531 460 512 453 c 1
 521 444 528 431 528 417 c 1x400080
 528 395 514 377 494 370 c 1
 504 361 510 347 510 333 c 0x4001
297 333 m 0x4080
 297 305 275 283 247 283 c 0
 219 283 197 305 197 333 c 0
 197 361 219 383 247 383 c 0
 275 383 297 361 297 333 c 0x4080
528 667 m 0x100080
 528 639 506 617 478 617 c 0
 450 617 428 639 428 667 c 0x100080
 428 680 433 691 441 700 c 1
 414 701 392 723 392 750 c 0
 392 778 414 800 442 800 c 0
 470 800 492 778 492 750 c 0x0802
 492 737 488 726 480 717 c 1
 507 716 528 694 528 667 c 0x100080
314 667 m 0x1040
 314 639 292 617 264 617 c 0
 236 617 214 639 214 667 c 0
 214 695 236 717 264 717 c 0
 292 717 314 695 314 667 c 0x1040
386 750 m 0x0810
 386 722 364 700 336 700 c 0
 308 700 286 722 286 750 c 0
 286 778 308 800 336 800 c 0
 364 800 386 778 386 750 c 0x0810
EndSplineSet
EndChar

StartChar: w
Encoding: 119 119 74
Width: 600
VWidth: 0
UnlinkRmOvrlpSave: 1
Flags: W
HStem: 200 100<177 215.883 390 429.883> 283 100<205.438 288.562> 367 100<277.117 316> 613 20G<179 207 499 527>
VStem: 90 100<300.423 369.574> 108 100<380.426 452.575> 125 100<208.438 282.577 464.425 535.575> 143 100<547.425 624.562> 197 100<291.438 374.562> 268 100<383.424 458.562> 303 100<300.423 366.576> 339 100<208.438 282.577> 410 100<291.438 369.574> 428 100<380.426 452.575> 446 100<464.425 535.575> 463 100<547.425 624.562>
LayerCount: 2
Back
Fore
SplineSet
439 250 m 0x9010
 439 222 417 200 389 200 c 0
 361 200 339 222 339 250 c 0x9010
 339 263 343 274 351 283 c 1
 324 284 303 306 303 333 c 0x5020
 303 346 308 358 316 367 c 1
 289 368 268 390 268 417 c 0
 268 445 290 467 318 467 c 0
 346 467 368 445 368 417 c 0x3040
 368 404 362 392 354 383 c 1
 381 382 403 360 403 333 c 0x5020
 403 320 398 309 390 300 c 1
 417 299 439 277 439 250 c 0x9010
225 250 m 1x92
 225 222 203 200 175 200 c 0
 147 200 125 222 125 250 c 0x92
 125 263 129 274 137 283 c 1
 110 284 90 306 90 333 c 1x58
 90 355 104 373 124 380 c 1
 114 389 108 403 108 417 c 0x54
 108 439 122 457 141 464 c 1
 132 473 126 486 126 500 c 0
 126 522 140 540 159 547 c 1
 150 556 143 569 143 583 c 0
 143 611 165 633 193 633 c 0
 221 633 243 611 243 583 c 0x51
 243 561 229 543 210 536 c 1
 219 527 226 514 226 500 c 0
 226 478 211 460 192 453 c 1
 201 444 208 431 208 417 c 0x54
 208 395 194 377 174 370 c 1
 184 361 190 347 190 333 c 0x58
 190 320 185 309 177 300 c 1
 204 299 225 277 225 250 c 1x92
510 333 m 0x5008
 510 305 488 283 460 283 c 0
 432 283 410 305 410 333 c 0x5008
 410 355 424 373 444 380 c 1
 434 389 428 403 428 417 c 0x5004
 428 439 442 457 461 464 c 1
 452 473 446 486 446 500 c 1x5002
 446 522 460 540 479 547 c 1
 470 556 463 569 463 583 c 0
 463 611 485 633 513 633 c 0
 541 633 563 611 563 583 c 0x5001
 563 561 549 543 530 536 c 1
 539 527 546 514 546 500 c 0x5002
 546 478 531 460 512 453 c 1
 521 444 528 431 528 417 c 1x5004
 528 395 514 377 494 370 c 1
 504 361 510 347 510 333 c 0x5008
297 333 m 0x5080
 297 305 275 283 247 283 c 0
 219 283 197 305 197 333 c 0
 197 361 219 383 247 383 c 0
 275 383 297 361 297 333 c 0x5080
EndSplineSet
EndChar

StartChar: oslash
Encoding: 248 248 75
Width: 600
VWidth: 0
UnlinkRmOvrlpSave: 1
Flags: W
HStem: 200 100<177 215.883 284 322.883 347.438 430.562> 283 100<205.438 244> 367 100<276.438 359.562> 450 100<391 429.883> 533 100<204.438 287.562 312.117 351 419.117 458>
VStem: 90 100<300.423 369.574> 108 100<380.426 452.575> 125 100<208.438 282.577 464.425 540.883> 197 100<300.423 374.562 542.117 623.883> 232 100<208.438 282.577> 268 100<375.438 458.562> 303 100<550.423 624.562> 339 100<208.438 291.562 458.438 532.577> 410 100<291.438 369.574 550.423 624.562> 428 100<380.426 452.575> 446 100<464.425 532.577>
LayerCount: 2
Back
Fore
SplineSet
439 250 m 0x8008
 439 222 417 200 389 200 c 0
 361 200 339 222 339 250 c 0
 339 278 361 300 389 300 c 0
 417 300 439 278 439 250 c 0x8008
332 250 m 1x8040
 332 222 310 200 282 200 c 0
 254 200 232 222 232 250 c 0x8040
 232 263 236 274 244 283 c 1
 217 284 197 306 197 333 c 1
 197 361 219 383 247 383 c 0
 275 383 297 361 297 333 c 0x4080
 297 320 292 309 284 300 c 1
 311 299 332 277 332 250 c 1x8040
225 250 m 1x91
 225 222 203 200 175 200 c 0
 147 200 125 222 125 250 c 0x91
 125 263 129 274 137 283 c 1
 110 284 90 306 90 333 c 1x44
 90 355 104 373 124 380 c 1
 114 389 108 403 108 417 c 0
 108 439 122 457 141 464 c 1
 132 473 126 486 126 500 c 0
 126 528 148 550 176 550 c 0
 204 550 226 528 226 500 c 0
 226 478 211 460 192 453 c 1
 201 444 208 431 208 417 c 0x52
 208 395 194 377 174 370 c 1
 184 361 190 347 190 333 c 0x54
 190 320 185 309 177 300 c 1
 204 299 225 277 225 250 c 1x91
510 333 m 0x1004
 510 305 488 283 460 283 c 0
 432 283 410 305 410 333 c 0x5004
 410 355 424 373 444 380 c 1
 434 389 428 403 428 417 c 0x5002
 428 439 442 457 461 464 c 1
 452 473 446 486 446 500 c 1x5001
 446 513 450 524 458 533 c 1
 431 534 410 556 410 583 c 0
 410 611 432 633 460 633 c 0
 488 633 510 611 510 583 c 0x4804
 510 570 506 559 498 550 c 1
 525 549 546 527 546 500 c 0x1001
 546 478 531 460 512 453 c 1
 521 444 528 431 528 417 c 1x1002
 528 395 514 377 494 370 c 1
 504 361 510 347 510 333 c 0x1004
368 417 m 0x2020
 368 389 346 367 318 367 c 0
 290 367 268 389 268 417 c 0
 268 445 290 467 318 467 c 0
 346 467 368 445 368 417 c 0x2020
439 500 m 0x1008
 439 472 417 450 389 450 c 0
 361 450 339 472 339 500 c 0x1008
 339 513 343 524 351 533 c 1
 324 534 303 556 303 583 c 0
 303 611 325 633 353 633 c 0
 381 633 403 611 403 583 c 0x0810
 403 570 399 559 391 550 c 1
 418 549 439 527 439 500 c 0x1008
296 583 m 0
 296 555 274 533 246 533 c 0
 218 533 196 555 196 583 c 0
 196 611 218 633 246 633 c 0x08
 274 633 296 611 296 583 c 0
EndSplineSet
EndChar

StartChar: braceleft
Encoding: 123 123 76
Width: 600
VWidth: 0
UnlinkRmOvrlpSave: 1
Flags: W
HStem: 200 100<301 339.883 364.438 447.562> 450 100<98.4375 181.562 205.438 244> 700 100<364.438 447.562 471.438 554.562>
VStem: 90 100<458.438 541.562> 197 100<467.423 541.562> 214 100<300.423 369.574> 232 100<380.426 449.577> 249 100<208.438 282.577> 267 100<541.438 619.574> 285 100<630.426 708.562> 356 100<208.438 291.562 708.438 791.562> 463 100<708.438 791.562>
CounterMasks: 1 e0
LayerCount: 2
Back
Fore
SplineSet
456 250 m 0xf030
 456 222 434 200 406 200 c 0
 378 200 356 222 356 250 c 0
 356 278 378 300 406 300 c 0
 434 300 456 278 456 250 c 0xf030
349 250 m 1xf110
 349 222 327 200 299 200 c 0
 271 200 249 222 249 250 c 0xf110
 249 263 253 274 261 283 c 1
 234 284 214 306 214 333 c 1xf410
 214 355 228 373 248 380 c 1
 238 389 232 403 232 417 c 0xf210
 232 430 236 441 244 450 c 1
 217 451 197 473 197 500 c 1
 197 528 219 550 247 550 c 0
 275 550 297 528 297 500 c 0xf810
 297 487 292 476 284 467 c 1
 311 466 332 444 332 417 c 1xf210
 332 395 318 377 298 370 c 1
 308 361 314 347 314 333 c 0xf410
 314 320 309 309 301 300 c 1
 328 299 349 277 349 250 c 1xf110
190 500 m 0
 190 472 168 450 140 450 c 0
 112 450 90 472 90 500 c 0
 90 528 112 550 140 550 c 0
 168 550 190 528 190 500 c 0
367 583 m 1xf090
 367 555 345 533 317 533 c 0
 289 533 267 555 267 583 c 0xf090
 267 605 281 623 301 630 c 1
 291 639 285 653 285 667 c 1
 285 695 307 717 335 717 c 0
 363 717 385 695 385 667 c 0xf050
 385 645 371 627 351 620 c 1
 361 611 367 597 367 583 c 1xf090
563 750 m 0
 563 722 541 700 513 700 c 0
 485 700 463 722 463 750 c 0
 463 778 485 800 513 800 c 0
 541 800 563 778 563 750 c 0
456 750 m 0xf030
 456 722 434 700 406 700 c 0
 378 700 356 722 356 750 c 0
 356 778 378 800 406 800 c 0
 434 800 456 778 456 750 c 0xf030
EndSplineSet
EndChar

StartChar: udieresis
Encoding: 252 252 77
Width: 600
VWidth: 0
UnlinkRmOvrlpSave: 1
Flags: W
HStem: 200 100<187.438 270.562 293.438 376.562> 613 20G<179 207 499 527> 700 100<240.438 323.562 454.438 537.562>
VStem: 90 100<291.438 369.574> 108 100<380.426 452.575> 126 100<464.425 535.575> 143 100<547.425 624.562> 179 100<208.438 291.562> 232 100<708.438 791.562> 285 100<208.438 291.562> 392 100<208.438 285.575> 410 100<297.425 369.574> 428 100<380.426 452.575> 446 100<464.425 535.575 708.438 791.562> 463 100<547.425 624.562>
LayerCount: 2
Back
Fore
SplineSet
492 250 m 0xe020
 492 222 470 200 442 200 c 0
 414 200 392 222 392 250 c 0xe020
 392 272 406 290 425 297 c 1
 416 306 410 319 410 333 c 0xe010
 410 355 424 373 444 380 c 1
 434 389 428 403 428 417 c 0xe008
 428 439 442 457 461 464 c 1
 452 473 446 486 446 500 c 1xe004
 446 522 460 540 479 547 c 1
 470 556 463 569 463 583 c 0
 463 611 485 633 513 633 c 0
 541 633 563 611 563 583 c 0xe002
 563 561 549 543 530 536 c 1
 539 527 546 514 546 500 c 0xe004
 546 478 531 460 512 453 c 1
 521 444 528 431 528 417 c 1xe008
 528 395 514 377 494 370 c 1
 504 361 510 347 510 333 c 0xe010
 510 311 496 293 477 286 c 1
 486 277 492 264 492 250 c 0xe020
385 250 m 0xe040
 385 222 363 200 335 200 c 0
 307 200 285 222 285 250 c 0
 285 278 307 300 335 300 c 0
 363 300 385 278 385 250 c 0xe040
279 250 m 0xe1
 279 222 257 200 229 200 c 0
 201 200 179 222 179 250 c 0
 179 278 201 300 229 300 c 0
 257 300 279 278 279 250 c 0xe1
190 333 m 0xf0
 190 305 168 283 140 283 c 0
 112 283 90 305 90 333 c 0xf0
 90 355 104 373 124 380 c 1
 114 389 108 403 108 417 c 0xe8
 108 439 122 457 141 464 c 1
 132 473 126 486 126 500 c 0xe4
 126 522 140 540 159 547 c 1
 150 556 143 569 143 583 c 0
 143 611 165 633 193 633 c 0
 221 633 243 611 243 583 c 0xe2
 243 561 229 543 210 536 c 1
 219 527 226 514 226 500 c 0xe4
 226 478 211 460 192 453 c 1
 201 444 208 431 208 417 c 0xe8
 208 395 194 377 174 370 c 1
 184 361 190 347 190 333 c 0xf0
546 750 m 0xe004
 546 722 524 700 496 700 c 0
 468 700 446 722 446 750 c 0
 446 778 468 800 496 800 c 0
 524 800 546 778 546 750 c 0xe004
332 750 m 0xe080
 332 722 310 700 282 700 c 0
 254 700 232 722 232 750 c 0
 232 778 254 800 282 800 c 0
 310 800 332 778 332 750 c 0xe080
EndSplineSet
EndChar

StartChar: glyph78
Encoding: 776 776 78
Width: 600
VWidth: 0
UnlinkRmOvrlpSave: 1
Flags: W
HStem: 700 100<98.4375 181.562 312.438 395.562>
VStem: 90 100<708.438 791.562> 304 100<708.438 791.562>
LayerCount: 2
Back
Fore
SplineSet
404 750 m 0
 404 722 382 700 354 700 c 0
 326 700 304 722 304 750 c 0
 304 778 326 800 354 800 c 0
 382 800 404 778 404 750 c 0
190 750 m 0
 190 722 168 700 140 700 c 0
 112 700 90 722 90 750 c 0
 90 778 112 800 140 800 c 0
 168 800 190 778 190 750 c 0
EndSplineSet
EndChar

StartChar: glyph79
Encoding: 9786 9786 79
Width: 600
VWidth: 0
UnlinkRmOvrlpSave: 1
Flags: W
HStem: 283 100<176 215.883 240.438 323.562 347.438 430.562> 367 100<99.1171 138 418.438 501.562> 617 100<204.438 287.562 418.438 501.562>
VStem: 90 100<383.424 458.562> 125 100<291.438 366.576> 196 100<625.438 708.562> 232 100<291.438 374.562> 339 100<291.438 374.562> 410 100<375.438 458.562 625.438 708.562>
LayerCount: 2
Back
Fore
SplineSet
439 333 m 0xa1
 439 305 417 283 389 283 c 0
 361 283 339 305 339 333 c 0
 339 361 361 383 389 383 c 0
 417 383 439 361 439 333 c 0xa1
332 333 m 0xa2
 332 305 310 283 282 283 c 0
 254 283 232 305 232 333 c 0
 232 361 254 383 282 383 c 0
 310 383 332 361 332 333 c 0xa2
225 333 m 1xa8
 225 305 203 283 175 283 c 0
 147 283 125 305 125 333 c 0xa8
 125 346 130 358 138 367 c 1
 111 368 90 390 90 417 c 1
 90 445 112 467 140 467 c 0
 168 467 190 445 190 417 c 0x70
 190 404 184 392 176 383 c 1
 203 382 225 360 225 333 c 1xa8
510 417 m 0x6080
 510 389 488 367 460 367 c 0
 432 367 410 389 410 417 c 0
 410 445 432 467 460 467 c 0
 488 467 510 445 510 417 c 0x6080
510 667 m 0
 510 639 488 617 460 617 c 0
 432 617 410 639 410 667 c 0
 410 695 432 717 460 717 c 0
 488 717 510 695 510 667 c 0
296 667 m 0x24
 296 639 274 617 246 617 c 0
 218 617 196 639 196 667 c 0
 196 695 218 717 246 717 c 0
 274 717 296 695 296 667 c 0x24
EndSplineSet
EndChar

StartChar: glyph80
Encoding: 8595 8595 80
Width: 600
VWidth: 0
UnlinkRmOvrlpSave: 1
Flags: W
HStem: 200 21G<250 278> 200 21G<250 278> 283 100<176 215.883 347.438 430.562> 367 100<99.1171 138 418.438 501.562> 780 20G<357 385>
VStem: 90 100<383.424 458.562> 125 100<291.438 366.576> 214 100<208.438 285.575> 232 100<297.425 369.574> 250 100<380.426 452.575> 268 100<464.425 535.575> 285 100<547.425 619.574> 303 100<630.426 702.575> 321 100<714.425 791.562> 339 100<291.438 374.562> 410 100<375.438 458.562>
LayerCount: 2
Back
Fore
SplineSet
314 250 m 0x89
 314 222 292 200 264 200 c 0
 236 200 214 222 214 250 c 0x89
 214 272 228 290 247 297 c 1
 238 306 232 319 232 333 c 0x8880
 232 355 246 373 266 380 c 1
 256 389 250 403 250 417 c 0x8840
 250 439 264 457 283 464 c 1
 274 473 268 486 268 500 c 0x8820
 268 522 282 540 301 547 c 1
 292 556 285 569 285 583 c 0x8810
 285 605 299 623 319 630 c 1
 309 639 303 653 303 667 c 1x8808
 303 689 317 707 336 714 c 1
 327 723 321 736 321 750 c 0
 321 778 343 800 371 800 c 0
 399 800 421 778 421 750 c 0x8804
 421 728 407 710 388 703 c 1
 397 694 403 681 403 667 c 0x8808
 403 645 389 627 369 620 c 1
 379 611 385 597 385 583 c 1x8810
 385 561 371 543 352 536 c 1
 361 527 368 514 368 500 c 0x8820
 368 478 353 460 334 453 c 1
 343 444 350 431 350 417 c 1x8840
 350 395 336 377 316 370 c 1
 326 361 332 347 332 333 c 0x8880
 332 311 318 293 299 286 c 1
 308 277 314 264 314 250 c 0x89
439 333 m 0x2802
 439 305 417 283 389 283 c 0
 361 283 339 305 339 333 c 0
 339 361 361 383 389 383 c 0
 417 383 439 361 439 333 c 0x2802
225 333 m 1x2a
 225 305 203 283 175 283 c 0
 147 283 125 305 125 333 c 0x2a
 125 346 130 358 138 367 c 1
 111 368 90 390 90 417 c 1
 90 445 112 467 140 467 c 0
 168 467 190 445 190 417 c 0x1c
 190 404 184 392 176 383 c 1
 203 382 225 360 225 333 c 1x2a
510 417 m 0x1801
 510 389 488 367 460 367 c 0
 432 367 410 389 410 417 c 0
 410 445 432 467 460 467 c 0
 488 467 510 445 510 417 c 0x1801
EndSplineSet
EndChar

StartChar: quotedbl
Encoding: 34 34 81
Width: 600
VWidth: 0
UnlinkRmOvrlpSave: 1
Flags: W
HStem: 533 267<141.354 173.772 247.354 279.772>
VStem: 90 100<541.438 619.574> 108 100<630.426 702.575> 126 100<714.425 791.562> 196 100<541.438 619.574> 214 100<630.426 702.575> 232 100<714.425 791.562>
LayerCount: 2
Back
Fore
SplineSet
296 583 m 1x88
 296 555 274 533 246 533 c 0
 218 533 196 555 196 583 c 0x88
 196 605 210 623 230 630 c 1
 220 639 214 653 214 667 c 1x84
 214 689 228 707 247 714 c 1
 238 723 232 736 232 750 c 0
 232 778 254 800 282 800 c 0
 310 800 332 778 332 750 c 0x82
 332 728 318 710 299 703 c 1
 308 694 314 681 314 667 c 0x84
 314 645 300 627 280 620 c 1
 290 611 296 597 296 583 c 1x88
190 583 m 1xc0
 190 555 168 533 140 533 c 0
 112 533 90 555 90 583 c 0xc0
 90 605 104 623 124 630 c 1
 114 639 108 653 108 667 c 0xa0
 108 689 122 707 141 714 c 1
 132 723 126 736 126 750 c 1
 126 778 148 800 176 800 c 0
 204 800 226 778 226 750 c 0x90
 226 728 212 710 193 703 c 1
 202 694 208 681 208 667 c 0xa0
 208 645 194 627 174 620 c 1
 184 611 190 597 190 583 c 1xc0
EndSplineSet
EndChar

StartChar: ampersand
Encoding: 38 38 82
Width: 600
VWidth: 0
UnlinkRmOvrlpSave: 1
Flags: W
HStem: 200 100<177 215.883 240.438 323.562 390 429.883> 283 100<98.4375 137> 367 100<169.438 252.562 383.438 466.562> 533 100<311.438 394.562> 617 100<170.117 210 427 465.562> 700 100<240.438 323.562 348.117 387>
VStem: 90 100<300.423 374.562> 125 100<208.438 282.577> 161 100<375.438 458.562 633.424 708.562> 196 100<550.423 616.576> 232 100<208.438 291.562 467.423 532.577 708.438 791.562> 268 100<383.424 449.577> 303 100<300.423 366.576 541.438 624.562> 339 100<208.438 282.577 717.423 791.562> 375 100<375.438 458.562 626.117 699.577>
LayerCount: 2
Back
Fore
SplineSet
439 250 m 0x8004
 439 222 417 200 389 200 c 0
 361 200 339 222 339 250 c 0x8004
 339 263 343 274 351 283 c 1
 324 284 303 306 303 333 c 0x4008
 303 346 308 358 316 367 c 1
 289 368 268 390 268 417 c 0x2010
 268 430 272 441 280 450 c 1
 253 451 233 473 233 500 c 1
 233 513 237 524 245 533 c 1
 218 534 196 556 196 583 c 0x3040
 196 596 202 608 210 617 c 1
 183 618 161 640 161 667 c 0
 161 695 183 717 211 717 c 0
 239 717 261 695 261 667 c 0x0880
 261 654 256 642 248 633 c 1
 275 632 296 610 296 583 c 0x1040
 296 570 292 559 284 550 c 1
 311 549 333 527 333 500 c 0
 333 487 328 476 320 467 c 1
 347 466 368 444 368 417 c 1x3010
 368 404 362 392 354 383 c 1
 381 382 403 360 403 333 c 0x4008
 403 320 398 309 390 300 c 1
 417 299 439 277 439 250 c 0x8004
332 250 m 0x8020
 332 222 310 200 282 200 c 0
 254 200 232 222 232 250 c 0
 232 278 254 300 282 300 c 0
 310 300 332 278 332 250 c 0x8020
225 250 m 1x81
 225 222 203 200 175 200 c 0
 147 200 125 222 125 250 c 0x81
 125 263 129 274 137 283 c 1
 110 284 90 306 90 333 c 1
 90 361 112 383 140 383 c 0
 168 383 190 361 190 333 c 0x42
 190 320 185 309 177 300 c 1
 204 299 225 277 225 250 c 1x81
475 417 m 0x2002
 475 389 453 367 425 367 c 0
 397 367 375 389 375 417 c 0
 375 445 397 467 425 467 c 0
 453 467 475 445 475 417 c 0x2002
261 417 m 0x2080
 261 389 239 367 211 367 c 0
 183 367 161 389 161 417 c 0
 161 445 183 467 211 467 c 0
 239 467 261 445 261 417 c 0x2080
403 583 m 0x1008
 403 555 381 533 353 533 c 0
 325 533 303 555 303 583 c 0
 303 611 325 633 353 633 c 0
 381 633 403 611 403 583 c 0x1008
474 667 m 0
 474 639 452 617 424 617 c 0x0804
 396 617 374 639 374 667 c 0
 374 680 379 691 387 700 c 1
 360 701 339 723 339 750 c 0
 339 778 361 800 389 800 c 0x0404
 417 800 439 778 439 750 c 0
 439 737 435 726 427 717 c 1x0804
 454 716 474 694 474 667 c 0
332 750 m 0x0420
 332 722 310 700 282 700 c 0
 254 700 232 722 232 750 c 0
 232 778 254 800 282 800 c 0
 310 800 332 778 332 750 c 0x0420
EndSplineSet
EndChar

StartChar: asterisk
Encoding: 42 42 83
Width: 600
VWidth: 0
UnlinkRmOvrlpSave: 1
Flags: W
HStem: 200 21G<268 296> 200 21G<268 296> 283 100<98.4375 181.562 461 500.883> 367 100<169.438 252.562> 533 100<418.438 501.562> 617 100<170.117 210 489.438 572.562> 780 20G<375 403>
VStem: 90 100<291.438 374.562> 161 100<375.438 458.562 633.424 708.562> 196 100<550.423 616.576> 232 100<208.438 285.575 467.423 532.577> 250 100<297.425 369.574> 268 100<380.426 449.577> 303 100<550.423 619.574> 321 100<630.426 702.575> 339 100<467.423 532.577 714.425 791.562> 375 100<383.424 449.577> 410 100<291.438 366.576 541.438 624.562> 481 100<625.438 708.562>
LayerCount: 2
Back
Fore
SplineSet
332 250 m 0x1a20
 332 222 310 200 282 200 c 0
 254 200 232 222 232 250 c 0x9a20
 232 272 246 290 265 297 c 1
 256 306 250 319 250 333 c 0x9a10
 250 355 264 373 284 380 c 1
 274 389 268 403 268 417 c 0x9a08
 268 430 272 441 280 450 c 1
 253 451 233 473 233 500 c 1
 233 513 237 524 245 533 c 1
 218 534 196 556 196 583 c 0x9a40
 196 596 202 608 210 617 c 1
 183 618 161 640 161 667 c 0
 161 695 183 717 211 717 c 0
 239 717 261 695 261 667 c 0x0680
 261 654 256 642 248 633 c 1
 275 632 296 610 296 583 c 0x0a40
 296 570 292 559 284 550 c 1
 311 549 333 527 333 500 c 0
 333 487 328 476 320 467 c 1
 347 466 368 444 368 417 c 1x1a08
 368 395 354 377 334 370 c 1
 344 361 350 347 350 333 c 0x1a10
 350 311 336 293 317 286 c 1
 326 277 332 264 332 250 c 0x1a20
510 333 m 0x220040
 510 305 488 283 460 283 c 0
 432 283 410 305 410 333 c 0x220040
 410 346 415 358 423 367 c 1
 396 368 375 390 375 417 c 0x120080
 375 430 379 441 387 450 c 1
 360 451 339 473 339 500 c 0x1201
 339 513 343 524 351 533 c 1
 324 534 303 556 303 583 c 0x1a04
 303 605 317 623 337 630 c 1
 327 639 321 653 321 667 c 1x1a02
 321 689 335 707 354 714 c 1
 345 723 339 736 339 750 c 0
 339 778 361 800 389 800 c 0
 417 800 439 778 439 750 c 0x1a01
 439 728 425 710 406 703 c 1
 415 694 421 681 421 667 c 0x1a02
 421 645 407 627 387 620 c 1
 397 611 403 597 403 583 c 1x1a04
 403 570 399 559 391 550 c 1
 418 549 439 527 439 500 c 0x1a01
 439 487 434 476 426 467 c 1
 453 466 475 444 475 417 c 0x1a0080
 475 404 469 392 461 383 c 1
 488 382 510 360 510 333 c 0x220040
190 333 m 0x23
 190 305 168 283 140 283 c 0
 112 283 90 305 90 333 c 0
 90 361 112 383 140 383 c 0
 168 383 190 361 190 333 c 0x23
261 417 m 0x1280
 261 389 239 367 211 367 c 0
 183 367 161 389 161 417 c 0
 161 445 183 467 211 467 c 0
 239 467 261 445 261 417 c 0x1280
510 583 m 0x0a0040
 510 555 488 533 460 533 c 0
 432 533 410 555 410 583 c 0
 410 611 432 633 460 633 c 0
 488 633 510 611 510 583 c 0x0a0040
581 667 m 0x060020
 581 639 559 617 531 617 c 0
 503 617 481 639 481 667 c 0
 481 695 503 717 531 717 c 0
 559 717 581 695 581 667 c 0x060020
EndSplineSet
EndChar

StartChar: period
Encoding: 46 46 84
Width: 600
VWidth: 0
UnlinkRmOvrlpSave: 1
Flags: W
HStem: 200 100<177 215.883> 283 100<98.4375 137 247 286.883> 367 100<170.117 209>
VStem: 90 100<300.423 374.562> 125 100<208.438 282.577> 161 100<383.424 458.562> 196 100<291.438 366.576>
LayerCount: 2
Back
Fore
SplineSet
225 250 m 1x88
 225 222 203 200 175 200 c 0
 147 200 125 222 125 250 c 0x88
 125 263 129 274 137 283 c 1
 110 284 90 306 90 333 c 1
 90 361 112 383 140 383 c 0
 168 383 190 361 190 333 c 0x50
 190 320 185 309 177 300 c 1
 204 299 225 277 225 250 c 1x88
296 333 m 0x42
 296 305 274 283 246 283 c 0
 218 283 196 305 196 333 c 0x42
 196 346 201 358 209 367 c 1
 182 368 161 390 161 417 c 0
 161 445 183 467 211 467 c 0
 239 467 261 445 261 417 c 0x24
 261 404 255 392 247 383 c 1
 274 382 296 360 296 333 c 0x42
EndSplineSet
EndChar

StartChar: plusminus
Encoding: 177 177 85
Width: 600
VWidth: 0
UnlinkRmOvrlpSave: 1
Flags: W
HStem: 283 100<98.4375 181.562 205.438 288.562 311.438 394.562 418.438 501.562> 450 100<338 376.883> 533 100<151.438 234.562 259.117 298 408 446.883 471.438 554.562> 780 20G<375 403>
VStem: 90 100<291.438 374.562> 143 100<541.438 624.562> 197 100<291.438 374.562> 250 100<550.423 624.562> 286 100<458.438 532.577> 303 100<291.438 374.562> 321 100<633.424 702.575> 339 100<714.425 791.562> 356 100<541.438 616.576> 410 100<291.438 374.562> 463 100<541.438 624.562>
LayerCount: 2
Back
Fore
SplineSet
510 333 m 0x9004
 510 305 488 283 460 283 c 0
 432 283 410 305 410 333 c 0
 410 361 432 383 460 383 c 0
 488 383 510 361 510 333 c 0x9004
403 333 m 0x9040
 403 305 381 283 353 283 c 0
 325 283 303 305 303 333 c 0
 303 361 325 383 353 383 c 0
 381 383 403 361 403 333 c 0x9040
297 333 m 0x92
 297 305 275 283 247 283 c 0
 219 283 197 305 197 333 c 0
 197 361 219 383 247 383 c 0
 275 383 297 361 297 333 c 0x92
190 333 m 0x98
 190 305 168 283 140 283 c 0
 112 283 90 305 90 333 c 0
 90 361 112 383 140 383 c 0
 168 383 190 361 190 333 c 0x98
386 500 m 0xd080
 386 472 364 450 336 450 c 0
 308 450 286 472 286 500 c 0xd080
 286 513 290 524 298 533 c 1
 271 534 250 556 250 583 c 0
 250 611 272 633 300 633 c 0
 328 633 350 611 350 583 c 0xb1
 350 570 346 559 338 550 c 1
 365 549 386 527 386 500 c 0xd080
563 583 m 0xb002
 563 555 541 533 513 533 c 0
 485 533 463 555 463 583 c 0
 463 611 485 633 513 633 c 0
 541 633 563 611 563 583 c 0xb002
456 583 m 0xb008
 456 555 434 533 406 533 c 0
 378 533 356 555 356 583 c 0xb008
 356 596 362 608 370 617 c 1
 343 618 321 640 321 667 c 0xb020
 321 689 335 707 354 714 c 1
 345 723 339 736 339 750 c 0
 339 778 361 800 389 800 c 0
 417 800 439 778 439 750 c 0xb010
 439 728 425 710 406 703 c 1
 415 694 421 681 421 667 c 0xb020
 421 654 416 642 408 633 c 1
 435 632 456 610 456 583 c 0xb008
243 583 m 0xb4
 243 555 221 533 193 533 c 0
 165 533 143 555 143 583 c 0
 143 611 165 633 193 633 c 0
 221 633 243 611 243 583 c 0xb4
EndSplineSet
EndChar

StartChar: two
Encoding: 50 50 86
Width: 600
VWidth: 0
UnlinkRmOvrlpSave: 1
Flags: W
HStem: 200 100<98.4375 181.562 248 287.883 311.438 394.562 418.438 501.562> 283 100<170.117 209> 367 100<294.438 377.562> 450 100<419.438 502.562> 617 100<187.438 270.562> 700 100<258.438 341.562 365.438 448.562 473.117 512>
VStem: 90 100<208.438 291.562> 161 100<300.423 374.562> 179 100<625.438 708.562> 197 100<208.438 282.577> 250 100<708.438 791.562> 286 100<375.438 458.562> 303 100<208.438 291.562> 357 100<708.438 791.562> 410 100<208.438 291.562 459.117 540.883> 464 100<717.423 791.562> 481 100<541.438 619.574> 499 100<630.426 699.577>
LayerCount: 2
Back
Fore
SplineSet
510 250 m 0x8002
 510 222 488 200 460 200 c 0
 432 200 410 222 410 250 c 0
 410 278 432 300 460 300 c 0
 488 300 510 278 510 250 c 0x8002
403 250 m 0x8008
 403 222 381 200 353 200 c 0
 325 200 303 222 303 250 c 0
 303 278 325 300 353 300 c 0
 381 300 403 278 403 250 c 0x8008
297 250 m 0x8040
 297 222 275 200 247 200 c 0
 219 200 197 222 197 250 c 0x8040
 197 263 201 274 209 283 c 1
 182 284 161 306 161 333 c 0
 161 361 183 383 211 383 c 0
 239 383 261 361 261 333 c 0x41
 261 320 256 309 248 300 c 1
 275 299 297 277 297 250 c 0x8040
190 250 m 0x82
 190 222 168 200 140 200 c 0
 112 200 90 222 90 250 c 0
 90 278 112 300 140 300 c 0
 168 300 190 278 190 250 c 0x82
386 417 m 0x2010
 386 389 364 367 336 367 c 0
 308 367 286 389 286 417 c 0
 286 445 308 467 336 467 c 0
 364 467 386 445 386 417 c 0x2010
511 500 m 0
 511 472 489 450 461 450 c 0
 433 450 411 472 411 500 c 0
 411 528 433 550 461 550 c 0x10
 489 550 511 528 511 500 c 0
581 583 m 1x080080
 581 555 559 533 531 533 c 0
 503 533 481 555 481 583 c 0x080080
 481 605 495 623 515 630 c 1
 505 639 499 653 499 667 c 1x080040
 499 680 504 691 512 700 c 1
 485 701 464 723 464 750 c 0
 464 778 486 800 514 800 c 0
 542 800 564 778 564 750 c 0x0401
 564 737 560 726 552 717 c 1
 579 716 599 694 599 667 c 0x080040
 599 645 585 627 565 620 c 1
 575 611 581 597 581 583 c 1x080080
279 667 m 0x0880
 279 639 257 617 229 617 c 0
 201 617 179 639 179 667 c 0
 179 695 201 717 229 717 c 0
 257 717 279 695 279 667 c 0x0880
457 750 m 0x0404
 457 722 435 700 407 700 c 0
 379 700 357 722 357 750 c 0
 357 778 379 800 407 800 c 0
 435 800 457 778 457 750 c 0x0404
350 750 m 0x0420
 350 722 328 700 300 700 c 0
 272 700 250 722 250 750 c 0
 250 778 272 800 300 800 c 0
 328 800 350 778 350 750 c 0x0420
EndSplineSet
EndChar

StartChar: mu
Encoding: 181 181 87
Width: 600
VWidth: 0
UnlinkRmOvrlpSave: 1
Flags: W
HStem: 200 21G<126 154> 200 21G<126 154> 367 100<241.438 324.562 347.438 430.562 498 536.883> 613 20G<197 225 464 492>
VStem: 90 100<208.438 285.575> 108 100<297.425 369.574> 126 100<380.426 452.575> 144 100<464.425 535.575> 161 100<547.425 624.562> 233 100<375.438 458.562> 339 100<375.438 458.562> 411 100<467.423 535.575> 428 100<547.425 624.562> 446 100<375.438 449.577>
LayerCount: 2
Back
Fore
SplineSet
190 250 m 0xb8
 190 222 168 200 140 200 c 0
 112 200 90 222 90 250 c 0xb8
 90 272 104 290 123 297 c 1
 114 306 108 319 108 333 c 0xb4
 108 355 122 373 142 380 c 1
 132 389 126 403 126 417 c 0xb2
 126 439 140 457 159 464 c 1
 150 473 144 486 144 500 c 0xb1
 144 522 158 540 177 547 c 1
 168 556 161 569 161 583 c 0
 161 611 183 633 211 633 c 0
 239 633 261 611 261 583 c 0xb080
 261 561 247 543 228 536 c 1
 237 527 244 514 244 500 c 0xb1
 244 478 229 460 210 453 c 1
 219 444 226 431 226 417 c 0xb2
 226 395 212 377 192 370 c 1
 202 361 208 347 208 333 c 0xb4
 208 311 194 293 175 286 c 1
 184 277 190 264 190 250 c 0xb8
546 417 m 1x3004
 546 389 524 367 496 367 c 0
 468 367 446 389 446 417 c 0x3004
 446 430 450 441 458 450 c 1
 431 451 411 473 411 500 c 1x3010
 411 522 425 540 444 547 c 1
 435 556 428 569 428 583 c 0
 428 611 450 633 478 633 c 0
 506 633 528 611 528 583 c 0x3008
 528 561 514 543 495 536 c 1
 504 527 511 514 511 500 c 0x3010
 511 487 506 476 498 467 c 1
 525 466 546 444 546 417 c 1x3004
439 417 m 0x3020
 439 389 417 367 389 367 c 0
 361 367 339 389 339 417 c 0
 339 445 361 467 389 467 c 0
 417 467 439 445 439 417 c 0x3020
333 417 m 0x3040
 333 389 311 367 283 367 c 0
 255 367 233 389 233 417 c 0
 233 445 255 467 283 467 c 0
 311 467 333 445 333 417 c 0x3040
EndSplineSet
EndChar

StartChar: six
Encoding: 54 54 88
Width: 600
VWidth: 0
UnlinkRmOvrlpSave: 1
Flags: W
HStem: 200 100<177 215.883 240.438 323.562 347.438 430.562> 450 100<187.438 270.562 338 376.883 401.438 440> 533 100<259.117 298> 617 100<329.438 412.562> 700 100<400.438 483.562>
VStem: 90 100<300.423 369.574> 108 100<380.426 458.562> 125 100<208.438 282.577> 179 100<458.438 541.562> 232 100<208.438 291.562> 250 100<550.423 624.562> 286 100<458.438 532.577> 321 100<625.438 708.562> 339 100<208.438 291.562> 393 100<467.423 541.562 709.117 790.883> 410 100<291.438 369.574> 428 100<380.426 449.577>
LayerCount: 2
Back
Fore
SplineSet
439 250 m 0x8004
 439 222 417 200 389 200 c 0
 361 200 339 222 339 250 c 0
 339 278 361 300 389 300 c 0
 417 300 439 278 439 250 c 0x8004
332 250 m 0x8040
 332 222 310 200 282 200 c 0
 254 200 232 222 232 250 c 0
 232 278 254 300 282 300 c 0
 310 300 332 278 332 250 c 0x8040
225 250 m 1x81
 225 222 203 200 175 200 c 0
 147 200 125 222 125 250 c 0x81
 125 263 129 274 137 283 c 1
 110 284 90 306 90 333 c 1x84
 90 355 104 373 124 380 c 1
 114 389 108 403 108 417 c 0
 108 445 130 467 158 467 c 0
 186 467 208 445 208 417 c 0x82
 208 395 194 377 174 370 c 1
 184 361 190 347 190 333 c 0x84
 190 320 185 309 177 300 c 1
 204 299 225 277 225 250 c 1x81
510 333 m 0xc001
 510 305 488 283 460 283 c 0
 432 283 410 305 410 333 c 0xc001
 410 355 424 373 444 380 c 1
 434 389 428 403 428 417 c 0xc00080
 428 430 432 441 440 450 c 1
 413 451 393 473 393 500 c 1
 393 528 415 550 443 550 c 0
 471 550 493 528 493 500 c 0xc002
 493 487 488 476 480 467 c 1
 507 466 528 444 528 417 c 1xc00080
 528 395 514 377 494 370 c 1
 504 361 510 347 510 333 c 0xc001
386 500 m 0xc010
 386 472 364 450 336 450 c 0
 308 450 286 472 286 500 c 0xc010
 286 513 290 524 298 533 c 1
 271 534 250 556 250 583 c 0
 250 611 272 633 300 633 c 0
 328 633 350 611 350 583 c 0xa020
 350 570 346 559 338 550 c 1
 365 549 386 527 386 500 c 0xc010
279 500 m 0xc080
 279 472 257 450 229 450 c 0
 201 450 179 472 179 500 c 0
 179 528 201 550 229 550 c 0
 257 550 279 528 279 500 c 0xc080
421 667 m 0x9008
 421 639 399 617 371 617 c 0
 343 617 321 639 321 667 c 0
 321 695 343 717 371 717 c 0
 399 717 421 695 421 667 c 0x9008
492 750 m 0
 492 722 470 700 442 700 c 0
 414 700 392 722 392 750 c 0
 392 778 414 800 442 800 c 0x88
 470 800 492 778 492 750 c 0
EndSplineSet
EndChar

StartChar: colon
Encoding: 58 58 89
Width: 600
VWidth: 0
UnlinkRmOvrlpSave: 1
Flags: W
HStem: 200 100<177 215.883> 283 100<98.4375 137 247 286.883> 367 100<170.117 209> 533 100<248 286.883> 617 100<170.117 210 320 358.562> 700 100<241.117 280>
VStem: 90 100<300.423 374.562> 125 100<208.438 282.577> 161 100<383.424 458.562 633.424 708.562> 196 100<291.438 366.576 541.438 616.576> 232 100<717.423 791.562> 267 100<625.438 699.577>
LayerCount: 2
Back
Fore
SplineSet
225 250 m 1x81
 225 222 203 200 175 200 c 0
 147 200 125 222 125 250 c 0x81
 125 263 129 274 137 283 c 1
 110 284 90 306 90 333 c 1
 90 361 112 383 140 383 c 0
 168 383 190 361 190 333 c 0x42
 190 320 185 309 177 300 c 1
 204 299 225 277 225 250 c 1x81
296 333 m 0x4040
 296 305 274 283 246 283 c 0
 218 283 196 305 196 333 c 0x4040
 196 346 201 358 209 367 c 1
 182 368 161 390 161 417 c 0
 161 445 183 467 211 467 c 0
 239 467 261 445 261 417 c 0x2080
 261 404 255 392 247 383 c 1
 274 382 296 360 296 333 c 0x4040
296 583 m 0
 296 555 274 533 246 533 c 0
 218 533 196 555 196 583 c 0x1040
 196 596 202 608 210 617 c 1
 183 618 161 640 161 667 c 0
 161 695 183 717 211 717 c 0x0880
 239 717 261 695 261 667 c 0
 261 654 256 642 248 633 c 1x1080
 275 632 296 610 296 583 c 0
367 667 m 0x0810
 367 639 345 617 317 617 c 0
 289 617 267 639 267 667 c 0x0810
 267 680 272 691 280 700 c 1
 253 701 232 723 232 750 c 0
 232 778 254 800 282 800 c 0
 310 800 332 778 332 750 c 0x0420
 332 737 328 726 320 717 c 1
 347 716 367 694 367 667 c 0x0810
EndSplineSet
EndChar

StartChar: greater
Encoding: 62 62 90
Width: 600
VWidth: 0
UnlinkRmOvrlpSave: 1
Flags: W
HStem: 200 100<98.4375 181.562> 283 100<223.438 306.562> 367 100<347.438 430.562> 450 100<472.438 555.562> 533 100<382.438 465.562> 617 100<294.438 377.562> 700 100<205.438 288.562>
VStem: 90 100<208.438 291.562> 197 100<708.438 791.562> 215 100<291.438 374.562> 286 100<625.438 708.562> 339 100<375.438 458.562> 374 100<541.438 624.562> 464 100<458.438 541.562>
LayerCount: 2
Back
Fore
SplineSet
190 250 m 0x81
 190 222 168 200 140 200 c 0
 112 200 90 222 90 250 c 0
 90 278 112 300 140 300 c 0
 168 300 190 278 190 250 c 0x81
315 333 m 0x4140
 315 305 293 283 265 283 c 0
 237 283 215 305 215 333 c 0
 215 361 237 383 265 383 c 0
 293 383 315 361 315 333 c 0x4140
439 417 m 0x2110
 439 389 417 367 389 367 c 0
 361 367 339 389 339 417 c 0
 339 445 361 467 389 467 c 0
 417 467 439 445 439 417 c 0x2110
564 500 m 0x1104
 564 472 542 450 514 450 c 0
 486 450 464 472 464 500 c 0
 464 528 486 550 514 550 c 0
 542 550 564 528 564 500 c 0x1104
474 583 m 0x0908
 474 555 452 533 424 533 c 0
 396 533 374 555 374 583 c 0
 374 611 396 633 424 633 c 0
 452 633 474 611 474 583 c 0x0908
386 667 m 0x0520
 386 639 364 617 336 617 c 0
 308 617 286 639 286 667 c 0
 286 695 308 717 336 717 c 0
 364 717 386 695 386 667 c 0x0520
297 750 m 0x0380
 297 722 275 700 247 700 c 0
 219 700 197 722 197 750 c 0
 197 778 219 800 247 800 c 0
 275 800 297 778 297 750 c 0x0380
EndSplineSet
EndChar

StartChar: Aacute
Encoding: 193 193 91
Width: 600
VWidth: 0
UnlinkRmOvrlpSave: 1
Flags: W
HStem: 200 21G<126 154 446 474> 200 21G<126 154 446 474> 283 100<265 305.604 329.438 412.562> 367 100<188.117 228> 450 100<259.438 342.562> 700 100<418.438 501.562>
VStem: 90 100<208.438 285.575> 108 100<297.425 374.562> 179 100<383.424 458.562> 215 100<291.438 366.576> 251 100<458.438 541.562> 321 100<291.438 374.562 550.423 619.574> 339 100<630.426 708.562> 357 100<467.423 532.577> 393 100<383.424 449.577> 410 100<208.438 285.575 708.438 791.562> 428 100<297.425 366.576>
LayerCount: 2
Back
Fore
SplineSet
510 250 m 0x2401
 510 222 488 200 460 200 c 0
 432 200 410 222 410 250 c 0xa401
 410 272 424 290 443 297 c 1
 434 306 428 319 428 333 c 0xa40080
 428 346 433 358 441 367 c 1
 414 368 393 390 393 417 c 0x9402
 393 430 397 441 405 450 c 1
 378 451 357 473 357 500 c 0x0c04
 357 513 361 524 369 533 c 1
 342 534 321 556 321 583 c 0x0c10
 321 605 335 623 355 630 c 1
 345 639 339 653 339 667 c 1
 339 695 361 717 389 717 c 0
 417 717 439 695 439 667 c 0x0c08
 439 645 425 627 405 620 c 1
 415 611 421 597 421 583 c 1x0c10
 421 570 417 559 409 550 c 1
 436 549 457 527 457 500 c 0x0c04
 457 487 452 476 444 467 c 1
 471 466 493 444 493 417 c 0x1402
 493 404 487 392 479 383 c 1
 506 382 528 360 528 333 c 0x240080
 528 311 514 293 495 286 c 1
 504 277 510 264 510 250 c 0x2401
190 250 m 0xa6
 190 222 168 200 140 200 c 0
 112 200 90 222 90 250 c 0xa6
 90 272 104 290 123 297 c 1
 114 306 108 319 108 333 c 0
 108 361 130 383 158 383 c 0
 186 383 208 361 208 333 c 0xa5
 208 311 194 293 175 286 c 1
 184 277 190 264 190 250 c 0xa6
421 333 m 0x2410
 421 305 399 283 371 283 c 0
 343 283 321 305 321 333 c 0
 321 361 343 383 371 383 c 0
 399 383 421 361 421 333 c 0x2410
315 333 m 0x2440
 315 305 293 283 265 283 c 0
 237 283 215 305 215 333 c 0x2440
 215 346 220 358 228 367 c 1
 201 367 179 390 179 417 c 0
 179 445 201 467 229 467 c 0
 257 467 279 445 279 417 c 0x1480
 279 404 273 392 265 383 c 1
 292 383 315 360 315 333 c 0x2440
351 500 m 0x0c20
 351 472 329 450 301 450 c 0
 273 450 251 472 251 500 c 0
 251 528 273 550 301 550 c 0
 329 550 351 528 351 500 c 0x0c20
510 750 m 0x0401
 510 722 488 700 460 700 c 0
 432 700 410 722 410 750 c 0
 410 778 432 800 460 800 c 0
 488 800 510 778 510 750 c 0x0401
EndSplineSet
EndChar

StartChar: B
Encoding: 66 66 92
Width: 600
VWidth: 0
UnlinkRmOvrlpSave: 1
Flags: W
HStem: 200 100<98.4375 181.562 248 287.883 311.438 394.562> 450 100<312.438 395.562 419.438 458> 700 100<206.117 245 312.438 395.562 418.438 501.562>
VStem: 90 100<208.438 291.562> 161 100<300.423 369.574> 179 100<380.426 452.575> 197 100<208.438 282.577 464.425 535.575 717.423 791.562> 214 100<547.425 619.574> 232 100<630.426 699.577> 304 100<209.117 290.883 458.438 541.562 708.438 791.562> 411 100<467.423 541.562 709.117 790.883> 428 100<291.438 369.574> 446 100<380.426 449.577> 481 100<541.438 619.574> 499 100<630.426 708.562>
CounterMasks: 1 e0
LayerCount: 2
Back
Fore
SplineSet
403 250 m 0xe0
 403 222 381 200 353 200 c 0
 325 200 303 222 303 250 c 0
 303 278 325 300 353 300 c 0
 381 300 403 278 403 250 c 0xe0
297 250 m 0xe2
 297 222 275 200 247 200 c 0
 219 200 197 222 197 250 c 0xe2
 197 263 201 274 209 283 c 1
 182 284 161 306 161 333 c 0xe8
 161 355 175 373 195 380 c 1
 185 389 179 403 179 417 c 0xe4
 179 439 193 457 212 464 c 1
 203 473 197 486 197 500 c 0xe2
 197 522 211 540 230 547 c 1
 221 556 214 569 214 583 c 0xe1
 214 605 228 623 248 630 c 1
 238 639 232 653 232 667 c 0xe080
 232 680 237 691 245 700 c 1
 218 701 197 723 197 750 c 1
 197 778 219 800 247 800 c 0
 275 800 297 778 297 750 c 0xe2
 297 737 293 726 285 717 c 1
 312 716 332 694 332 667 c 1xe080
 332 645 318 627 298 620 c 1
 308 611 314 597 314 583 c 0xe1
 314 561 300 543 281 536 c 1
 290 527 297 514 297 500 c 0xe2
 297 478 282 460 263 453 c 1
 272 444 279 431 279 417 c 0xe4
 279 395 265 377 245 370 c 1
 255 361 261 347 261 333 c 0xe8
 261 320 256 309 248 300 c 1
 275 299 297 277 297 250 c 0xe2
190 250 m 0xf0
 190 222 168 200 140 200 c 0
 112 200 90 222 90 250 c 0
 90 278 112 300 140 300 c 0
 168 300 190 278 190 250 c 0xf0
528 333 m 0xe010
 528 305 506 283 478 283 c 0
 450 283 428 305 428 333 c 0xe010
 428 355 442 373 462 380 c 1
 452 389 446 403 446 417 c 0xe008
 446 430 450 441 458 450 c 1
 431 451 411 473 411 500 c 1
 411 528 433 550 461 550 c 0
 489 550 511 528 511 500 c 0xe020
 511 487 506 476 498 467 c 1
 525 466 546 444 546 417 c 1xe008
 546 395 532 377 512 370 c 1
 522 361 528 347 528 333 c 0xe010
404 500 m 0xe040
 404 472 382 450 354 450 c 0
 326 450 304 472 304 500 c 0
 304 528 326 550 354 550 c 0
 382 550 404 528 404 500 c 0xe040
581 583 m 1xe004
 581 555 559 533 531 533 c 0
 503 533 481 555 481 583 c 0xe004
 481 605 495 623 515 630 c 1
 505 639 499 653 499 667 c 1
 499 695 521 717 549 717 c 0
 577 717 599 695 599 667 c 0xe002
 599 645 585 627 565 620 c 1
 575 611 581 597 581 583 c 1xe004
510 750 m 0
 510 722 488 700 460 700 c 0
 432 700 410 722 410 750 c 0
 410 778 432 800 460 800 c 0
 488 800 510 778 510 750 c 0
404 750 m 0xe040
 404 722 382 700 354 700 c 0
 326 700 304 722 304 750 c 0
 304 778 326 800 354 800 c 0
 382 800 404 778 404 750 c 0xe040
EndSplineSet
EndChar

StartChar: Aring
Encoding: 197 197 93
Width: 600
VWidth: 0
UnlinkRmOvrlpSave: 1
Flags: W
HStem: 200 21G<126 154 446 474> 200 21G<126 154 446 474> 283 100<265 305.604 329.438 412.562> 367 100<188.117 228> 450 100<259.438 342.562> 617 100<295.117 335 445 483.562> 700 100<366.117 405>
VStem: 90 100<208.438 285.575> 108 100<297.425 374.562> 179 100<383.424 458.562> 215 100<291.438 366.576> 251 100<458.438 541.562> 286 100<633.424 708.562> 321 100<291.438 374.562 550.423 616.576> 357 100<467.423 532.577 717.423 791.562> 393 100<383.424 449.577 626.117 699.577> 410 100<208.438 285.575> 428 100<297.425 366.576>
LayerCount: 2
Back
Fore
SplineSet
510 250 m 0x200080
 510 222 488 200 460 200 c 0
 432 200 410 222 410 250 c 0xa00080
 410 272 424 290 443 297 c 1
 434 306 428 319 428 333 c 0xa00040
 428 346 433 358 441 367 c 1
 414 368 393 390 393 417 c 0x9001
 393 430 397 441 405 450 c 1
 378 451 357 473 357 500 c 0x0802
 357 513 361 524 369 533 c 1
 342 534 321 556 321 583 c 0x0804
 321 596 327 608 335 617 c 1
 308 618 286 640 286 667 c 0
 286 695 308 717 336 717 c 0
 364 717 386 695 386 667 c 0x0c08
 386 654 381 642 373 633 c 1
 400 632 421 610 421 583 c 0x0c04
 421 570 417 559 409 550 c 1
 436 549 457 527 457 500 c 0x0c02
 457 487 452 476 444 467 c 1
 471 466 493 444 493 417 c 0x1001
 493 404 487 392 479 383 c 1
 506 382 528 360 528 333 c 0x200040
 528 311 514 293 495 286 c 1
 504 277 510 264 510 250 c 0x200080
190 250 m 0xa1
 190 222 168 200 140 200 c 0
 112 200 90 222 90 250 c 0xa1
 90 272 104 290 123 297 c 1
 114 306 108 319 108 333 c 0
 108 361 130 383 158 383 c 0
 186 383 208 361 208 333 c 0xa080
 208 311 194 293 175 286 c 1
 184 277 190 264 190 250 c 0xa1
421 333 m 0x2004
 421 305 399 283 371 283 c 0
 343 283 321 305 321 333 c 0
 321 361 343 383 371 383 c 0
 399 383 421 361 421 333 c 0x2004
315 333 m 0x2020
 315 305 293 283 265 283 c 0
 237 283 215 305 215 333 c 0x2020
 215 346 220 358 228 367 c 1
 201 367 179 390 179 417 c 0
 179 445 201 467 229 467 c 0
 257 467 279 445 279 417 c 0x1040
 279 404 273 392 265 383 c 1
 292 383 315 360 315 333 c 0x2020
351 500 m 0x0810
 351 472 329 450 301 450 c 0
 273 450 251 472 251 500 c 0
 251 528 273 550 301 550 c 0
 329 550 351 528 351 500 c 0x0810
492 667 m 0
 492 639 470 617 442 617 c 0x0402
 414 617 392 639 392 667 c 0
 392 680 397 691 405 700 c 1
 378 701 357 723 357 750 c 0
 357 778 379 800 407 800 c 0x0202
 435 800 457 778 457 750 c 0
 457 737 453 726 445 717 c 1x0402
 472 716 492 694 492 667 c 0
EndSplineSet
EndChar

StartChar: F
Encoding: 70 70 94
Width: 600
VWidth: 0
UnlinkRmOvrlpSave: 1
Flags: W
HStem: 200 21G<126 154> 200 21G<126 154> 450 100<259.438 342.562 365.438 448.562> 700 100<312.438 395.562 418.438 501.562 525.438 608.562>
VStem: 90 100<208.438 285.575> 108 100<297.425 369.574> 126 100<380.426 452.575> 144 100<464.425 535.575> 161 100<547.425 619.574> 179 100<630.426 702.575> 197 100<714.425 791.562> 251 100<458.438 541.562> 304 100<708.438 791.562> 357 100<458.438 541.562> 410 100<708.438 791.562> 517 100<708.438 791.562>
LayerCount: 2
Back
Fore
SplineSet
190 250 m 0xb801
 190 222 168 200 140 200 c 0
 112 200 90 222 90 250 c 0xb801
 90 272 104 290 123 297 c 1
 114 306 108 319 108 333 c 0xb401
 108 355 122 373 142 380 c 1
 132 389 126 403 126 417 c 0xb201
 126 439 140 457 159 464 c 1
 150 473 144 486 144 500 c 0xb101
 144 522 158 540 177 547 c 1
 168 556 161 569 161 583 c 0xb081
 161 605 175 623 195 630 c 1
 185 639 179 653 179 667 c 0xb041
 179 689 193 707 212 714 c 1
 203 723 197 736 197 750 c 0
 197 778 219 800 247 800 c 0
 275 800 297 778 297 750 c 0xb021
 297 728 283 710 264 703 c 1
 273 694 279 681 279 667 c 0xb041
 279 645 265 627 245 620 c 1
 255 611 261 597 261 583 c 0xb081
 261 561 247 543 228 536 c 1
 237 527 244 514 244 500 c 0xb101
 244 478 229 460 210 453 c 1
 219 444 226 431 226 417 c 0xb201
 226 395 212 377 192 370 c 1
 202 361 208 347 208 333 c 0xb401
 208 311 194 293 175 286 c 1
 184 277 190 264 190 250 c 0xb801
457 500 m 0x3005
 457 472 435 450 407 450 c 0
 379 450 357 472 357 500 c 0
 357 528 379 550 407 550 c 0
 435 550 457 528 457 500 c 0x3005
351 500 m 0x3011
 351 472 329 450 301 450 c 0
 273 450 251 472 251 500 c 0
 251 528 273 550 301 550 c 0
 329 550 351 528 351 500 c 0x3011
617 750 m 0
 617 722 595 700 567 700 c 0
 539 700 517 722 517 750 c 0
 517 778 539 800 567 800 c 0
 595 800 617 778 617 750 c 0
510 750 m 0x3003
 510 722 488 700 460 700 c 0
 432 700 410 722 410 750 c 0
 410 778 432 800 460 800 c 0
 488 800 510 778 510 750 c 0x3003
404 750 m 0x3009
 404 722 382 700 354 700 c 0
 326 700 304 722 304 750 c 0
 304 778 326 800 354 800 c 0
 382 800 404 778 404 750 c 0x3009
EndSplineSet
EndChar

StartChar: Eacute
Encoding: 201 201 95
Width: 600
VWidth: 0
UnlinkRmOvrlpSave: 1
Flags: W
HStem: 200 100<205.438 288.562 311.438 394.562 418.438 501.562> 367 100<241.438 324.562 347.438 430.562> 533 100<276.438 359.562 426 464.883 489.438 572.562> 617 100<348.117 388> 700 100<418.438 501.562>
VStem: 90 100<208.438 285.575> 108 100<297.425 369.574> 126 100<380.426 452.575> 144 100<464.425 535.575> 161 100<547.425 624.562> 197 100<208.438 291.562> 233 100<375.438 458.562> 268 100<541.438 624.562> 303 100<208.438 291.562> 339 100<375.438 458.562 633.424 708.562> 374 100<541.438 616.576> 410 100<208.438 291.562 708.438 791.562> 481 100<541.438 624.562>
LayerCount: 2
Back
Fore
SplineSet
510 250 m 0xc00080
 510 222 488 200 460 200 c 0
 432 200 410 222 410 250 c 0
 410 278 432 300 460 300 c 0
 488 300 510 278 510 250 c 0xc00080
403 250 m 0xc004
 403 222 381 200 353 200 c 0
 325 200 303 222 303 250 c 0
 303 278 325 300 353 300 c 0
 381 300 403 278 403 250 c 0xc004
297 250 m 0xc020
 297 222 275 200 247 200 c 0
 219 200 197 222 197 250 c 0
 197 278 219 300 247 300 c 0
 275 300 297 278 297 250 c 0xc020
190 250 m 0xe4
 190 222 168 200 140 200 c 0
 112 200 90 222 90 250 c 0xe4
 90 272 104 290 123 297 c 1
 114 306 108 319 108 333 c 0xe2
 108 355 122 373 142 380 c 1
 132 389 126 403 126 417 c 0xe1
 126 439 140 457 159 464 c 1
 150 473 144 486 144 500 c 0xe080
 144 522 158 540 177 547 c 1
 168 556 161 569 161 583 c 0
 161 611 183 633 211 633 c 0
 239 633 261 611 261 583 c 0xe040
 261 561 247 543 228 536 c 1
 237 527 244 514 244 500 c 0xe080
 244 478 229 460 210 453 c 1
 219 444 226 431 226 417 c 0xe1
 226 395 212 377 192 370 c 1
 202 361 208 347 208 333 c 0xe2
 208 311 194 293 175 286 c 1
 184 277 190 264 190 250 c 0xe4
439 417 m 0xc002
 439 389 417 367 389 367 c 0
 361 367 339 389 339 417 c 0
 339 445 361 467 389 467 c 0
 417 467 439 445 439 417 c 0xc002
333 417 m 0xc010
 333 389 311 367 283 367 c 0
 255 367 233 389 233 417 c 0
 233 445 255 467 283 467 c 0
 311 467 333 445 333 417 c 0xc010
581 583 m 0xe00040
 581 555 559 533 531 533 c 0
 503 533 481 555 481 583 c 0
 481 611 503 633 531 633 c 0
 559 633 581 611 581 583 c 0xe00040
474 583 m 0xe001
 474 555 452 533 424 533 c 0
 396 533 374 555 374 583 c 0xe001
 374 596 380 608 388 617 c 1
 361 618 339 640 339 667 c 0
 339 695 361 717 389 717 c 0
 417 717 439 695 439 667 c 0xd002
 439 654 434 642 426 633 c 1
 453 632 474 610 474 583 c 0xe001
368 583 m 0xe008
 368 555 346 533 318 533 c 0
 290 533 268 555 268 583 c 0
 268 611 290 633 318 633 c 0
 346 633 368 611 368 583 c 0xe008
510 750 m 0xc80080
 510 722 488 700 460 700 c 0
 432 700 410 722 410 750 c 0
 410 778 432 800 460 800 c 0
 488 800 510 778 510 750 c 0xc80080
EndSplineSet
EndChar

StartChar: J
Encoding: 74 74 96
Width: 600
VWidth: 0
UnlinkRmOvrlpSave: 1
Flags: W
HStem: 200 100<177 215.883 240.438 323.562 347.438 430.562> 283 100<98.4375 137> 780 20G<535 563>
VStem: 90 100<300.423 374.562> 125 100<208.438 282.577> 232 100<208.438 291.562> 339 100<208.438 291.562> 410 100<291.438 369.574> 428 100<380.426 452.575> 446 100<464.425 535.575> 463 100<547.425 619.574> 481 100<630.426 702.575> 499 100<714.425 791.562>
LayerCount: 2
Back
Fore
SplineSet
439 250 m 0xa6
 439 222 417 200 389 200 c 0
 361 200 339 222 339 250 c 0
 339 278 361 300 389 300 c 0
 417 300 439 278 439 250 c 0xa6
332 250 m 0
 332 222 310 200 282 200 c 0
 254 200 232 222 232 250 c 0
 232 278 254 300 282 300 c 0
 310 300 332 278 332 250 c 0
225 250 m 1xac
 225 222 203 200 175 200 c 0
 147 200 125 222 125 250 c 0xac
 125 263 129 274 137 283 c 1
 110 284 90 306 90 333 c 1
 90 361 112 383 140 383 c 0
 168 383 190 361 190 333 c 0x74
 190 320 185 309 177 300 c 1
 204 299 225 277 225 250 c 1xac
510 333 m 0x65
 510 305 488 283 460 283 c 0
 432 283 410 305 410 333 c 0x65
 410 355 424 373 444 380 c 1
 434 389 428 403 428 417 c 0x6480
 428 439 442 457 461 464 c 1
 452 473 446 486 446 500 c 1x6440
 446 522 460 540 479 547 c 1
 470 556 463 569 463 583 c 0x6420
 463 605 477 623 497 630 c 1
 487 639 481 653 481 667 c 1x6410
 481 689 495 707 514 714 c 1
 505 723 499 736 499 750 c 0
 499 778 521 800 549 800 c 0
 577 800 599 778 599 750 c 0x6408
 599 728 585 710 566 703 c 1
 575 694 581 681 581 667 c 0x6410
 581 645 567 627 547 620 c 1
 557 611 563 597 563 583 c 1x6420
 563 561 549 543 530 536 c 1
 539 527 546 514 546 500 c 0x6440
 546 478 531 460 512 453 c 1
 521 444 528 431 528 417 c 1x6480
 528 395 514 377 494 370 c 1
 504 361 510 347 510 333 c 0x65
EndSplineSet
EndChar

